<svg width="103" height="126" viewBox="0 0 103 126" fill="none" xmlns="http://www.w3.org/2000/svg">
<rect x="1" y="26.2471" width="100.76" height="61.0985" rx="30.5492" stroke="white" stroke-width="2"/>
<circle cx="51.8407" cy="8.56336" r="7.56336" stroke="white" stroke-width="2"/>
<rect x="50.5273" y="16.2207" width="2.70422" height="10.8169" fill="white"/>
<path d="M31.8711 98.5731C31.8711 97.8575 32.6008 97.3735 33.2601 97.6519L51.7548 105.461C52.0087 105.568 52.2957 105.566 52.5479 105.454L70.1288 97.6859C70.7899 97.3938 71.533 97.8778 71.533 98.6006V124.241C71.533 124.997 70.7275 125.48 70.0613 125.123L52.6139 115.791C52.325 115.636 51.9788 115.633 51.6871 115.782L33.3262 125.167C32.6608 125.507 31.8711 125.024 31.8711 124.276V98.5731Z" fill="#6174D6"/>
<rect x="30.4297" y="42.0137" width="16" height="16" rx="8" fill="white"/>
<rect x="57.9453" y="42.0137" width="16" height="16" rx="8" fill="white"/>
<circle cx="38.5" cy="49.5" r="2.5" fill="#009470"/>
<circle cx="66.5" cy="49.5" r="2.5" fill="#FF4545"/>
</svg>
