<svg width="95" height="37" viewBox="0 0 95 37" fill="none" xmlns="http://www.w3.org/2000/svg">
<path d="M1 18.5L1.66429 18.5145L2.32857 18.5328L2.99286 18.5534L3.65714 18.5741L4.32143 18.5918L4.98571 18.6026L5.65 18.6023L6.31429 18.5869L6.97857 18.5533L7.64286 18.5L8.30714 18.4281L8.97143 18.3417L9.63571 18.2484L10.3 18.1593L10.9643 18.0884L11.6286 18.0514L12.2929 18.0638L12.9571 18.1387L13.6214 18.2839L14.2857 18.5L14.95 18.7774L15.6143 19.0957L16.2786 19.4234L16.9429 19.7193L17.6071 19.9365L18.2714 20.0269L18.9357 19.9481L19.6 19.6701L20.2643 19.1824L20.9286 18.5L21.5929 17.6665L22.2571 16.7545L22.9214 15.8614L23.5857 15.1017L24.25 14.5952L24.9143 14.4518L25.5786 14.7556L26.2429 15.5493L26.9071 16.8216L27.5714 18.5L28.2357 20.45L28.9 22.4831L29.5643 24.3724L30.2286 25.8763L30.8929 26.7664L31.5571 26.8584L32.2214 26.0403L32.8857 24.2954L33.55 21.715L34.2143 18.5L34.8786 14.9468L35.5429 11.4215L36.2071 8.32162L36.8714 6.03071L37.5357 4.87099L38.2 5.05955L38.8643 6.67441L39.5286 9.63548L40.1929 13.7037L40.8571 18.5L41.5214 23.5422L42.1857 28.2968L42.85 32.2394L43.5143 34.9162L44.1786 36L44.8429 35.3318L45.5071 32.9438L46.1714 29.0598L46.8357 24.0725L47.5 18.5L48.1643 12.9275L48.8286 7.94017L49.4929 4.0562L50.1571 1.66821L50.8214 1L51.4857 2.08379L52.15 4.76063L52.8143 8.70319L53.4786 13.4578L54.1429 18.5L54.8071 23.2963L55.4714 27.3645L56.1357 30.3256L56.8 31.9405L57.4643 32.129L58.1286 30.9693L58.7929 28.6784L59.4571 25.5785L60.1214 22.0532L60.7857 18.5L61.45 15.285L62.1143 12.7046L62.7786 10.9597L63.4429 10.1416L64.1071 10.2336L64.7714 11.1237L65.4357 12.6276L66.1 14.5169L66.7643 16.55L67.4286 18.5L68.0928 20.1784L68.7571 21.4507L69.4214 22.2444L70.0857 22.5482L70.75 22.4048L71.4143 21.8983L72.0786 21.1386L72.7429 20.2455L73.4071 19.3335L74.0714 18.5L74.7357 17.8176L75.4 17.3299L76.0643 17.0519L76.7286 16.9731L77.3929 17.0635L78.0571 17.2807L78.7214 17.5766L79.3857 17.9043L80.05 18.2226L80.7143 18.5L81.3786 18.7161L82.0428 18.8613L82.7071 18.9362L83.3714 18.9486L84.0357 18.9116L84.7 18.8407L85.3643 18.7516L86.0286 18.6583L86.6928 18.5719L87.3571 18.5L88.0214 18.4467L88.6857 18.4131L89.35 18.3977L90.0143 18.3974L90.6786 18.4082L91.3428 18.4259L92.0071 18.4466L92.6714 18.4672L93.3357 18.4855L94 18.5" stroke="url(#paint0_linear_3957_4892)"/>
<defs>
<linearGradient id="paint0_linear_3957_4892" x1="-16.5" y1="19" x2="99.5" y2="19" gradientUnits="userSpaceOnUse">
<stop stop-color="#4BFF47"/>
<stop offset="1" stop-color="#18A0FB" stop-opacity="0"/>
</linearGradient>
</defs>
</svg>
