<svg width="120" height="32" viewBox="0 0 120 32" fill="none" xmlns="http://www.w3.org/2000/svg">
<path d="M0.6 1.18H8.4V31H0.6V1.18ZM22.26 0.519999C24.1 0.519999 25.8 0.759999 27.36 1.24C28.92 1.72 30.28 2.46 31.44 3.46C32.6 4.46 33.5 5.74 34.14 7.3C34.78 8.82 35.1 10.64 35.1 12.76V31H27.3V14.14C27.3 11.62 26.68 9.78 25.44 8.62C24.24 7.42 22.26 6.82 19.5 6.82C17.42 6.82 15.54 7.22 13.86 8.02C12.18 8.82 10.82 9.84 9.78 11.08C8.74 12.28 8.14 13.54 7.98 14.86L7.92 11.8C8.12 10.4 8.58 9.04 9.3 7.72C10.02 6.4 10.98 5.2 12.18 4.12C13.42 3 14.88 2.12 16.56 1.48C18.24 0.839999 20.14 0.519999 22.26 0.519999ZM69.3816 21.1H76.9416C76.6216 23.14 75.7616 24.96 74.3616 26.56C73.0016 28.16 71.1416 29.42 68.7816 30.34C66.4216 31.26 63.5416 31.72 60.1416 31.72C56.3416 31.72 52.9816 31.12 50.0616 29.92C47.1416 28.68 44.8616 26.9 43.2216 24.58C41.5816 22.26 40.7616 19.46 40.7616 16.18C40.7616 12.9 41.5616 10.1 43.1616 7.78C44.7616 5.42 46.9816 3.62 49.8216 2.38C52.7016 1.14 56.0616 0.519999 59.9016 0.519999C63.8216 0.519999 67.0816 1.14 69.6816 2.38C72.2816 3.62 74.2016 5.5 75.4416 8.02C76.7216 10.5 77.2616 13.68 77.0616 17.56H48.6216C48.8216 19.08 49.3816 20.46 50.3016 21.7C51.2616 22.94 52.5416 23.92 54.1416 24.64C55.7816 25.36 57.7216 25.72 59.9616 25.72C62.4416 25.72 64.5016 25.3 66.1416 24.46C67.8216 23.58 68.9016 22.46 69.3816 21.1ZM59.5416 6.46C56.6616 6.46 54.3216 7.1 52.5216 8.38C50.7216 9.62 49.5616 11.16 49.0416 13H69.3216C69.1216 11 68.1616 9.42 66.4416 8.26C64.7616 7.06 62.4616 6.46 59.5416 6.46ZM100.446 31.72C96.6856 31.72 93.3656 31.12 90.4856 29.92C87.6456 28.72 85.4256 26.98 83.8256 24.7C82.2256 22.38 81.4256 19.54 81.4256 16.18C81.4256 12.82 82.2256 9.98 83.8256 7.66C85.4256 5.3 87.6456 3.52 90.4856 2.32C93.3656 1.12 96.6856 0.519999 100.446 0.519999C104.206 0.519999 107.486 1.12 110.286 2.32C113.126 3.52 115.346 5.3 116.946 7.66C118.546 9.98 119.346 12.82 119.346 16.18C119.346 19.54 118.546 22.38 116.946 24.7C115.346 26.98 113.126 28.72 110.286 29.92C107.486 31.12 104.206 31.72 100.446 31.72ZM100.446 25.72C102.526 25.72 104.386 25.36 106.026 24.64C107.706 23.88 109.026 22.8 109.986 21.4C110.946 19.96 111.426 18.22 111.426 16.18C111.426 14.14 110.946 12.4 109.986 10.96C109.026 9.48 107.726 8.36 106.086 7.6C104.446 6.84 102.566 6.46 100.446 6.46C98.3656 6.46 96.4856 6.84 94.8056 7.6C93.1256 8.36 91.7856 9.46 90.7856 10.9C89.8256 12.34 89.3456 14.1 89.3456 16.18C89.3456 18.22 89.8256 19.96 90.7856 21.4C91.7456 22.8 93.0656 23.88 94.7456 24.64C96.4256 25.36 98.3256 25.72 100.446 25.72Z" fill="#6174D6"/>
<path d="M0.6 1.18V0.179999H-0.4V1.18H0.6ZM8.4 1.18H9.4V0.179999H8.4V1.18ZM8.4 31V32H9.4V31H8.4ZM0.6 31H-0.4V32H0.6V31ZM27.36 1.24L27.6541 0.28422L27.6541 0.28422L27.36 1.24ZM31.44 3.46L30.7871 4.21741L30.7871 4.21741L31.44 3.46ZM34.14 7.3L33.2148 7.67957L33.2184 7.68806L34.14 7.3ZM35.1 31V32H36.1V31H35.1ZM27.3 31H26.3V32H27.3V31ZM25.44 8.62L24.7329 9.32711L24.7447 9.33889L24.7568 9.35027L25.44 8.62ZM13.86 8.02L14.2899 8.92286L14.2899 8.92286L13.86 8.02ZM9.78 11.08L10.5357 11.7349L10.541 11.7288L10.5462 11.7226L9.78 11.08ZM7.98 14.86L6.98019 14.8796L8.97273 14.9803L7.98 14.86ZM7.92 11.8L6.93005 11.6586L6.91861 11.7387L6.92019 11.8196L7.92 11.8ZM9.3 7.72L10.1779 8.19885L10.1779 8.19885L9.3 7.72ZM12.18 4.12L12.849 4.86329L12.8503 4.8621L12.18 4.12ZM16.56 1.48L16.204 0.545511L16.204 0.545511L16.56 1.48ZM0.6 2.18H8.4V0.179999H0.6V2.18ZM7.4 1.18V31H9.4V1.18H7.4ZM8.4 30H0.6V32H8.4V30ZM1.6 31V1.18H-0.4V31H1.6ZM22.26 1.52C24.0128 1.52 25.6124 1.74856 27.0659 2.19578L27.6541 0.28422C25.9876 -0.228558 24.1872 -0.480001 22.26 -0.480001V1.52ZM27.0659 2.19578C28.5027 2.63786 29.7385 3.31344 30.7871 4.21741L32.0929 2.70259C30.8215 1.60656 29.3373 0.802134 27.6541 0.28422L27.0659 2.19578ZM30.7871 4.21741C31.8162 5.10458 32.6284 6.25023 33.2148 7.67956L35.0652 6.92044C34.3716 5.22977 33.3838 3.81541 32.0929 2.70259L30.7871 4.21741ZM33.2184 7.68806C33.7942 9.05558 34.1 10.7368 34.1 12.76H36.1C36.1 10.5432 35.7658 8.58441 35.0616 6.91194L33.2184 7.68806ZM34.1 12.76V31H36.1V12.76H34.1ZM35.1 30H27.3V32H35.1V30ZM28.3 31V14.14H26.3V31H28.3ZM28.3 14.14C28.3 11.4776 27.646 9.31433 26.1232 7.88973L24.7568 9.35027C25.714 10.2457 26.3 11.7624 26.3 14.14H28.3ZM26.1471 7.91289C24.6712 6.43697 22.3665 5.82 19.5 5.82V7.82C22.1535 7.82 23.8088 8.40303 24.7329 9.32711L26.1471 7.91289ZM19.5 5.82C17.2889 5.82 15.2595 6.246 13.4301 7.11714L14.2899 8.92286C15.8206 8.19399 17.5511 7.82 19.5 7.82V5.82ZM13.4301 7.11714C11.6399 7.96958 10.1588 9.07224 9.01381 10.4374L10.5462 11.7226C11.4812 10.6078 12.7201 9.67042 14.2899 8.92286L13.4301 7.11714ZM9.02431 10.4251C7.87959 11.7459 7.17559 13.186 6.98727 14.7397L8.97273 14.9803C9.10442 13.894 9.60041 12.8141 10.5357 11.7349L9.02431 10.4251ZM8.97981 14.8404L8.91981 11.7804L6.92019 11.8196L6.98019 14.8796L8.97981 14.8404ZM8.90995 11.9414C9.09201 10.667 9.51146 9.42065 10.1779 8.19885L8.42211 7.24115C7.64854 8.65934 7.14799 10.133 6.93005 11.6586L8.90995 11.9414ZM10.1779 8.19885C10.8398 6.98527 11.7268 5.8732 12.849 4.86329L11.511 3.3767C10.2332 4.5268 9.20015 5.81473 8.4221 7.24115L10.1779 8.19885ZM12.8503 4.8621C13.9916 3.83127 15.3429 3.01375 16.916 2.41449L16.204 0.545511C14.4171 1.22625 12.8484 2.16873 11.5097 3.3779L12.8503 4.8621ZM16.916 2.41449C18.4639 1.8248 20.2403 1.52 22.26 1.52V-0.480001C20.0397 -0.480001 18.0161 -0.144804 16.204 0.545511L16.916 2.41449ZM69.3816 21.1V20.1H68.674L68.4386 20.7672L69.3816 21.1ZM76.9416 21.1L77.9295 21.255L78.1107 20.1H76.9416V21.1ZM74.3616 26.56L73.609 25.9015L73.6043 25.9069L73.5996 25.9124L74.3616 26.56ZM68.7816 30.34L68.4184 29.4083L68.4184 29.4083L68.7816 30.34ZM50.0616 29.92L49.6707 30.8405L49.6815 30.8449L50.0616 29.92ZM43.2216 24.58L44.0381 24.0028L44.0381 24.0028L43.2216 24.58ZM43.1616 7.78L43.9848 8.34775L43.9893 8.34116L43.1616 7.78ZM49.8216 2.38L49.4261 1.4615L49.4214 1.46355L49.8216 2.38ZM69.6816 2.38L70.112 1.47739L70.112 1.47739L69.6816 2.38ZM75.4416 8.02L74.5443 8.46151L74.5485 8.47012L74.5529 8.47864L75.4416 8.02ZM77.0616 17.56V18.56H78.0113L78.0602 17.6115L77.0616 17.56ZM48.6216 17.56V16.56H47.4814L47.6301 17.6905L48.6216 17.56ZM50.3016 21.7L49.4985 22.2958L49.5046 22.3041L49.5108 22.3122L50.3016 21.7ZM54.1416 24.64L53.7312 25.552L53.7396 25.5556L54.1416 24.64ZM66.1416 24.46L66.5975 25.3501L66.6056 25.3458L66.1416 24.46ZM52.5216 8.38L53.0889 9.20351L53.095 9.19928L53.1011 9.19496L52.5216 8.38ZM49.0416 13L48.0793 12.728L47.7198 14H49.0416V13ZM69.3216 13V14H70.4266L70.3166 12.9005L69.3216 13ZM66.4416 8.26L65.8603 9.07373L65.8713 9.08155L65.8824 9.08907L66.4416 8.26ZM69.3816 22.1H76.9416V20.1H69.3816V22.1ZM75.9536 20.945C75.6638 22.7926 74.8884 24.4393 73.609 25.9015L75.1141 27.2185C76.6347 25.4807 77.5793 23.4874 77.9295 21.255L75.9536 20.945ZM73.5996 25.9124C72.367 27.3625 70.6556 28.5361 68.4184 29.4083L69.1448 31.2717C71.6275 30.3039 73.6362 28.9575 75.1235 27.2076L73.5996 25.9124ZM68.4184 29.4083C66.2063 30.2706 63.4573 30.72 60.1416 30.72V32.72C63.6258 32.72 66.6368 32.2494 69.1448 31.2717L68.4184 29.4083ZM60.1416 30.72C56.446 30.72 53.2192 30.1365 50.4417 28.9951L49.6815 30.8449C52.7439 32.1035 56.2371 32.72 60.1416 32.72V30.72ZM50.4524 28.9996C47.6829 27.8235 45.5587 26.1538 44.0381 24.0028L42.405 25.1572C44.1644 27.6462 46.6002 29.5365 49.6707 30.8404L50.4524 28.9996ZM44.0381 24.0028C42.5352 21.8767 41.7616 19.2863 41.7616 16.18H39.7616C39.7616 19.6337 40.6279 22.6433 42.405 25.1572L44.0381 24.0028ZM41.7616 16.18C41.7616 13.0686 42.5179 10.4747 43.9848 8.34773L42.3384 7.21227C40.6052 9.72528 39.7616 12.7314 39.7616 16.18H41.7616ZM43.9893 8.34116C45.474 6.15117 47.5393 4.46764 50.2217 3.29645L49.4214 1.46355C46.4238 2.77236 44.0491 4.68883 42.3339 7.21884L43.9893 8.34116ZM50.217 3.29848C52.9474 2.1229 56.1678 1.52 59.9016 1.52V-0.480001C55.9553 -0.480001 52.4557 0.157098 49.4261 1.46151L50.217 3.29848ZM59.9016 1.52C63.7235 1.52 66.8249 2.12551 69.2511 3.2826L70.112 1.47739C67.3382 0.15449 63.9197 -0.480001 59.9016 -0.480001V1.52ZM69.2511 3.2826C71.6537 4.42846 73.4063 6.14886 74.5443 8.46151L76.3388 7.57849C74.9968 4.85114 72.9094 2.81154 70.112 1.47739L69.2511 3.2826ZM74.5529 8.47864C75.726 10.7515 76.2572 13.7393 76.0629 17.5085L78.0602 17.6115C78.2659 13.6207 77.7171 10.2485 76.3302 7.56136L74.5529 8.47864ZM77.0616 16.56H48.6216V18.56H77.0616V16.56ZM47.6301 17.6905C47.8525 19.3803 48.4779 20.9203 49.4985 22.2958L51.1047 21.1042C50.2852 19.9997 49.7907 18.7797 49.613 17.4295L47.6301 17.6905ZM49.5108 22.3122C50.5826 23.6965 51.9998 24.7728 53.7312 25.5519L54.5519 23.7281C53.0833 23.0672 51.9405 22.1835 51.0923 21.0878L49.5108 22.3122ZM53.7396 25.5556C55.5338 26.3434 57.6168 26.72 59.9616 26.72V24.72C57.8264 24.72 56.0293 24.3766 54.5436 23.7244L53.7396 25.5556ZM59.9616 26.72C62.5477 26.72 64.7762 26.2829 66.5974 25.35L65.6857 23.57C64.227 24.3171 62.3354 24.72 59.9616 24.72V26.72ZM66.6056 25.3458C68.437 24.3865 69.7367 23.0983 70.3246 21.4328L68.4386 20.7672C68.0664 21.8217 67.2062 22.7735 65.6776 23.5742L66.6056 25.3458ZM59.5416 5.46C56.5166 5.46 53.9561 6.13279 51.942 7.56504L53.1011 9.19496C54.687 8.06721 56.8065 7.46 59.5416 7.46V5.46ZM51.9543 7.55649C49.9914 8.90869 48.6716 10.632 48.0793 12.728L50.0039 13.272C50.4515 11.688 51.4517 10.3313 53.0889 9.20351L51.9543 7.55649ZM49.0416 14H69.3216V12H49.0416V14ZM70.3166 12.9005C70.0859 10.5938 68.9581 8.75104 67.0007 7.43093L65.8824 9.08907C67.365 10.089 68.1572 11.4062 68.3265 13.0995L70.3166 12.9005ZM67.0228 7.44627C65.116 6.08426 62.5865 5.46 59.5416 5.46V7.46C62.3366 7.46 64.4071 8.03573 65.8603 9.07373L67.0228 7.44627ZM90.4856 29.92L90.0964 30.8412L90.101 30.8431L90.4856 29.92ZM83.8256 24.7L83.0024 25.2678L83.0071 25.2744L83.8256 24.7ZM83.8256 7.66L84.6489 8.22775L84.6533 8.22116L83.8256 7.66ZM90.4856 2.32L90.101 1.39691L90.0964 1.39885L90.4856 2.32ZM110.286 2.32L109.892 3.23916L109.896 3.24115L110.286 2.32ZM116.946 7.66L116.118 8.22117L116.122 8.22773L116.946 7.66ZM116.946 24.7L117.764 25.2744L117.769 25.2677L116.946 24.7ZM110.286 29.92L109.896 28.9988L109.892 29.0009L110.286 29.92ZM106.026 24.64L106.428 25.5557L106.438 25.5511L106.026 24.64ZM109.986 21.4L110.81 21.9656L110.818 21.9547L109.986 21.4ZM109.986 10.96L109.147 11.5042L109.154 11.5147L109.986 10.96ZM94.8056 7.6L94.3935 6.68889L94.3935 6.68889L94.8056 7.6ZM90.7856 10.9L89.9643 10.3296L89.9588 10.3374L89.9536 10.3453L90.7856 10.9ZM90.7856 21.4L89.9535 21.9547L89.9609 21.9655L90.7856 21.4ZM94.7456 24.64L94.3335 25.5511L94.3425 25.5552L94.3517 25.5591L94.7456 24.64ZM100.446 30.72C96.7912 30.72 93.6061 30.1369 90.8702 28.9969L90.101 30.8431C93.1251 32.1031 96.5801 32.72 100.446 32.72V30.72ZM90.8748 28.9989C88.1886 27.8638 86.1251 26.2359 84.6442 24.1256L83.0071 25.2744C84.7261 27.7241 87.1027 29.5762 90.0964 30.8411L90.8748 28.9989ZM84.6488 24.1323C83.1847 22.0092 82.4256 19.377 82.4256 16.18H80.4256C80.4256 19.703 81.2666 22.7508 83.0024 25.2677L84.6488 24.1323ZM82.4256 16.18C82.4256 12.983 83.1847 10.3508 84.6488 8.22773L83.0024 7.09227C81.2666 9.60921 80.4256 12.657 80.4256 16.18H82.4256ZM84.6533 8.22116C86.1361 6.03401 88.1976 4.37237 90.8748 3.24115L90.0964 1.39885C87.0936 2.66762 84.7151 4.56599 82.9979 7.09884L84.6533 8.22116ZM90.8702 3.24308C93.6061 2.10313 96.7912 1.52 100.446 1.52V-0.480001C96.5801 -0.480001 93.1251 0.136867 90.101 1.39692L90.8702 3.24308ZM100.446 1.52C104.101 1.52 107.242 2.10342 109.892 3.23914L110.68 1.40085C107.73 0.136574 104.31 -0.480001 100.446 -0.480001V1.52ZM109.896 3.24115C112.574 4.37237 114.635 6.03401 116.118 8.22116L117.773 7.09884C116.056 4.56599 113.678 2.66762 110.675 1.39885L109.896 3.24115ZM116.122 8.22773C117.587 10.3508 118.346 12.983 118.346 16.18H120.346C120.346 12.657 119.505 9.60921 117.769 7.09227L116.122 8.22773ZM118.346 16.18C118.346 19.377 117.587 22.0092 116.122 24.1323L117.769 25.2677C119.505 22.7508 120.346 19.703 120.346 16.18H118.346ZM116.127 24.1256C114.646 26.2359 112.583 27.8638 109.896 28.9989L110.675 30.8411C113.669 29.5762 116.045 27.7241 117.764 25.2744L116.127 24.1256ZM109.892 29.0009C107.242 30.1366 104.101 30.72 100.446 30.72V32.72C104.31 32.72 107.73 32.1034 110.68 30.8391L109.892 29.0009ZM100.446 26.72C102.642 26.72 104.642 26.3395 106.428 25.5556L105.624 23.7244C104.129 24.3805 102.409 24.72 100.446 24.72V26.72ZM106.438 25.5511C108.269 24.7225 109.738 23.5292 110.81 21.9655L109.161 20.8345C108.313 22.0708 107.142 23.0375 105.613 23.7289L106.438 25.5511ZM110.818 21.9547C111.906 20.3228 112.426 18.3814 112.426 16.18H110.426C110.426 18.0586 109.986 19.5972 109.154 20.8453L110.818 21.9547ZM112.426 16.18C112.426 13.9786 111.906 12.0372 110.818 10.4053L109.154 11.5147C109.986 12.7628 110.426 14.3014 110.426 16.18H112.426ZM110.825 10.4158C109.759 8.77371 108.313 7.52983 106.506 6.69269L105.665 8.50731C107.139 9.19016 108.292 10.1863 109.147 11.5042L110.825 10.4158ZM106.506 6.69269C104.713 5.86196 102.686 5.46 100.446 5.46V7.46C102.445 7.46 104.178 7.81804 105.665 8.50731L106.506 6.69269ZM100.446 5.46C98.2417 5.46 96.2186 5.86323 94.3935 6.68889L95.2178 8.51111C96.7526 7.81677 98.4895 7.46 100.446 7.46V5.46ZM94.3935 6.68889C92.5577 7.51937 91.0728 8.73332 89.9643 10.3296L91.607 11.4704C92.4985 10.1867 93.6936 9.20063 95.2178 8.51111L94.3935 6.68889ZM89.9536 10.3453C88.8636 11.9803 88.3456 13.943 88.3456 16.18H90.3456C90.3456 14.257 90.7876 12.6997 91.6177 11.4547L89.9536 10.3453ZM88.3456 16.18C88.3456 18.3814 88.8657 20.3228 89.9536 21.9547L91.6177 20.8453C90.7856 19.5972 90.3456 18.0586 90.3456 16.18H88.3456ZM89.9609 21.9655C91.0331 23.5292 92.5018 24.7225 94.3335 25.5511L95.1578 23.7289C93.6294 23.0375 92.4581 22.0708 91.6104 20.8345L89.9609 21.9655ZM94.3517 25.5591C96.1745 26.3403 98.2116 26.72 100.446 26.72V24.72C98.4396 24.72 96.6768 24.3797 95.1395 23.7209L94.3517 25.5591Z" fill="white"/>
</svg>
