<svg width="95" height="37" viewBox="0 0 95 37" fill="none" xmlns="http://www.w3.org/2000/svg">
<path d="M94 18.5L93.3357 18.4855L92.6714 18.4672L92.0071 18.4466L91.3429 18.4259L90.6786 18.4082L90.0143 18.3974L89.35 18.3977L88.6857 18.4131L88.0214 18.4467L87.3571 18.5L86.6929 18.5719L86.0286 18.6583L85.3643 18.7516L84.7 18.8407L84.0357 18.9116L83.3714 18.9486L82.7071 18.9362L82.0429 18.8613L81.3786 18.7161L80.7143 18.5L80.05 18.2226L79.3857 17.9043L78.7214 17.5766L78.0571 17.2807L77.3929 17.0635L76.7286 16.9731L76.0643 17.0519L75.4 17.3299L74.7357 17.8176L74.0714 18.5L73.4071 19.3335L72.7429 20.2455L72.0786 21.1386L71.4143 21.8983L70.75 22.4048L70.0857 22.5482L69.4214 22.2444L68.7571 21.4507L68.0929 20.1784L67.4286 18.5L66.7643 16.55L66.1 14.5169L65.4357 12.6276L64.7714 11.1237L64.1071 10.2336L63.4429 10.1416L62.7786 10.9597L62.1143 12.7046L61.45 15.285L60.7857 18.5L60.1214 22.0532L59.4571 25.5785L58.7929 28.6784L58.1286 30.9693L57.4643 32.129L56.8 31.9405L56.1357 30.3256L55.4714 27.3645L54.8071 23.2963L54.1429 18.5L53.4786 13.4578L52.8143 8.70319L52.15 4.76063L51.4857 2.08379L50.8214 1L50.1571 1.66821L49.4929 4.0562L48.8286 7.94017L48.1643 12.9275L47.5 18.5L46.8357 24.0725L46.1714 29.0598L45.5071 32.9438L44.8429 35.3318L44.1786 36L43.5143 34.9162L42.85 32.2394L42.1857 28.2968L41.5214 23.5422L40.8571 18.5L40.1929 13.7037L39.5286 9.63548L38.8643 6.67441L38.2 5.05955L37.5357 4.87099L36.8714 6.03071L36.2071 8.32162L35.5429 11.4215L34.8786 14.9468L34.2143 18.5L33.55 21.715L32.8857 24.2954L32.2214 26.0403L31.5571 26.8584L30.8929 26.7664L30.2286 25.8763L29.5643 24.3724L28.9 22.4831L28.2357 20.45L27.5714 18.5L26.9071 16.8216L26.2429 15.5493L25.5786 14.7556L24.9143 14.4518L24.25 14.5952L23.5857 15.1017L22.9214 15.8614L22.2571 16.7545L21.5929 17.6665L20.9286 18.5L20.2643 19.1824L19.6 19.6701L18.9357 19.9481L18.2714 20.0269L17.6071 19.9365L16.9429 19.7193L16.2786 19.4234L15.6143 19.0957L14.95 18.7774L14.2857 18.5L13.6214 18.2839L12.9571 18.1387L12.2929 18.0638L11.6286 18.0514L10.9643 18.0884L10.3 18.1593L9.63572 18.2484L8.97144 18.3417L8.30715 18.4281L7.64287 18.5L6.97858 18.5533L6.31429 18.5869L5.65 18.6023L4.98572 18.6026L4.32143 18.5918L3.65715 18.5741L2.99287 18.5534L2.32857 18.5328L1.66429 18.5145L1 18.5" stroke="url(#paint0_linear_3957_4893)"/>
<defs>
<linearGradient id="paint0_linear_3957_4893" x1="94" y1="18" x2="-4.5" y2="18" gradientUnits="userSpaceOnUse">
<stop stop-color="#FF4545"/>
<stop offset="1" stop-color="white" stop-opacity="0"/>
</linearGradient>
</defs>
</svg>
