<svg width="18" height="18" viewBox="0 0 18 18" fill="none" xmlns="http://www.w3.org/2000/svg">
<circle cx="9" cy="7" r="3" fill="#3455FF"/>
<path fill-rule="evenodd" clip-rule="evenodd" d="M9 18C13.9706 18 18 13.9706 18 9C18 4.02944 13.9706 0 9 0C4.02944 0 0 4.02944 0 9C0 13.9706 4.02944 18 9 18ZM3.03069 14.3439C1.76062 12.9261 0.988235 11.0533 0.988235 9C0.988235 4.57522 4.57522 0.988235 9 0.988235C13.4248 0.988235 17.0118 4.57522 17.0118 9C17.0118 11.0533 16.2394 12.9261 14.9693 14.3439C14.4206 13.448 13.6754 12.6842 12.7863 12.1124C11.6777 11.3995 10.3904 11.014 9.0725 11.0004C7.75457 10.9867 6.45956 11.3454 5.33647 12.0352C4.39423 12.6139 3.60513 13.406 3.03069 14.3439Z" fill="#3455FF"/>
</svg>
