<svg width="18" height="18" viewBox="0 0 18 18" fill="none" xmlns="http://www.w3.org/2000/svg">
<path d="M0 2C0 0.89543 0.895431 0 2 0H12C13.1046 0 14 0.895431 14 2V18H2C0.89543 18 0 17.1046 0 16V2Z" fill="#3455FF"/>
<mask id="path-2-inside-1_2470_722" fill="white">
<path d="M14 2C14 0.89543 13.1046 0 12 0H8V9H14V2Z"/>
</mask>
<path d="M15 2C15 0.343146 13.6569 -1 12 -1H8V1H12C12.5523 1 13 1.44772 13 2H15ZM8 9H14H8ZM15 9V2C15 0.343146 13.6569 -1 12 -1V1C12.5523 1 13 1.44772 13 2V9H15ZM8 0V9V0Z" fill="#3455FF" mask="url(#path-2-inside-1_2470_722)"/>
<rect x="3" y="4" width="8" height="1" fill="#111115"/>
<rect x="3" y="6" width="8" height="1" fill="#111115"/>
<rect x="3" y="8" width="4" height="1" fill="#111115"/>
<path d="M15 6H18V16.5C18 17.3284 17.3284 18 16.5 18C15.6716 18 15 17.3284 15 16.5V6Z" fill="#3455FF"/>
<path d="M14 17C14 17 14 18 15 18C16 18 16 18 16 18H15.9664H14V17Z" fill="#3455FF"/>
</svg>
