<svg width="18" height="18" viewBox="0 0 18 18" fill="none" xmlns="http://www.w3.org/2000/svg">
<path d="M12 7C12 8.65685 10.6569 10 9 10C7.34315 10 6 8.65685 6 7C6 5.34315 7.34315 4 9 4C10.6569 4 12 5.34315 12 7ZM6.97627 7C6.97627 8.11768 7.88232 9.02373 9 9.02373C10.1177 9.02373 11.0237 8.11768 11.0237 7C11.0237 5.88232 10.1177 4.97627 9 4.97627C7.88232 4.97627 6.97627 5.88232 6.97627 7Z" fill="#535353"/>
<path fill-rule="evenodd" clip-rule="evenodd" d="M9 18C13.9706 18 18 13.9706 18 9C18 4.02944 13.9706 0 9 0C4.02944 0 0 4.02944 0 9C0 13.9706 4.02944 18 9 18ZM3.03069 14.3439C1.76062 12.9261 0.988235 11.0533 0.988235 9C0.988235 4.57522 4.57522 0.988235 9 0.988235C13.4248 0.988235 17.0118 4.57522 17.0118 9C17.0118 11.0533 16.2394 12.9261 14.9693 14.3439C14.4206 13.448 13.6754 12.6842 12.7863 12.1124C11.6777 11.3995 10.3904 11.014 9.0725 11.0004C7.75457 10.9867 6.45956 11.3454 5.33647 12.0352C4.39423 12.6139 3.60513 13.406 3.03069 14.3439ZM3.7672 15.067C5.17102 16.2789 6.99992 17.0118 9 17.0118C11.0001 17.0118 12.829 16.2789 14.2328 15.067C13.754 14.2127 13.0721 13.4866 12.2447 12.9545C11.2947 12.3436 10.1915 12.0133 9.06213 12.0016C7.93271 11.9899 6.82294 12.2973 5.8605 12.8884C4.98684 13.425 4.26681 14.1756 3.7672 15.067Z" fill="#535353"/>
</svg>
