<svg width="18" height="18" viewBox="0 0 18 18" fill="none" xmlns="http://www.w3.org/2000/svg">
<mask id="path-1-inside-1_2470_664" fill="white">
<path d="M0 2C0 0.89543 0.895431 0 2 0H12C13.1046 0 14 0.895431 14 2V18H2C0.89543 18 0 17.1046 0 16V2Z"/>
</mask>
<path d="M-1 2C-1 0.343146 0.343146 -1 2 -1H11C12.6569 -1 14 0.343146 14 2C14 1.44772 13.1046 1 12 1H2C1.44772 1 1 1.44772 1 2H-1ZM14 19H2C0.343146 19 -1 17.6569 -1 16H1C1 16.5523 1.44772 17 2 17H14V19ZM2 19C0.343146 19 -1 17.6569 -1 16V2C-1 0.343146 0.343146 -1 2 -1V1C1.44772 1 1 1.44772 1 2V16C1 16.5523 1.44772 17 2 17V19ZM14 0V18V0Z" fill="#535353" mask="url(#path-1-inside-1_2470_664)"/>
<mask id="path-3-inside-2_2470_664" fill="white">
<path d="M14 2C14 0.89543 13.1046 0 12 0H8V9H14V2Z"/>
</mask>
<path d="M15 2C15 0.343146 13.6569 -1 12 -1H8V1H12C12.5523 1 13 1.44772 13 2H15ZM8 9H14H8ZM15 9V2C15 0.343146 13.6569 -1 12 -1V1C12.5523 1 13 1.44772 13 2V9H15ZM8 0V9V0Z" fill="#535353" mask="url(#path-3-inside-2_2470_664)"/>
<rect x="3" y="4" width="8" height="1" fill="#535353"/>
<rect x="3" y="6" width="8" height="1" fill="#535353"/>
<rect x="3" y="8" width="4" height="1" fill="#535353"/>
<path d="M13.5 6.5H17.5V15.5C17.5 16.6046 16.6046 17.5 15.5 17.5C14.3954 17.5 13.5 16.6046 13.5 15.5V6.5Z" stroke="#535353"/>
<line x1="13" y1="17.5" x2="15.5" y2="17.5" stroke="#535353"/>
</svg>
