<svg width="12" height="10" viewBox="0 0 12 10" fill="none" xmlns="http://www.w3.org/2000/svg">
<path d="M0.74975 9.49977C0.55775 9.49977 0.36575 9.42677 0.21975 9.27977C-0.07325 8.98677 -0.07325 8.51177 0.21975 8.21877L3.68975 4.74877L0.21975 1.27977C-0.07325 0.986773 -0.07325 0.511773 0.21975 0.218773C0.51275 -0.0742265 0.98775 -0.0742265 1.28075 0.218773L5.28075 4.21877C5.57375 4.51177 5.57375 4.98677 5.28075 5.27977L1.28075 9.27977C1.13375 9.42677 0.94175 9.49977 0.74975 9.49977Z" fill="black"/>
<path d="M6.24975 9.49977C6.05775 9.49977 5.86575 9.42677 5.71975 9.27977C5.42675 8.98677 5.42675 8.51177 5.71975 8.21877L9.18975 4.74877L5.71975 1.27977C5.42675 0.986773 5.42675 0.511773 5.71975 0.218773C6.01275 -0.0742265 6.48775 -0.0742265 6.78075 0.218773L10.7808 4.21877C11.0738 4.51177 11.0738 4.98677 10.7808 5.27977L6.78075 9.27977C6.63375 9.42677 6.44175 9.49977 6.24975 9.49977Z" fill="black"/>
</svg>
