<svg width="160" height="160" viewBox="0 0 160 160" fill="none" xmlns="http://www.w3.org/2000/svg">
<path d="M45.1876 44.9962L29.8429 40.3609C29.2474 40.181 28.6188 40.5179 28.4389 41.1134L25.7097 50.1482C25.5298 50.7437 25.8667 51.3723 26.4622 51.5522L41.8069 56.1875C42.4024 56.3674 43.031 56.0305 43.2109 55.435L45.9401 46.4002C46.12 45.8047 45.7831 45.1761 45.1876 44.9962Z" stroke="#263238" stroke-width="1.00285" stroke-miterlimit="10"/>
<path d="M27.8979 42.5098L45.3411 47.7962" stroke="#263238" stroke-miterlimit="10"/>
<path d="M27.3667 44.2598L44.8131 49.5462" stroke="#263238" stroke-miterlimit="10"/>
<path d="M39.504 52.8201C39.4596 52.9674 39.4455 53.1222 39.4626 53.2751C39.4796 53.4279 39.5274 53.5758 39.6032 53.7097C39.3417 53.8389 39.0409 53.864 38.7616 53.7801C38.5837 53.7264 38.4217 53.6298 38.2898 53.4989C38.158 53.368 38.0602 53.2068 38.0051 53.0293C37.9501 52.8518 37.9394 52.6636 37.974 52.481C38.0086 52.2984 38.0875 52.1271 38.2037 51.9821C38.3199 51.8372 38.4699 51.7229 38.6406 51.6494C38.8112 51.5758 38.9973 51.5453 39.1825 51.5604C39.3677 51.5755 39.5464 51.6358 39.7029 51.7361C39.8593 51.8363 39.9888 51.9734 40.08 52.1353C39.9432 52.2053 39.8217 52.3019 39.7228 52.4195C39.6239 52.5371 39.5495 52.6733 39.504 52.8201Z" stroke="#263238" stroke-miterlimit="10"/>
<path d="M41.6768 53.4788C41.6113 53.6937 41.4836 53.8844 41.3097 54.0267C41.1358 54.1691 40.9236 54.2567 40.7 54.2784C40.4764 54.3001 40.2513 54.2551 40.0533 54.1489C39.8552 54.0427 39.6931 53.8801 39.5875 53.6818C39.4819 53.4835 39.4374 53.2583 39.4597 53.0347C39.4821 52.8112 39.5702 52.5992 39.713 52.4257C39.8558 52.2523 40.0469 52.125 40.262 52.0601C40.4771 51.9952 40.7067 51.9956 40.9216 52.0612C41.2097 52.1491 41.4511 52.3478 41.5927 52.6136C41.7343 52.8794 41.7646 53.1906 41.6768 53.4788Z" stroke="#263238" stroke-miterlimit="10"/>
<path d="M149.483 66.8057L136.796 62.9605C136.202 62.7806 135.575 63.116 135.395 63.7097L133.171 71.0473C132.991 71.641 133.327 72.2681 133.92 72.448L146.608 76.2932C147.202 76.4731 147.829 76.1377 148.009 75.544L150.233 68.2064C150.412 67.6127 150.077 66.9856 149.483 66.8057Z" stroke="#263238" stroke-miterlimit="10"/>
<path d="M135.053 64.8379L149.891 69.3339" stroke="#263238" stroke-miterlimit="10"/>
<path d="M134.602 66.3301L149.437 70.8261" stroke="#263238" stroke-miterlimit="10"/>
<path d="M144.925 73.5993C144.887 73.7243 144.875 73.8557 144.889 73.9855C144.903 74.1154 144.944 74.2409 145.008 74.3545C144.868 74.4227 144.714 74.4557 144.558 74.4508C144.402 74.4458 144.25 74.4031 144.115 74.3262C143.979 74.2493 143.864 74.1406 143.78 74.0095C143.696 73.8784 143.645 73.7287 143.632 73.5735C143.619 73.4183 143.643 73.2622 143.704 73.1186C143.764 72.9751 143.859 72.8484 143.979 72.7495C144.099 72.6506 144.242 72.5825 144.395 72.551C144.547 72.5196 144.705 72.5257 144.855 72.5689C145.092 72.6403 145.293 72.8009 145.415 73.0169C145.298 73.0755 145.194 73.1574 145.11 73.2576C145.026 73.3577 144.963 73.474 144.925 73.5993V73.5993Z" stroke="#263238" stroke-miterlimit="10"/>
<path d="M146.771 74.1688C146.715 74.3496 146.606 74.5095 146.458 74.6285C146.311 74.7476 146.132 74.8204 145.943 74.8378C145.755 74.8552 145.565 74.8165 145.399 74.7264C145.232 74.6364 145.096 74.4991 145.007 74.3318C144.918 74.1645 144.881 73.9747 144.9 73.7862C144.919 73.5978 144.993 73.4191 145.113 73.2727C145.233 73.1264 145.394 73.0188 145.575 72.9636C145.756 72.9084 145.95 72.908 146.131 72.9624C146.253 72.999 146.366 73.0593 146.464 73.1399C146.562 73.2205 146.644 73.3198 146.703 73.432C146.763 73.5442 146.799 73.6671 146.811 73.7936C146.823 73.9201 146.809 74.0476 146.771 74.1688V74.1688Z" stroke="#263238" stroke-miterlimit="10"/>
<path d="M129.178 31.7484L110.655 40.2285L115.067 49.865L133.589 41.3848L129.178 31.7484Z" stroke="#263238" stroke-miterlimit="10"/>
<path d="M131.997 39.9998L129.194 33.8782C128.932 33.9977 128.633 34.0086 128.363 33.9084C128.093 33.8083 127.874 33.6052 127.754 33.3438L112.781 40.1982C112.901 40.46 112.911 40.7586 112.811 41.0286C112.711 41.2985 112.508 41.5177 112.247 41.6381L115.05 47.7598C115.18 47.7002 115.32 47.6669 115.463 47.6617C115.605 47.6565 115.748 47.6796 115.881 47.7295C116.015 47.7795 116.138 47.8553 116.242 47.9528C116.347 48.0502 116.431 48.1673 116.49 48.2973L131.459 41.4398C131.4 41.3099 131.367 41.1697 131.361 41.0269C131.356 40.8842 131.379 40.7419 131.429 40.6081C131.479 40.4743 131.555 40.3517 131.652 40.2473C131.75 40.1429 131.867 40.0588 131.997 39.9998Z" stroke="#263238" stroke-miterlimit="10"/>
<path d="M123.818 43.0165C125.038 42.0799 125.267 40.3321 124.33 39.1128C123.394 37.8935 121.646 37.6643 120.427 38.6009C119.207 39.5376 118.978 41.2853 119.915 42.5047C120.851 43.724 122.599 43.9532 123.818 43.0165Z" stroke="#263238" stroke-miterlimit="10"/>
<path d="M122.88 42.1573L123.088 42.6117L122.89 42.7013L122.685 42.2533C122.334 42.4058 121.941 42.4307 121.574 42.3237V42.0453C121.899 42.1434 122.247 42.1265 122.56 41.9973L122.09 40.9605C121.603 41.0533 121.101 41.1237 120.861 40.5989C120.688 40.2213 120.81 39.7669 121.392 39.4437L121.184 38.9861L121.382 38.8965L121.6 39.3605C121.888 39.2356 122.205 39.1935 122.515 39.2389V39.5173C122.242 39.4778 121.963 39.5098 121.706 39.6101L122.186 40.6597C122.682 40.5605 123.21 40.4709 123.466 41.0021C123.626 41.3701 123.488 41.8341 122.88 42.1573ZM121.965 40.6821L121.51 39.6805C121.117 39.9013 121.03 40.1957 121.146 40.4453C121.28 40.7589 121.6 40.7461 121.962 40.6821H121.965ZM123.171 41.1333C123.03 40.8133 122.691 40.8453 122.314 40.9189L122.765 41.9077C123.2 41.6773 123.283 41.3861 123.168 41.1333H123.171Z" fill="#263238"/>
<path d="M26.958 75.6458L12.7148 76.9277L13.3816 84.3357L27.6248 83.0538L26.958 75.6458Z" stroke="#263238" stroke-width="1.00404" stroke-miterlimit="10"/>
<path d="M26.4803 81.555L26.0771 76.867C25.8765 76.8839 25.6774 76.8206 25.5233 76.6911C25.3692 76.5616 25.2726 76.3763 25.2547 76.1758L13.7859 77.1678C13.8019 77.3682 13.7384 77.5669 13.609 77.7208C13.4797 77.8747 13.2949 77.9715 13.0947 77.9902L13.4979 82.6782C13.5973 82.6694 13.6975 82.6803 13.7927 82.7103C13.8879 82.7403 13.9762 82.7888 14.0526 82.8531C14.129 82.9173 14.192 82.9959 14.2379 83.0845C14.2839 83.1731 14.3119 83.2699 14.3203 83.3694L25.7891 82.3774C25.7731 82.177 25.8367 81.9783 25.966 81.8244C26.0954 81.6705 26.2801 81.5737 26.4803 81.555V81.555Z" stroke="#263238" stroke-miterlimit="10"/>
<path d="M21.7282 79.6064C21.7616 79.9905 21.6803 80.3758 21.4947 80.7137C21.309 81.0515 21.0274 81.3267 20.6853 81.5045C20.3432 81.6823 19.9561 81.7546 19.5729 81.7123C19.1898 81.67 18.8277 81.515 18.5327 81.267C18.2376 81.0189 18.0227 80.6889 17.9152 80.3187C17.8077 79.9485 17.8124 79.5547 17.9287 79.1872C18.0451 78.8196 18.2678 78.4949 18.5687 78.2539C18.8697 78.013 19.2353 77.8667 19.6194 77.8336C19.8743 77.8112 20.1311 77.8394 20.3752 77.9164C20.6192 77.9934 20.8457 78.1178 21.0416 78.2825C21.2375 78.4472 21.3989 78.6489 21.5168 78.8761C21.6346 79.1033 21.7064 79.3514 21.7282 79.6064V79.6064Z" stroke="#263238" stroke-miterlimit="10"/>
<path d="M19.9682 80.8422L19.997 81.191H19.8466L19.8146 80.8454C19.5486 80.8631 19.2849 80.7873 19.069 80.631L19.1394 80.4518C19.3303 80.5907 19.5627 80.6606 19.7986 80.6502L19.7314 79.8534C19.389 79.8022 19.0402 79.7286 19.0082 79.3286C18.9826 79.0374 19.1682 78.7654 19.629 78.6886L19.6002 78.3398H19.7506L19.7794 78.6822C20.0013 78.6681 20.2229 78.7157 20.4194 78.8198L20.3586 79.0022C20.1878 78.9135 19.9974 78.8695 19.805 78.8742L19.8722 79.6774C20.221 79.7286 20.5922 79.7958 20.6274 80.2022C20.6466 80.4998 20.445 80.7718 19.9682 80.8422ZM19.7122 79.655L19.645 78.8966C19.325 78.951 19.2098 79.1238 19.2258 79.3158C19.2418 79.5078 19.4562 79.6134 19.7122 79.655ZM20.4002 80.2374C20.3778 79.9974 20.1506 79.9174 19.885 79.8918L19.949 80.6502C20.2818 80.5958 20.4162 80.4294 20.4002 80.2374Z" fill="#263238"/>
<path d="M142.186 36.068C143.723 36.068 144.97 34.8216 144.97 33.284C144.97 31.7464 143.723 30.5 142.186 30.5C140.648 30.5 139.402 31.7464 139.402 33.284C139.402 34.8216 140.648 36.068 142.186 36.068Z" stroke="#263238" stroke-miterlimit="10"/>
<path d="M142.31 34.8287V35.3279H142.08V34.8319C141.698 34.8243 141.331 34.6853 141.04 34.4383L141.165 34.1887C141.419 34.4121 141.742 34.5429 142.08 34.5599V33.4175C141.6 33.2991 141.12 33.1519 141.12 32.5759C141.12 32.1599 141.421 31.7983 142.08 31.7471V31.2383H142.298V31.7343C142.612 31.7409 142.918 31.8351 143.181 32.0063L143.072 32.2623C142.84 32.1126 142.573 32.0255 142.298 32.0095V33.1615C142.787 33.2799 143.306 33.4175 143.306 34.0031C143.318 34.4223 143.002 34.7903 142.31 34.8287ZM142.093 33.1039V32.0191C141.645 32.0575 141.453 32.2879 141.453 32.5631C141.44 32.8927 141.734 33.0143 142.08 33.1039H142.093ZM143.002 34.0191C143.002 33.6767 142.682 33.5583 142.31 33.4655V34.5599C142.787 34.5183 143.002 34.2975 143.002 34.0191Z" fill="#263238"/>
<path d="M123.849 70.529C125.346 70.1764 126.273 68.6773 125.92 67.1807C125.568 65.6841 124.069 64.7568 122.572 65.1095C121.076 65.4621 120.148 66.9613 120.501 68.4578C120.854 69.9544 122.353 70.8817 123.849 70.529Z" stroke="#263238" stroke-miterlimit="10"/>
<path d="M122.509 69.1959L122.25 69.6215L122.064 69.5063L122.323 69.0839C122.001 68.8791 121.761 68.5677 121.645 68.2039L121.882 68.0567C121.982 68.3788 122.188 68.6574 122.467 68.8471L123.069 67.8711C122.72 67.5223 122.384 67.1415 122.685 66.6519C122.903 66.2967 123.347 66.1463 123.943 66.4503L124.205 66.0215L124.391 66.1367L124.131 66.5591C124.394 66.7301 124.605 66.9689 124.743 67.2503L124.515 67.4135C124.395 67.1652 124.213 66.9516 123.987 66.7927L123.383 67.7751C123.741 68.1335 124.109 68.5207 123.802 69.0199C123.581 69.3783 123.12 69.5223 122.509 69.1959ZM123.229 67.5959L123.795 66.6711C123.395 66.4695 123.104 66.5591 122.96 66.7927C122.787 67.0903 122.97 67.3495 123.229 67.6119V67.5959ZM123.523 68.8503C123.703 68.5591 123.495 68.2935 123.223 68.0183L122.653 68.9463C123.079 69.1831 123.376 69.1191 123.52 68.8663L123.523 68.8503Z" fill="#263238"/>
<path d="M83.258 14.08C83.4866 14.5809 83.5616 15.1383 83.4735 15.6818C83.3854 16.2253 83.1381 16.7304 82.7629 17.1334C82.3877 17.5363 81.9015 17.819 81.3656 17.9456C80.8298 18.0722 80.2685 18.0371 79.7526 17.8447C79.2367 17.6523 78.7895 17.3113 78.4674 16.8647C78.1453 16.4182 77.9629 15.8861 77.9432 15.3359C77.9235 14.7857 78.0674 14.242 78.3566 13.7735C78.6459 13.305 79.0676 12.9329 79.5684 12.704C79.9009 12.5516 80.2602 12.4663 80.6258 12.453C80.9914 12.4397 81.3559 12.4986 81.6987 12.6265C82.0414 12.7543 82.3556 12.9485 82.6231 13.1979C82.8907 13.4473 83.1064 13.7471 83.258 14.08V14.08Z" stroke="#263238" stroke-miterlimit="10"/>
<path d="M81.4817 16.5863L81.6897 17.0407L81.4913 17.1335L81.2801 16.6823C80.9296 16.8348 80.5367 16.8597 80.1697 16.7527V16.4743C80.4927 16.5719 80.8393 16.5561 81.1521 16.4295L80.6785 15.3863C80.1921 15.4791 79.6897 15.5463 79.4497 15.0247C79.2769 14.6439 79.3985 14.1927 79.9841 13.8695L79.7761 13.4119L79.9713 13.3223L80.1793 13.7735C80.4671 13.6486 80.7841 13.6065 81.0945 13.6519V13.9303C80.8211 13.8915 80.5424 13.9235 80.2849 14.0231L80.7649 15.0727C81.2609 14.9735 81.7889 14.8871 82.0449 15.4151C82.2401 15.7991 82.0929 16.2631 81.4817 16.5863ZM80.5665 15.1111L80.1153 14.1223C79.7217 14.3431 79.6353 14.6375 79.7505 14.8839C79.8881 15.1847 80.2049 15.1751 80.5665 15.1111ZM81.7729 15.5623C81.6289 15.2423 81.2929 15.2775 80.9153 15.3479L81.3665 16.3367C81.7857 16.1063 81.8881 15.8183 81.7729 15.5623Z" fill="#263238"/>
<path d="M73.8815 126.826C74.2251 127.579 74.3378 128.416 74.2054 129.233C74.0731 130.049 73.7016 130.808 73.1379 131.413C72.5742 132.019 71.8437 132.443 71.0387 132.634C70.2337 132.824 69.3904 132.771 68.6153 132.482C67.8403 132.193 67.1684 131.681 66.6846 131.01C66.2008 130.339 65.9268 129.539 65.8972 128.713C65.8676 127.886 66.0839 127.069 66.5185 126.366C66.9532 125.662 67.5868 125.103 68.3391 124.759C68.8388 124.531 69.3785 124.403 69.9275 124.384C70.4764 124.364 71.0239 124.453 71.5385 124.645C72.0532 124.837 72.525 125.128 72.927 125.502C73.3291 125.877 73.6534 126.326 73.8815 126.826V126.826Z" stroke="#263238" stroke-miterlimit="10"/>
<path d="M71.2097 130.596L71.5297 131.281L71.2321 131.415L70.9121 130.737C70.3863 130.967 69.7963 131.005 69.2449 130.845L69.2641 130.429C69.7498 130.574 70.2705 130.548 70.7393 130.356L70.0257 128.794C69.2993 128.932 68.5409 129.034 68.1825 128.25C67.9201 127.681 68.1057 126.999 68.9825 126.513L68.6625 125.831L68.9569 125.693L69.2769 126.372C69.7101 126.185 70.1862 126.122 70.6529 126.189V126.605C70.2433 126.548 69.8257 126.596 69.4401 126.746L70.1569 128.321C70.9025 128.173 71.6961 128.042 72.0609 128.836C72.3361 129.415 72.1313 130.113 71.2097 130.596ZM69.8401 128.378L69.1585 126.893C68.5729 127.213 68.4417 127.665 68.6145 128.042C68.8193 128.493 69.2929 128.477 69.8401 128.378ZM71.6513 129.06C71.4369 128.589 70.9281 128.628 70.3713 128.74L71.0497 130.225C71.6801 129.876 71.8241 129.441 71.6513 129.06Z" fill="#263238"/>
<path d="M13.9714 61.8345C13.3499 62.3803 12.5806 62.7297 11.7607 62.8383C10.9407 62.947 10.107 62.8101 9.36482 62.4449C8.62267 62.0798 8.00545 61.5028 7.59119 60.7869C7.17694 60.071 6.98425 59.2484 7.03748 58.423C7.09072 57.5976 7.38749 56.8065 7.89029 56.1497C8.39308 55.493 9.07931 55.0001 9.86221 54.7333C10.6451 54.4665 11.4896 54.4379 12.2887 54.651C13.0879 54.864 13.806 55.3093 14.3522 55.9305C14.7149 56.3431 14.9929 56.8231 15.1701 57.3432C15.3473 57.8632 15.4203 58.4131 15.3849 58.9614C15.3496 59.5096 15.2065 60.0456 14.964 60.5386C14.7214 61.0315 14.3841 61.4719 13.9714 61.8345Z" stroke="#263238" stroke-miterlimit="10"/>
<path d="M9.60035 60.3612L9.03715 60.8572L8.81955 60.6108L9.37955 60.1212C9.00854 59.6822 8.80154 59.128 8.79395 58.5532L9.20035 58.4508C9.20055 58.9549 9.37079 59.4443 9.68355 59.8396L10.9635 58.7068C10.6211 58.0508 10.3043 57.3532 10.9635 56.7868C11.4371 56.374 12.1411 56.3548 12.8579 57.0524L13.4403 56.5596L13.6547 56.8028L13.0947 57.2956C13.3926 57.658 13.5853 58.0952 13.6515 58.5596L13.2547 58.6908C13.191 58.2817 13.0248 57.8953 12.7715 57.5676L11.4691 58.71C11.8243 59.3788 12.1795 60.102 11.5235 60.6812C11.0467 61.0972 10.3203 61.1196 9.60035 60.3612ZM11.3283 58.4092L12.5539 57.3308C12.0675 56.8636 11.5939 56.8668 11.2995 57.1388C10.9155 57.4652 11.0691 57.9196 11.3187 58.4092H11.3283ZM11.1971 60.3292C11.5875 59.99 11.4051 59.5132 11.1363 59.0012L9.91075 60.0796C10.4131 60.5948 10.8803 60.614 11.2003 60.3388L11.1971 60.3292Z" fill="#263238"/>
<path d="M33.1177 97.5076C33.1623 96.3924 32.2945 95.4522 31.1793 95.4076C30.0641 95.363 29.1239 96.2309 29.0793 97.346C29.0347 98.4612 29.9026 99.4014 31.0177 99.446C32.1329 99.4906 33.0731 98.6227 33.1177 97.5076Z" stroke="#263238" stroke-width="1.0008" stroke-miterlimit="10"/>
<path d="M31.6801 97.8184L31.9105 98.0968L31.7921 98.196L31.5617 97.9208C31.3451 98.0948 31.0746 98.1876 30.7969 98.1832L30.7521 97.9848C30.9963 97.9912 31.2355 97.9145 31.4305 97.7672L30.8993 97.1272C30.5793 97.284 30.2401 97.428 29.9713 97.108C29.7793 96.8776 29.7793 96.5352 30.1249 96.196L29.8913 95.9176L30.0129 95.8184L30.2433 96.0936C30.4214 95.9521 30.6351 95.8624 30.8609 95.8344L30.9185 96.0264C30.7207 96.0538 30.5327 96.1296 30.3713 96.2472L30.9057 96.8872C31.2257 96.724 31.5873 96.5672 31.8657 96.8872C32.0609 97.124 32.0545 97.476 31.6801 97.8184ZM30.7649 96.9608L30.2593 96.356C30.0289 96.5864 30.0257 96.8072 30.1505 96.9608C30.2753 97.1144 30.5249 97.0728 30.7649 96.9608ZM31.6961 97.0472C31.5361 96.8584 31.3057 96.9384 31.0561 97.0632L31.5617 97.668C31.8081 97.4248 31.8241 97.2008 31.6961 97.044V97.0472Z" fill="#263238"/>
<path d="M95.2288 137.334C95.4843 137.64 95.643 138.016 95.6849 138.413C95.7269 138.81 95.6501 139.211 95.4644 139.564C95.2787 139.918 94.9924 140.208 94.6416 140.399C94.2908 140.59 93.8913 140.672 93.4937 140.636C93.096 140.6 92.7181 140.447 92.4075 140.196C92.097 139.945 91.8679 139.607 91.7491 139.226C91.6303 138.845 91.6273 138.437 91.7403 138.054C91.8533 137.671 92.0773 137.33 92.384 137.074C92.7959 136.732 93.3267 136.567 93.86 136.616C94.3933 136.664 94.8856 136.922 95.2288 137.334V137.334Z" stroke="#263238" stroke-miterlimit="10"/>
<path d="M94.4612 139.43L94.6948 139.708L94.5732 139.807L94.3428 139.532C94.1275 139.706 93.858 139.799 93.5812 139.794L93.5364 139.596C93.7809 139.604 94.0206 139.527 94.2148 139.378L93.6836 138.738C93.3636 138.895 93.0212 139.039 92.7556 138.719C92.5604 138.489 92.5604 138.146 92.906 137.807L92.6756 137.529L92.7972 137.43L93.0276 137.705C93.2051 137.562 93.4191 137.472 93.6452 137.446L93.7028 137.638C93.504 137.665 93.315 137.741 93.1524 137.858L93.69 138.498C94.01 138.335 94.3716 138.178 94.65 138.498C94.8356 138.735 94.8292 139.087 94.4612 139.43ZM93.5428 138.559L93.0372 137.954C92.8036 138.185 92.8004 138.406 92.9284 138.559C93.0564 138.713 93.2996 138.684 93.5428 138.559ZM94.4708 138.649C94.3108 138.457 94.0804 138.537 93.8308 138.649L94.3364 139.254C94.586 139.036 94.602 138.812 94.4708 138.658V138.649Z" fill="#263238"/>
<path d="M39.9642 22.2995C40.0661 21.189 39.2484 20.2061 38.1379 20.1043C37.0274 20.0024 36.0446 20.8201 35.9427 21.9306C35.8409 23.0412 36.6585 24.024 37.7691 24.1258C38.8796 24.2277 39.8624 23.41 39.9642 22.2995Z" stroke="#263238" stroke-miterlimit="10"/>
<path d="M38.7426 22.918L38.973 23.1964L38.8514 23.2956L38.621 23.0204C38.406 23.1949 38.1362 23.2878 37.8594 23.2828L37.8146 23.0844C38.0588 23.0908 38.298 23.0141 38.493 22.8668L37.9618 22.2268C37.6418 22.3836 37.2994 22.5276 37.0338 22.2076C36.8418 21.9772 36.8386 21.6348 37.1874 21.2956L36.9538 21.0172L37.0754 20.918L37.3058 21.1932C37.4836 21.0511 37.6974 20.9613 37.9234 20.934L37.981 21.126C37.7832 21.1534 37.5952 21.2292 37.4338 21.3468L37.9682 21.9868C38.2882 21.8236 38.6498 21.6668 38.9282 21.9868C39.117 22.2236 39.1074 22.5756 38.7426 22.918ZM37.821 22.0572L37.3154 21.4396C37.085 21.67 37.0786 21.8908 37.2066 22.0444C37.3346 22.198 37.5778 22.1724 37.821 22.0572ZM38.7522 22.1436C38.5922 21.9548 38.3586 22.0348 38.1122 22.1436L38.6178 22.7484C38.8642 22.5244 38.8802 22.3004 38.7522 22.1436Z" fill="#263238"/>
<path opacity="0.2" d="M83.4592 104.899C83.4592 104.899 80.992 117.421 65.8592 120.259C65.8592 120.259 61.9072 123.411 60.592 125.277C59.2768 127.142 52.272 130.314 45.136 140.208C38 150.102 27.376 118.682 27.376 118.682L50.8576 88.1855L83.4592 104.899Z" fill="black" fill-opacity="0.7"/>
<path d="M96.9085 46.1048C96.9085 46.1048 105.069 42.1144 106.864 42.8024C108.659 43.4904 110.384 47.6184 103.52 51.5704C96.6557 55.5224 98.7037 62.8856 98.7037 62.8856H103.6C103.6 62.8856 106.537 64.0824 107.68 65.6216C108.822 67.1608 109.638 72.4088 110.291 74.188C110.944 75.9672 110.611 77.7496 108.822 78.3288C108.822 78.3288 107.68 83.308 108.006 85.516C108.333 87.724 108.169 89.1448 106.048 89.4136C105.514 89.4692 104.974 89.4081 104.466 89.2346C103.959 89.061 103.494 88.779 103.106 88.4083C102.718 88.0375 102.415 87.5868 102.219 87.0874C102.022 86.588 101.937 86.0518 101.968 85.516L100.336 91.4296L101.478 93.7016C103.092 94.3262 104.583 95.2296 105.885 96.3704C108.169 98.3288 110.454 98.8632 109.801 101.046C109.149 103.228 107.843 105.58 100.989 102.854C94.1341 100.127 88.4221 89.4136 88.4221 89.4136L84.3037 52.0568L96.9085 46.1048Z" fill="white"/>
<path opacity="0.4" d="M105.497 67.5637C101.798 72.6069 105.891 78.4149 105.891 78.4149C105.891 78.4149 103.331 79.8421 103.257 83.4837C103.229 84.9973 103.609 87.1125 104.064 89.0709C103.399 88.7566 102.843 88.2495 102.47 87.6154C102.097 86.9814 101.923 86.2498 101.971 85.5157L100.336 91.4293L101.478 93.6981C102.68 94.1581 103.813 94.7815 104.845 95.5509C103.83 97.8805 103.52 100.76 103.609 103.73C102.718 103.493 101.843 103.201 100.989 102.853C94.1341 100.124 88.4221 89.4133 88.4221 89.4133L84.3037 52.0533L96.9085 46.1045C96.9085 46.1045 101.366 43.9253 104.419 43.0645C104.182 45.9189 104.739 48.8725 105.142 50.5173C104.621 50.8983 104.08 51.2498 103.52 51.5701C96.6653 55.5221 98.7037 62.8853 98.7037 62.8853H103.603C103.603 62.8853 106.393 64.0245 107.59 65.5061C106.772 66.057 106.062 66.7546 105.497 67.5637Z" fill="#FFB800" fill-opacity="0.92"/>
<path d="M84.1599 98.8788C84.1599 98.8788 75.2831 116.284 59.2831 120.232C59.2831 120.232 58.6719 123.676 55.9647 125.154C54.5183 125.941 48.6815 134.687 43.5583 142.671L15.1807 125.263C16.9279 123.535 18.9183 121.544 20.9407 119.468C26.8607 113.432 33.1775 106.668 35.1103 103.32C36.8383 100.344 39.0239 95.1796 40.9279 90.3252C43.3663 84.1172 45.3503 78.4148 45.3503 78.4148L54.8095 67.8996L69.6799 51.3652L70.3199 53.4804L84.1599 98.8788Z" fill="white"/>
<path opacity="0.4" d="M69.6927 51.3652L84.1599 98.8788C84.1599 98.8788 75.2831 116.284 59.2831 120.232C59.2831 120.232 58.6719 123.676 55.9647 125.154C54.6655 125.861 49.8303 132.981 45.1519 140.194C46.8863 134.242 51.9071 124.754 51.9071 124.754C48.6847 120.936 49.6255 116.914 50.9151 118.06C52.2047 119.205 55.4463 122.424 55.6511 122.626C54.2271 120.949 53.8975 118.322 53.8975 118.322C53.8975 118.322 57.8911 120.978 58.2143 116.722C58.5375 112.466 55.8207 102.066 55.8207 102.066L48.6879 74.7188L69.6927 51.3652Z" fill="#FFB800" fill-opacity="0.92"/>
<path d="M84.3037 52.0568L96.9085 46.1048C96.9085 46.1048 105.069 42.1144 106.864 42.8024C108.659 43.4904 110.384 47.6184 103.52 51.5704C96.6557 55.5224 98.7037 62.8856 98.7037 62.8856H103.6C103.6 62.8856 106.537 64.0824 107.68 65.6216C108.822 67.1608 109.638 72.4088 110.291 74.188C110.944 75.9672 110.611 77.7496 108.822 78.3288C108.822 78.3288 107.68 83.308 108.006 85.516C108.333 87.724 108.169 89.1448 106.048 89.4136C105.514 89.4692 104.974 89.4082 104.466 89.2346C103.959 89.061 103.494 88.779 103.106 88.4083C102.718 88.0375 102.415 87.5868 102.219 87.0874C102.022 86.588 101.937 86.0518 101.968 85.516L100.336 91.4296L101.478 93.7016C103.092 94.3262 104.583 95.2296 105.885 96.3704C108.169 98.3288 110.454 98.8632 109.801 101.046C109.149 103.228 107.843 105.58 100.989 102.854C94.1341 100.127 88.4221 89.4136 88.4221 89.4136" stroke="#263238" stroke-linecap="round" stroke-linejoin="round"/>
<path d="M108.822 78.3288C106.374 78.9912 103.52 78.5016 102.457 74.1688C101.395 69.836 103.52 65.2088 104.905 64.7832" stroke="#263238" stroke-linecap="round" stroke-linejoin="round"/>
<path d="M101.968 85.5156C101.968 85.5156 101.805 79.9444 103.846 78.5684" stroke="#263238" stroke-linecap="round" stroke-linejoin="round"/>
<path opacity="0.4" d="M42.4384 113.187C42.4384 113.187 36.4576 112.441 35.1232 109.766C34.0192 107.552 28.0352 115.846 20.9536 119.469C26.8736 113.433 33.1904 106.669 35.1232 103.321C36.8512 100.345 39.0368 95.1806 40.9408 90.3262C40.8448 94.3518 38.7008 100.515 39.312 103.725C38.6571 103.898 38.0968 104.322 37.7524 104.905C37.408 105.489 37.3073 106.184 37.472 106.841C37.9296 109.392 42.4384 113.187 42.4384 113.187Z" fill="#FFB800" fill-opacity="0.92"/>
<path d="M84.16 98.8789C84.16 98.8789 75.2832 116.284 59.28 120.233C59.28 120.233 58.672 123.676 55.9648 125.154C54.5184 125.941 48.6848 134.687 43.5552 142.671" stroke="#263238" stroke-linecap="round" stroke-linejoin="round"/>
<path d="M15.1807 125.263C22.0159 118.508 32.5215 107.797 35.1231 103.32C39.0591 96.546 45.3631 78.4116 45.3631 78.4116L69.6831 51.3652" stroke="#263238" stroke-linecap="round" stroke-linejoin="round"/>
<path d="M55.8047 72.0215C55.8047 72.0215 59.5423 75.3687 60.6047 78.4215" stroke="#263238" stroke-linecap="round" stroke-linejoin="round"/>
<path d="M99.9232 23.2695H59.7088C58.5194 23.2695 57.5552 24.2337 57.5552 25.4231V111.033C57.5552 112.222 58.5194 113.186 59.7088 113.186H99.9232C101.113 113.186 102.077 112.222 102.077 111.033V25.4231C102.077 24.2337 101.113 23.2695 99.9232 23.2695Z" fill="#263238"/>
<path d="M88.6398 25.7184L87.7886 27.2768C87.6986 27.4459 87.5645 27.5875 87.4006 27.6867C87.2367 27.7858 87.049 27.8388 86.8574 27.84H72.7774C72.5862 27.839 72.3987 27.7868 72.2344 27.6889C72.0701 27.591 71.9349 27.4509 71.843 27.2832L70.995 25.7248C70.9039 25.5564 70.769 25.4157 70.6045 25.3177C70.44 25.2197 70.2521 25.168 70.0606 25.168H60.2206C60.0804 25.1684 59.9417 25.1965 59.8123 25.2506C59.683 25.3047 59.5656 25.3839 59.4669 25.4835C59.3682 25.5831 59.2902 25.7011 59.2372 25.831C59.1842 25.9608 59.1574 26.0998 59.1582 26.24V110.4C59.1582 110.682 59.2701 110.953 59.4692 111.152C59.6683 111.352 59.9386 111.465 60.2206 111.466H99.4078C99.5483 111.466 99.6876 111.439 99.8176 111.386C99.9476 111.333 100.066 111.255 100.165 111.156C100.265 111.057 100.344 110.939 100.398 110.809C100.452 110.68 100.48 110.54 100.48 110.4V26.24C100.48 25.9574 100.368 25.6863 100.168 25.4865C99.9679 25.2866 99.6968 25.1744 99.4142 25.1744H89.5774C89.3867 25.1725 89.199 25.2221 89.034 25.3178C88.869 25.4135 88.7329 25.5519 88.6398 25.7184Z" fill="#FFB800" fill-opacity="0.92" stroke="#263238" stroke-linecap="round" stroke-linejoin="round"/>
<path opacity="0.5" d="M100.205 43.7617H59.4238V82.6577H100.205V43.7617Z" fill="white"/>
<path d="M90.4351 68.7988V70.3156H90.2783V68.9396H89.9199V68.7988H90.4351Z" fill="#263238"/>
<path d="M91.7823 68.7988V70.3156H91.6255V68.9396H91.2671V68.7988H91.7823Z" fill="#263238"/>
<path d="M92.5599 68.7988V70.3156H92.4062V68.9396H92.0479V68.7988H92.5599Z" fill="#263238"/>
<path d="M93.955 70.1689V70.3097H92.8926V70.1977L93.5326 69.5801C93.7022 69.4137 93.7374 69.3113 93.7374 69.2089C93.7374 69.0329 93.6126 68.9241 93.3822 68.9241C93.3051 68.9191 93.2278 68.9318 93.1562 68.9612C93.0847 68.9906 93.0208 69.0359 92.9694 69.0937L92.8574 68.9977C92.9259 68.9247 93.0095 68.8674 93.1023 68.8298C93.1951 68.7922 93.295 68.7753 93.395 68.7801C93.715 68.7801 93.8974 68.9369 93.8974 69.1897C93.8925 69.282 93.8676 69.3721 93.8245 69.4539C93.7814 69.5356 93.7212 69.6071 93.6478 69.6633L93.1198 70.1689H93.955Z" fill="#263238"/>
<path d="M94.5692 68.7988V70.3156H94.3996V68.9396H94.0444V68.7988H94.5692Z" fill="#263238"/>
<path d="M59.7406 93.8364C60.2206 101.212 56.803 109.427 56.803 109.427L38.3422 104.23L35.123 103.321C38.323 98.8764 39.8462 90.1212 39.011 83.0364C38.947 82.502 38.9086 81.9996 38.8798 81.5196C38.5598 75.6764 40.9886 73.9676 43.0398 71.3852C45.2798 68.5884 50.2654 58.0284 50.2654 55.5292C50.2654 53.03 56.5214 46.9116 55.1294 39.9676C55.1294 39.9676 57.0206 38.7932 58.9214 39.7564C59.7854 40.1916 60.6462 41.0652 61.3406 42.6844C62.9694 46.4892 60.6814 57.2444 58.7358 59.8812L54.9886 75.3948C54.9886 75.3948 56.2526 77.574 57.4942 81.5292C58.7285 85.528 59.4826 89.6594 59.7406 93.8364Z" fill="white"/>
<path opacity="0.4" d="M38.88 81.5195C39.9264 84.3835 41.0368 86.3195 40.9408 90.3323C40.8448 94.3451 38.7008 100.521 39.312 103.731C38.9628 103.834 38.6369 104.003 38.352 104.23L35.1328 103.321C38.3328 98.8763 39.856 90.1211 39.0208 83.0363C38.9472 82.5019 38.9088 81.9995 38.88 81.5195Z" fill="#FFB800" fill-opacity="0.92"/>
<path opacity="0.4" d="M58.7358 59.8807L54.9886 75.3943C54.9886 75.3943 56.2526 77.5735 57.4942 81.5287C54.9566 77.4391 52.7998 76.2167 52.7998 76.2167C54.4894 74.1911 55.7918 59.3751 55.7918 59.3751C55.7918 59.3751 61.0878 53.1511 60.5918 46.6391C60.4326 44.266 59.8676 41.9379 58.9214 39.7559C59.7854 40.1911 60.6462 41.0647 61.3406 42.6839C62.9694 46.4887 60.6814 57.2439 58.7358 59.8807Z" fill="#FFB800" fill-opacity="0.92"/>
<path d="M35.123 103.322C38.323 98.8768 39.8462 90.1216 39.0142 83.0368C38.1822 75.952 40.819 74.1792 43.043 71.3824C45.267 68.5856 50.2654 58.0288 50.2654 55.5264C50.2654 53.024 56.5182 46.9152 55.1294 39.968C55.1294 39.968 59.1198 37.4944 61.3406 42.6848C62.9694 46.4928 60.6814 57.2448 58.7358 59.8848L54.9918 75.3952C54.9918 75.3952 58.9886 82.2912 59.7406 93.8368C60.2206 101.213 56.803 109.43 56.803 109.43" stroke="#263238" stroke-linecap="round" stroke-linejoin="round"/>
<path d="M47.4624 115.33C47.4624 115.33 51.664 117.916 54.1152 122.005" stroke="#263238" stroke-linecap="round" stroke-linejoin="round"/>
<path d="M59.2637 120.223C59.2637 120.223 55.6445 120.738 52.3741 116.825C50.2781 114.319 43.9133 113.186 42.4541 106.633" stroke="#263238" stroke-linecap="round" stroke-linejoin="round"/>
<rect x="80" y="61" width="14" height="2" fill="white"/>
<rect x="80" y="65" width="14" height="2" fill="white"/>
<rect x="80" y="69" width="14" height="2" fill="white"/>
<rect x="80" y="73" width="14" height="2" fill="white"/>
<path opacity="0.2" d="M112.407 139.934C103.143 135.502 108.752 131.95 96.0065 126.45C83.2609 120.949 83.1329 116.248 84.6689 105.438C86.2049 94.6288 84.9889 83.1312 88.6945 82.1552C92.4001 81.1792 85.7953 66.2704 90.1153 61L111.376 102.357L112.407 139.934Z" fill="black" fill-opacity="0.7"/>
<path d="M146.058 139.574C145.623 138.329 145.181 136.969 144.839 135.734C144.397 134.134 144.051 132.854 143.239 131.366C143.111 131.129 142.973 130.879 142.819 130.611C141.952 129.065 140.765 126.95 140.071 124.351C139.603 122.601 140.071 118.291 140.506 114.111C140.826 111.11 141.117 108.278 141.031 106.671L141.005 106.102C140.787 101.9 140.333 93.1579 139.405 90.7419C138.493 88.4123 137.642 88.0635 136.09 87.4427C135.93 87.3723 135.77 87.3083 135.584 87.2315C135.002 86.9883 134.01 86.4763 132.867 85.8843C130.291 84.5499 127.085 82.8891 125.456 82.6843C123.933 82.513 122.391 82.5843 120.89 82.8955C118.883 81.3563 115.469 79.3755 114.451 79.3339C113.619 79.2923 111.802 79.8139 110.931 80.0859L110.493 80.2267C109.942 79.7991 109.358 79.4161 108.746 79.0811C108.704 79.0587 108.663 79.0427 108.627 79.0267C107.498 78.5627 105.792 78.5467 104.861 78.5723C104.579 78.5723 104.359 78.6011 104.259 78.6107C102.503 75.9067 100.775 73.2155 100.023 72.0347C98.4547 69.5515 93.6003 59.3339 93.5523 59.2347C93.5467 59.2215 93.5379 59.2099 93.5267 59.201C93.5156 59.1921 93.5023 59.186 93.4883 59.1835C93.4734 59.1814 93.4583 59.1814 93.4435 59.1835C93.0659 59.0747 90.2851 58.3675 89.1683 61.0619C87.9459 63.9963 89.6899 70.4379 91.3923 72.7771C92.2115 73.9035 94.4483 78.4987 96.7171 83.2539C96.1347 83.7947 91.4755 88.0987 89.2131 88.9019C87.3603 89.5579 87.7955 99.0555 88.1443 106.681C88.2755 109.497 88.3843 111.919 88.3523 113.375C88.2883 116.191 93.4115 120.07 98.3779 123.82C102.858 127.219 107.504 130.729 108.048 133.279C108.199 133.996 108.627 134.579 109.139 135.235C109.994 136.323 111.095 137.606 111.562 140.035C111.699 140.764 112.871 141.718 113.802 143.276H147.415C147.133 142.518 146.602 141.135 146.058 139.574ZM99.4435 88.9819C101.072 92.3931 102.08 94.4219 102.323 94.6491C102.567 94.8763 102.551 95.9579 102.544 97.0107C102.509 97.9323 102.541 98.8553 102.64 99.7723C102.243 100.121 99.7379 102.403 99.2323 104.252L97.1043 101.747L96.5667 93.8843C96.8867 93.5451 99.0755 91.2315 99.4435 88.9819Z" fill="white"/>
<path opacity="0.4" d="M136.413 110.901C137.203 118.277 137.213 122.277 138.099 124.411C139.597 128.014 141.802 128.744 141.802 128.744C141.069 127.347 140.486 125.877 140.064 124.357C139.6 122.606 140.064 118.296 140.499 114.117C140.819 111.115 141.114 108.28 141.031 106.673L141.002 106.104C140.784 101.905 140.33 93.1631 139.402 90.7439C138.493 88.4143 137.639 88.0655 136.087 87.4415C135.927 87.3743 135.767 87.3103 135.581 87.2335C134.999 86.9903 134.01 86.4783 132.864 85.8863C130.288 84.5519 127.082 82.8911 125.453 82.6863C123.929 82.5131 122.388 82.5844 120.887 82.8975C118.88 81.3583 115.466 79.3775 114.448 79.3359C113.616 79.2943 111.36 79.9503 110.483 80.2287C114.323 83.3615 119.853 87.2687 119.853 87.2687C124.227 88.1391 123.667 90.0367 125.437 91.1087C127.037 92.0687 128.567 89.2591 129.917 89.0127C131.683 88.6927 133.69 90.5551 133.6 92.8143C133.325 99.0383 135.735 104.568 136.413 110.901Z" fill="#FFB800" fill-opacity="0.92"/>
<path opacity="0.4" d="M114.301 88.0431C114.301 88.0431 110.835 85.1631 109.181 84.2031C107.526 83.2431 107.261 79.9343 108.566 79.1311C108.616 79.1013 108.672 79.0838 108.73 79.0799L108.611 79.0255C107.482 78.5615 105.776 78.5423 104.845 78.5711C106.765 82.1455 108.298 84.8879 108.71 85.4895C110.102 87.4991 114.301 88.0431 114.301 88.0431Z" fill="#FFB800" fill-opacity="0.92"/>
<path opacity="0.4" d="M109.043 132.831C109.19 132.066 107.93 129.826 107.376 128.918C106.118 126.844 91.5169 113.942 93.6321 110.498C95.7473 107.055 97.6801 109.602 99.0177 109.826C99.9777 109.986 102.614 108.415 102.602 108.284C102.301 105.631 104.749 103.906 104.749 103.906C104.749 103.906 104.525 93.3463 103.962 93.5255C103.398 93.7047 96.6593 77.6695 96.6593 77.6695C96.6593 77.6695 89.5361 68.1975 89.9393 63.7783C90.3425 59.3591 93.4337 59.2823 93.4337 59.2823V59.1639C93.0561 59.0551 90.2753 58.3479 89.1585 61.0423C87.9361 63.9767 89.6801 70.4183 91.3825 72.7575C92.2017 73.8839 94.4385 78.4791 96.7073 83.2343C96.1249 83.7751 91.4657 88.0791 89.2033 88.8823C87.3505 89.5383 87.7857 99.0359 88.1345 106.662C88.2657 109.478 88.3745 111.9 88.3425 113.356C88.2785 116.172 93.4017 120.05 98.3681 123.801C102.848 127.199 107.495 130.71 108.038 133.26C108.189 133.977 108.618 134.559 109.13 135.215C109.028 134.425 108.999 133.627 109.043 132.831ZM99.4433 88.9911C101.072 92.4023 102.08 94.4311 102.323 94.6583C102.566 94.8855 102.55 95.9671 102.544 97.0199C102.509 97.9416 102.541 98.8645 102.64 99.7815C102.243 100.13 99.7377 102.412 99.2321 104.262L97.1041 101.756L96.5665 93.8935C96.8865 93.5447 99.0753 91.2311 99.4433 88.9815V88.9911Z" fill="#FFB800" fill-opacity="0.92"/>
<path d="M112.314 88.0014C110.884 87.5514 109.628 86.6708 108.717 85.4798C107.255 83.5214 101.511 74.5998 99.9203 72.0846C98.3299 69.5694 93.4339 59.2814 93.4339 59.2814C93.4339 59.2814 90.4259 58.2734 89.2547 61.083C88.0835 63.8926 89.6867 70.2414 91.4691 72.6862C93.2515 75.131 101.722 93.9566 102.394 94.5646C103.066 95.1726 102.058 100.197 103.405 101.413" stroke="#263238" stroke-linecap="round" stroke-linejoin="round"/>
<path d="M102.759 99.8172C102.759 99.8172 99.6547 102.521 99.2899 104.496L96.9859 101.785L96.4419 93.8428C96.4419 93.8428 99.2227 91.0588 99.3763 88.582" stroke="#263238" stroke-linecap="round" stroke-linejoin="round"/>
<path d="M96.8353 83.2441C96.8353 83.2441 91.6801 88.1081 89.2289 88.9753C86.7777 89.8425 88.5665 108.067 88.4449 113.343C88.3233 118.62 106.989 127.814 108.134 133.215C108.589 135.366 110.47 135.804 111.619 139.935" stroke="#263238" stroke-linecap="round" stroke-linejoin="round"/>
<path d="M104.173 78.7156C104.173 78.7156 106.979 78.4628 108.56 79.122C110.141 79.7812 116.56 85.2948 118.109 86.3476C119.658 87.4004 121.987 87.8004 122.429 88.9364" stroke="#263238" stroke-linecap="round" stroke-linejoin="round"/>
<path d="M110.448 80.3414C110.448 80.3414 113.328 79.3814 114.429 79.4358C115.53 79.4902 119.671 81.9318 121.527 83.5638C122.949 84.8256 124.587 85.8207 126.362 86.5014" stroke="#263238" stroke-linecap="round" stroke-linejoin="round"/>
<path d="M120.852 83.0099C122.355 82.6863 123.9 82.6117 125.428 82.7891C127.77 83.1091 133.652 86.5651 135.527 87.3459C137.402 88.1267 138.298 88.2707 139.284 90.7923C140.269 93.3139 140.72 102.901 140.919 106.69C141.117 110.479 139.143 121.33 139.959 124.383C140.775 127.435 142.247 129.791 143.14 131.423" stroke="#263238" stroke-linecap="round" stroke-linejoin="round"/>
<path d="M96.4415 93.8425C96.4415 93.8425 95.9935 91.9705 95.3535 91.7305" stroke="#263238" stroke-linecap="round" stroke-linejoin="round"/>
<path d="M96.9858 101.785C97.2017 102.876 97.4936 103.951 97.8594 105.001C98.3202 106.137 97.6034 107.782 97.6034 107.782" stroke="#263238" stroke-linecap="round" stroke-linejoin="round"/>
<path d="M99.2898 104.496C99.2162 106.314 101.024 108.438 101.463 108.138" stroke="#263238" stroke-linecap="round" stroke-linejoin="round"/>
<path d="M108.496 93.8432C108.496 93.8432 110.438 90.7008 112.301 90.5472C114.163 90.3936 116.314 93.0368 117.462 92.7872C118.611 92.5376 120.058 90.848 121.99 90.5472C123.923 90.2464 124.829 91.168 126.362 91.2448C127.894 91.3216 128.051 89.2736 129.882 89.0048C131.712 88.736 132.336 89.6448 133.565 89.8816C134.794 90.1184 135.101 89.1488 136.096 88.6016" stroke="#263238" stroke-linecap="round" stroke-linejoin="round"/>
<path d="M77 68.5C77 66.8528 76.3746 65.2671 75.2503 64.0633C74.126 62.8595 72.5866 62.1275 70.9433 62.0151C69.3 61.9028 67.6753 62.4186 66.3976 63.4581C65.1199 64.4977 64.2846 65.9836 64.0605 67.6155C63.8363 69.2473 64.2401 70.9034 65.1901 72.249C66.1401 73.5946 67.5656 74.5293 69.1784 74.8642C70.7911 75.1991 72.4709 74.9093 73.8782 74.0532C75.2854 73.1971 76.3151 71.8387 76.7593 70.2526L74.8828 69.7272C74.5718 70.8378 73.8508 71.789 72.8654 72.3884C71.88 72.9878 70.7039 73.1908 69.5746 72.9563C68.4453 72.7218 67.4472 72.0673 66.782 71.1251C66.1168 70.1829 65.834 69.0233 65.991 67.8807C66.1479 66.738 66.7328 65.6976 67.6275 64.9697C68.5221 64.2417 69.6597 63.8806 70.8104 63.9593C71.9611 64.0379 73.039 64.5505 73.8262 65.3934C74.6135 66.2363 75.0513 67.3466 75.0513 68.5H77Z" fill="#FFB800" fill-opacity="0.92"/>
<path d="M66.771 36V32.56H68.426C68.646 32.56 68.8243 32.5867 68.961 32.64C69.0977 32.69 69.2027 32.765 69.276 32.865C69.3493 32.9617 69.3993 33.0817 69.426 33.225C69.4527 33.3683 69.466 33.5333 69.466 33.72C69.466 33.89 69.4527 34.0467 69.426 34.19C69.4027 34.33 69.3543 34.4517 69.281 34.555C69.211 34.6583 69.106 34.7383 68.966 34.795C68.826 34.8517 68.641 34.88 68.411 34.88H67.641V36H66.771ZM67.641 34.22H68.076C68.196 34.22 68.2893 34.2133 68.356 34.2C68.426 34.1867 68.4777 34.1633 68.511 34.13C68.5443 34.0933 68.566 34.0433 68.576 33.98C68.586 33.9133 68.591 33.8267 68.591 33.72C68.591 33.6133 68.586 33.5267 68.576 33.46C68.5693 33.3933 68.5493 33.3433 68.516 33.31C68.4827 33.2733 68.4327 33.25 68.366 33.24C68.2993 33.2267 68.2077 33.22 68.091 33.22H67.641V34.22ZM71.3839 36.04C71.0939 36.04 70.8556 36.0233 70.6689 35.99C70.4856 35.9533 70.3422 35.8967 70.2389 35.82C70.1356 35.74 70.0589 35.6333 70.0089 35.5C69.9622 35.3633 69.9322 35.195 69.9189 34.995C69.9089 34.795 69.9039 34.5567 69.9039 34.28C69.9039 34.0033 69.9089 33.765 69.9189 33.565C69.9322 33.365 69.9622 33.1983 70.0089 33.065C70.0589 32.9283 70.1356 32.8217 70.2389 32.745C70.3422 32.665 70.4856 32.6083 70.6689 32.575C70.8556 32.5383 71.0939 32.52 71.3839 32.52C71.6706 32.52 71.9056 32.5383 72.0889 32.575C72.2756 32.6083 72.4222 32.665 72.5289 32.745C72.6356 32.8217 72.7122 32.9283 72.7589 33.065C72.8056 33.1983 72.8356 33.365 72.8489 33.565C72.8622 33.765 72.8689 34.0033 72.8689 34.28C72.8689 34.5567 72.8622 34.795 72.8489 34.995C72.8356 35.195 72.8056 35.3633 72.7589 35.5C72.7122 35.6333 72.6356 35.74 72.5289 35.82C72.4222 35.8967 72.2756 35.9533 72.0889 35.99C71.9056 36.0233 71.6706 36.04 71.3839 36.04ZM71.3839 35.37C71.5039 35.37 71.6006 35.3667 71.6739 35.36C71.7506 35.35 71.8106 35.3283 71.8539 35.295C71.8972 35.2583 71.9289 35.2017 71.9489 35.125C71.9689 35.0483 71.9806 34.9417 71.9839 34.805C71.9906 34.6683 71.9939 34.4933 71.9939 34.28C71.9939 34.0667 71.9906 33.8917 71.9839 33.755C71.9806 33.6183 71.9689 33.5117 71.9489 33.435C71.9289 33.3583 71.8972 33.3033 71.8539 33.27C71.8106 33.2333 71.7506 33.2117 71.6739 33.205C71.6006 33.195 71.5039 33.19 71.3839 33.19C71.2672 33.19 71.1706 33.195 71.0939 33.205C71.0172 33.2117 70.9572 33.2333 70.9139 33.27C70.8706 33.3033 70.8389 33.3583 70.8189 33.435C70.7989 33.5117 70.7856 33.6183 70.7789 33.755C70.7756 33.8917 70.7739 34.0667 70.7739 34.28C70.7739 34.4933 70.7756 34.6683 70.7789 34.805C70.7856 34.9417 70.7989 35.0483 70.8189 35.125C70.8389 35.2017 70.8706 35.2583 70.9139 35.295C70.9572 35.3283 71.0172 35.35 71.0939 35.36C71.1706 35.3667 71.2672 35.37 71.3839 35.37ZM73.4995 36V32.56H75.2045C75.4279 32.56 75.6079 32.585 75.7445 32.635C75.8845 32.6817 75.9895 32.7533 76.0595 32.85C76.1329 32.9433 76.1812 33.06 76.2045 33.2C76.2312 33.3367 76.2445 33.4933 76.2445 33.67C76.2445 33.8 76.2345 33.9317 76.2145 34.065C76.1945 34.195 76.1512 34.315 76.0845 34.425C76.0212 34.5317 75.9229 34.6133 75.7895 34.67L76.3095 36H75.4045L74.9195 34.625L75.1395 34.745C75.1095 34.7617 75.0779 34.7717 75.0445 34.775C75.0145 34.7783 74.9762 34.78 74.9295 34.78H74.3695V36H73.4995ZM74.3695 34.135H74.8695C74.9829 34.135 75.0729 34.13 75.1395 34.12C75.2095 34.1067 75.2612 34.0833 75.2945 34.05C75.3279 34.0167 75.3495 33.97 75.3595 33.91C75.3695 33.85 75.3745 33.7733 75.3745 33.68C75.3745 33.5833 75.3695 33.505 75.3595 33.445C75.3529 33.385 75.3329 33.34 75.2995 33.31C75.2695 33.2767 75.2195 33.2533 75.1495 33.24C75.0829 33.2267 74.9895 33.22 74.8695 33.22H74.3695V34.135ZM77.5339 36V33.26H76.5939V32.56H79.3489V33.26H78.4039V36H77.5339ZM79.7935 36V32.56H82.1035V33.23H80.6635V34.045H81.9185V34.715H80.6635V36H79.7935ZM84.0402 36.04C83.7502 36.04 83.5118 36.0233 83.3252 35.99C83.1418 35.9533 82.9985 35.8967 82.8952 35.82C82.7918 35.74 82.7152 35.6333 82.6652 35.5C82.6185 35.3633 82.5885 35.195 82.5752 34.995C82.5652 34.795 82.5602 34.5567 82.5602 34.28C82.5602 34.0033 82.5652 33.765 82.5752 33.565C82.5885 33.365 82.6185 33.1983 82.6652 33.065C82.7152 32.9283 82.7918 32.8217 82.8952 32.745C82.9985 32.665 83.1418 32.6083 83.3252 32.575C83.5118 32.5383 83.7502 32.52 84.0402 32.52C84.3268 32.52 84.5618 32.5383 84.7452 32.575C84.9318 32.6083 85.0785 32.665 85.1852 32.745C85.2918 32.8217 85.3685 32.9283 85.4152 33.065C85.4618 33.1983 85.4918 33.365 85.5052 33.565C85.5185 33.765 85.5252 34.0033 85.5252 34.28C85.5252 34.5567 85.5185 34.795 85.5052 34.995C85.4918 35.195 85.4618 35.3633 85.4152 35.5C85.3685 35.6333 85.2918 35.74 85.1852 35.82C85.0785 35.8967 84.9318 35.9533 84.7452 35.99C84.5618 36.0233 84.3268 36.04 84.0402 36.04ZM84.0402 35.37C84.1602 35.37 84.2568 35.3667 84.3302 35.36C84.4068 35.35 84.4668 35.3283 84.5102 35.295C84.5535 35.2583 84.5852 35.2017 84.6052 35.125C84.6252 35.0483 84.6368 34.9417 84.6402 34.805C84.6468 34.6683 84.6502 34.4933 84.6502 34.28C84.6502 34.0667 84.6468 33.8917 84.6402 33.755C84.6368 33.6183 84.6252 33.5117 84.6052 33.435C84.5852 33.3583 84.5535 33.3033 84.5102 33.27C84.4668 33.2333 84.4068 33.2117 84.3302 33.205C84.2568 33.195 84.1602 33.19 84.0402 33.19C83.9235 33.19 83.8268 33.195 83.7502 33.205C83.6735 33.2117 83.6135 33.2333 83.5702 33.27C83.5268 33.3033 83.4952 33.3583 83.4752 33.435C83.4552 33.5117 83.4418 33.6183 83.4352 33.755C83.4318 33.8917 83.4302 34.0667 83.4302 34.28C83.4302 34.4933 83.4318 34.6683 83.4352 34.805C83.4418 34.9417 83.4552 35.0483 83.4752 35.125C83.4952 35.2017 83.5268 35.2583 83.5702 35.295C83.6135 35.3283 83.6735 35.35 83.7502 35.36C83.8268 35.3667 83.9235 35.37 84.0402 35.37ZM86.1558 36V32.56H87.0258V35.3H88.3658V36H86.1558ZM88.8364 36V32.56H89.7064V36H88.8364ZM91.8234 36.04C91.5334 36.04 91.295 36.0233 91.1084 35.99C90.925 35.9533 90.7817 35.8967 90.6784 35.82C90.575 35.74 90.4984 35.6333 90.4484 35.5C90.4017 35.3633 90.3717 35.195 90.3584 34.995C90.3484 34.795 90.3434 34.5567 90.3434 34.28C90.3434 34.0033 90.3484 33.765 90.3584 33.565C90.3717 33.365 90.4017 33.1983 90.4484 33.065C90.4984 32.9283 90.575 32.8217 90.6784 32.745C90.7817 32.665 90.925 32.6083 91.1084 32.575C91.295 32.5383 91.5334 32.52 91.8234 32.52C92.11 32.52 92.345 32.5383 92.5284 32.575C92.715 32.6083 92.8617 32.665 92.9684 32.745C93.075 32.8217 93.1517 32.9283 93.1984 33.065C93.245 33.1983 93.275 33.365 93.2884 33.565C93.3017 33.765 93.3084 34.0033 93.3084 34.28C93.3084 34.5567 93.3017 34.795 93.2884 34.995C93.275 35.195 93.245 35.3633 93.1984 35.5C93.1517 35.6333 93.075 35.74 92.9684 35.82C92.8617 35.8967 92.715 35.9533 92.5284 35.99C92.345 36.0233 92.11 36.04 91.8234 36.04ZM91.8234 35.37C91.9434 35.37 92.04 35.3667 92.1134 35.36C92.19 35.35 92.25 35.3283 92.2934 35.295C92.3367 35.2583 92.3684 35.2017 92.3884 35.125C92.4084 35.0483 92.42 34.9417 92.4234 34.805C92.43 34.6683 92.4334 34.4933 92.4334 34.28C92.4334 34.0667 92.43 33.8917 92.4234 33.755C92.42 33.6183 92.4084 33.5117 92.3884 33.435C92.3684 33.3583 92.3367 33.3033 92.2934 33.27C92.25 33.2333 92.19 33.2117 92.1134 33.205C92.04 33.195 91.9434 33.19 91.8234 33.19C91.7067 33.19 91.61 33.195 91.5334 33.205C91.4567 33.2117 91.3967 33.2333 91.3534 33.27C91.31 33.3033 91.2784 33.3583 91.2584 33.435C91.2384 33.5117 91.225 33.6183 91.2184 33.755C91.215 33.8917 91.2134 34.0667 91.2134 34.28C91.2134 34.4933 91.215 34.6683 91.2184 34.805C91.225 34.9417 91.2384 35.0483 91.2584 35.125C91.2784 35.2017 91.31 35.2583 91.3534 35.295C91.3967 35.3283 91.4567 35.35 91.5334 35.36C91.61 35.3667 91.7067 35.37 91.8234 35.37Z" fill="white"/>
<rect x="64" y="40" width="32" height="16" rx="2" fill="white"/>
<rect x="67" y="44" width="16" height="2" fill="#D9D9D9"/>
<rect x="67" y="50" width="14" height="2" fill="#D9D9D9"/>
<rect x="84" y="50" width="10" height="7" fill="#D9D9D9"/>
</svg>
