<svg width="12" height="15" viewBox="0 0 12 15" fill="none" xmlns="http://www.w3.org/2000/svg">
<path d="M12 9.54545C12 9.73011 11.9258 9.88991 11.7773 10.0249L6.52734 14.7976C6.37891 14.9325 6.20312 15 6 15C5.79688 15 5.62109 14.9325 5.47266 14.7976L0.222656 10.0249C0.0742188 9.88991 0 9.73011 0 9.54545C0 9.3608 0.0742188 9.20099 0.222656 9.06605C0.371094 8.93111 0.546875 8.86364 0.75 8.86364H11.25C11.4531 8.86364 11.6289 8.93111 11.7773 9.06605C11.9258 9.20099 12 9.3608 12 9.54545ZM12 5.45455C12 5.6392 11.9258 5.79901 11.7773 5.93395C11.6289 6.06889 11.4531 6.13636 11.25 6.13636H0.75C0.546875 6.13636 0.371094 6.06889 0.222656 5.93395C0.0742188 5.79901 0 5.6392 0 5.45455C0 5.26989 0.0742188 5.11009 0.222656 4.97514L5.47266 0.202415C5.62109 0.0674716 5.79688 0 6 0C6.20312 0 6.37891 0.0674716 6.52734 0.202415L11.7773 4.97514C11.9258 5.11009 12 5.26989 12 5.45455Z" fill="#696969"/>
</svg>
