<svg width="15" height="18" viewBox="0 0 15 18" fill="none" xmlns="http://www.w3.org/2000/svg">
<path d="M7.5 18C7.01791 18 6.60468 17.8239 6.26033 17.4718C5.91598 17.1197 5.7438 16.7042 5.7438 16.2254H9.2562C9.2562 16.7042 9.08402 17.1197 8.73967 17.4718C8.39532 17.8239 7.98209 18 7.5 18ZM13.2231 12.5915L15 14.4085V15.2958H0V14.4085L1.77686 12.5915V7.64789C1.77686 6.26761 2.19008 5.0493 3.01653 3.99296C3.84298 2.93662 4.88981 2.25352 6.15702 1.94366V1.35211C6.15702 0.957746 6.28788 0.633803 6.54959 0.380282C6.81129 0.126761 7.1281 0 7.5 0C7.8719 0 8.18182 0.126761 8.42975 0.380282C8.67769 0.633803 8.80165 0.957746 8.80165 1.35211V1.94366C10.0964 2.25352 11.157 2.93662 11.9835 3.99296C12.8099 5.0493 13.2231 6.26761 13.2231 7.64789V12.5915ZM11.4463 13.5211V7.64789C11.4463 6.52113 11.0606 5.56338 10.2893 4.77465C9.51791 3.98592 8.58127 3.59155 7.47934 3.59155C6.37741 3.59155 5.44077 3.98592 4.66942 4.77465C3.89807 5.56338 3.5124 6.52113 3.5124 7.64789V13.5211H11.4463Z" fill="white"/>
</svg>
