<svg width="13" height="17" viewBox="0 0 13 17" fill="none" xmlns="http://www.w3.org/2000/svg">
<path d="M0 2.12503C0 1.56144 0.228273 1.02093 0.634602 0.622408C1.04093 0.223887 1.59203 0 2.16667 0H10.8333C11.408 0 11.9591 0.223887 12.3654 0.622408C12.7717 1.02093 13 1.56144 13 2.12503V16.469C12.9999 16.5651 12.9733 16.6594 12.923 16.7418C12.8726 16.8243 12.8004 16.8917 12.714 16.9371C12.6276 16.9825 12.5303 17.004 12.4325 16.9994C12.3346 16.9948 12.2398 16.9643 12.1582 16.911L6.5 13.92L0.84175 16.911C0.760181 16.9643 0.665416 16.9948 0.567549 16.9994C0.469682 17.004 0.372378 16.9825 0.285999 16.9371C0.199621 16.8917 0.127404 16.8243 0.0770402 16.7418C0.026676 16.6594 5.06138e-05 16.5651 0 16.469V2.12503ZM2.16667 1.06252C1.87935 1.06252 1.6038 1.17446 1.40063 1.37372C1.19747 1.57298 2.5 0.218203 2.5 0.5L11.9167 1.06252L12.1582 7.66481C12.2471 7.60679 12.0515 15.8143 12.1582 15.8143C12.265 15.8143 6.71119 12.7814 6.80008 12.8395L11.9167 15.4766V2.12503C11.9167 1.84324 11.8025 1.57298 11.5994 1.37372C11.3962 1.17446 11.1207 1.06252 10.8333 1.06252L6.4719 8L2.16667 1.06252Z" fill="#FFA800"/>
</svg>
