<svg width="23" height="23" viewBox="0 0 23 23" fill="none" xmlns="http://www.w3.org/2000/svg">
<path fill-rule="evenodd" clip-rule="evenodd" d="M20.6908 14.3413C21.4904 14.0117 22.5775 14.5111 22.8739 15.4099C23.1794 16.3087 22.9638 17.3574 21.8497 17.7968L11.985 21.8615C11.4639 22.0812 10.7991 22.0712 10.2151 21.8615L3.27926 19.5345L0 23V15.5497L2.5695 13.1329L3.8273 11.9444L3.84527 11.9244L3.86324 11.9145C4.00698 11.8346 4.15972 11.7846 4.32143 11.7447C5.05814 11.5549 5.79485 11.7047 6.40578 12.0942L13.3776 15.5297C13.6741 15.6895 13.8987 15.8893 14.0873 16.1489C14.2221 16.3786 14.3209 16.6782 14.3119 16.9679C14.3479 17.2275 14.303 17.5371 14.1862 17.8068C13.8807 18.6756 12.9373 19.0651 12.1557 18.7056L8.31943 16.7881L8.05889 17.5172L11.8952 19.4347C12.9284 19.964 14.3299 19.4446 14.8061 18.2861C14.9768 17.8867 14.9858 17.1476 14.9408 16.7082L20.6908 14.3413Z" fill="white"/>
<path d="M19.9044 7.85551C20.5634 10.5371 18.9238 13.2453 16.2422 13.9044C13.5606 14.5634 10.8524 12.9238 10.1934 10.2422C9.53428 7.56059 11.1739 4.85244 13.8555 4.19336C16.5371 3.53429 19.2453 5.17389 19.9044 7.85551ZM16.961 7.84541C16.8989 7.17558 16.3216 6.94917 15.5919 6.88281L15.595 5.95397L15.0296 5.95215L15.0266 6.85651C14.8779 6.85602 14.726 6.85847 14.575 6.86098L14.5782 5.95065L14.0131 5.94877L14.0097 6.87732C13.8873 6.87941 13.7671 6.88128 13.6499 6.88098L13.6498 6.87809L12.8699 6.87523L12.868 7.47906C12.868 7.47906 13.2856 7.47249 13.2787 7.48014C13.5077 7.48096 13.5818 7.61417 13.6031 7.72896L13.5995 8.78709C13.6153 8.78723 13.636 8.78796 13.6593 8.79124C13.6404 8.7912 13.6203 8.791 13.5995 8.79112L13.5944 10.2734C13.5841 10.3455 13.5413 10.4603 13.3813 10.46C13.3885 10.4664 12.9703 10.4585 12.9703 10.4585L12.8557 11.1334L13.5915 11.1358C13.7284 11.1364 13.8632 11.1392 13.9954 11.1404L13.9925 12.0798L14.5573 12.0818L14.5604 11.1523C14.711 11.1559 14.8615 11.1578 15.0121 11.1581L15.0087 12.0833L15.5741 12.0851L15.5775 11.1474C16.5283 11.096 17.1944 10.8588 17.28 9.96645C17.3492 9.24794 17.0121 8.92612 16.473 8.79476C16.8013 8.62897 17.0073 8.33557 16.961 7.84541ZM16.1632 9.85145C16.1611 10.5535 14.9592 10.4696 14.576 10.4687L14.5804 9.22407C14.9637 9.22543 16.1657 9.11922 16.1632 9.85145ZM15.9061 8.09455C15.9038 8.73324 14.9014 8.65538 14.5823 8.65435L14.5861 7.52551C14.9053 7.52653 15.9083 7.42836 15.9061 8.09455Z" fill="white"/>
</svg>
