<svg width="20" height="20" viewBox="0 0 20 20" fill="none" xmlns="http://www.w3.org/2000/svg">
<path d="M1.44803 16.1904H3.47192C3.65826 16.1903 3.83693 16.1238 3.96884 16.0057C4.10075 15.8876 4.17514 15.7274 4.17575 15.5602V10.5932C4.17514 10.4259 4.10075 10.2657 3.96884 10.1476C3.83693 10.0295 3.65826 9.96307 3.47192 9.96289H1.44803C1.26182 9.96343 1.08342 10.0301 0.951825 10.1483C0.820226 10.2666 0.746129 10.4267 0.745728 10.5938V15.5608C0.746531 15.7277 0.820805 15.8875 0.952361 16.0055C1.08392 16.1234 1.26209 16.1899 1.44803 16.1904Z" fill="white"/>
<path d="M6.33902 6.9668C6.15268 6.96716 5.97409 7.03375 5.84232 7.152C5.71056 7.27025 5.63636 7.43052 5.63596 7.59775V15.5603C5.63656 15.7274 5.71085 15.8875 5.84259 16.0056C5.97433 16.1237 6.15281 16.1902 6.33902 16.1905H8.3591C8.54525 16.19 8.72361 16.1234 8.85531 16.0054C8.98701 15.8873 9.06136 15.7273 9.06217 15.5603V7.59775C9.06156 7.43058 8.9873 7.27041 8.85558 7.1522C8.72386 7.03399 8.54538 6.96734 8.3591 6.9668H6.33902Z" fill="white"/>
<path d="M11.2293 2.86719C11.043 2.86773 10.8646 2.9344 10.733 3.05263C10.6014 3.17086 10.5273 3.33103 10.5269 3.49814V15.5602C10.5275 15.7271 10.6017 15.8871 10.7333 16.0052C10.8649 16.1233 11.0432 16.1899 11.2293 16.1904H13.2493C13.4357 16.1903 13.6143 16.1238 13.7463 16.0057C13.8782 15.8876 13.9526 15.7274 13.9532 15.5602V3.49814C13.9526 3.33085 13.8782 3.17058 13.7463 3.05235C13.6144 2.93412 13.4357 2.86755 13.2493 2.86719H11.2293Z" fill="white"/>
<path d="M15.4164 9.01602V15.5601C15.417 15.7267 15.4909 15.8864 15.622 16.0044C15.7531 16.1224 15.9308 16.1893 16.1164 16.1903H18.1365C18.3226 16.1898 18.5009 16.1232 18.6324 16.0051C18.764 15.887 18.8382 15.7271 18.8388 15.5601V9.01602C18.8382 8.84902 18.764 8.68903 18.6324 8.57094C18.5009 8.45286 18.3226 8.38628 18.1365 8.38574H16.1164C15.9308 8.38682 15.7531 8.45364 15.622 8.57166C15.4909 8.68969 15.417 8.84938 15.4164 9.01602Z" fill="white"/>
<path d="M18.8868 16.644H0.702305C0.516166 16.6444 0.337766 16.7109 0.206145 16.829C0.0745245 16.9472 0.000402464 17.1073 0 17.2743V18.6148C0.000401638 18.782 0.0744996 18.9421 0.206099 19.0604C0.337697 19.1786 0.516096 19.2453 0.702305 19.2458H18.8868C19.073 19.2453 19.2514 19.1786 19.383 19.0604C19.5146 18.9421 19.5887 18.782 19.5891 18.6148V17.2771C19.5893 17.1941 19.5713 17.1119 19.5361 17.0352C19.5009 16.9585 19.4493 16.8888 19.3841 16.83C19.3188 16.7712 19.2414 16.7246 19.156 16.6926C19.0707 16.6607 18.9792 16.6442 18.8868 16.644Z" fill="white"/>
<path d="M2.30497 9.03588C2.47575 9.0357 2.63946 8.97469 2.76015 8.86625C2.88083 8.75782 2.94862 8.61082 2.94862 8.45756C2.94862 8.44116 2.94862 8.4268 2.94329 8.41108L7.08399 5.92211C7.1814 5.95613 7.2866 5.96825 7.39041 5.9574C7.49423 5.94655 7.59351 5.91307 7.6796 5.85988C7.76569 5.80669 7.83597 5.7354 7.88431 5.65224C7.93265 5.56907 7.95758 5.47656 7.95692 5.38276C7.95609 5.33662 7.94919 5.29073 7.93636 5.24604L11.8623 1.09799C11.9955 1.15527 12.1473 1.16717 12.2896 1.13149L16.3747 6.29536C16.3082 6.38764 16.2728 6.49515 16.2726 6.60502C16.2726 6.7194 16.3104 6.83122 16.3812 6.92632C16.452 7.02143 16.5527 7.09555 16.6704 7.13932C16.7882 7.18309 16.9177 7.19455 17.0427 7.17223C17.1677 7.14992 17.2826 7.09484 17.3727 7.01396C17.4628 6.93308 17.5242 6.83003 17.5491 6.71785C17.5739 6.60566 17.5612 6.48938 17.5124 6.38371C17.4636 6.27804 17.381 6.18771 17.275 6.12417C17.1691 6.06062 17.0445 6.0267 16.917 6.0267C16.8828 6.0272 16.8487 6.03017 16.815 6.03559L12.7017 0.833441C12.7447 0.755666 12.7676 0.670182 12.7687 0.58336C12.7697 0.496539 12.749 0.410619 12.7079 0.332005C12.6668 0.253392 12.6065 0.184112 12.5314 0.129331C12.4564 0.0745487 12.3685 0.0356777 12.2744 0.0156143C12.1802 -0.00444897 12.0823 -0.00518686 11.9878 0.0134557C11.8933 0.0320982 11.8047 0.0696403 11.7286 0.123284C11.6525 0.176927 11.5909 0.245289 11.5484 0.323272C11.5058 0.401256 11.4835 0.48685 11.4829 0.573676C11.4838 0.628654 11.4935 0.683229 11.5119 0.735687L7.60349 4.87006C7.51392 4.82792 7.4144 4.80565 7.31327 4.80512C7.20955 4.80444 7.10721 4.8264 7.01505 4.8691C6.92289 4.91181 6.84368 4.97397 6.78424 5.05025C6.7248 5.12653 6.68692 5.21464 6.67385 5.30698C6.66078 5.39932 6.67292 5.49312 6.70923 5.58032L2.68888 7.99614C2.6071 7.94173 2.51209 7.90553 2.41167 7.89051C2.31126 7.87549 2.2083 7.88209 2.11128 7.90977C2.01426 7.93744 1.92595 7.98539 1.85362 8.04968C1.78129 8.11397 1.727 8.19275 1.69523 8.27955C1.66346 8.36634 1.65511 8.45867 1.67087 8.54893C1.68662 8.63919 1.72604 8.7248 1.78587 8.79871C1.84571 8.87263 1.92424 8.93273 2.01502 8.97408C2.1058 9.01544 2.20622 9.03685 2.30802 9.03657L2.30497 9.03588Z" fill="white"/>
</svg>
