<svg width="50" height="50" viewBox="0 0 50 50" fill="none" xmlns="http://www.w3.org/2000/svg">
<circle cx="25" cy="25" r="25" fill="#1F5A4C"/>
<path d="M1.51855 29L9.99856 24.5V44L5.05355 38.5L1.51855 29Z" fill="#359780"/>
<path d="M11 24L13 26L16 29L19 26.7262V48L11 44.5V24Z" fill="#359780"/>
<path d="M19.999 25.5L22.999 22L27.999 24V49L19.999 48.5V25.5Z" fill="#359780"/>
<path d="M28.998 25.2896L30.998 27.5L36.998 33.7531V46.4998L28.998 48.9998V25.2896Z" fill="#359780"/>
<path d="M37.5 32L38.5 30.5L46 22.5V36L45 38L38 46L37.5 32Z" fill="#359780"/>
<path d="M47.001 21.5L49.001 19.5V30L47.001 34.5V21.5Z" fill="#359780"/>
<line x1="0.742752" y1="29.5713" x2="10.7428" y2="23.5713" stroke="white"/>
<line x1="10.3526" y1="23.6464" x2="16.3526" y2="29.6464" stroke="white"/>
<line x1="15.6464" y1="29.6464" x2="24.6464" y2="20.6464" stroke="white"/>
<line x1="24.3684" y1="20.6609" x2="36.3684" y2="33.6609" stroke="white"/>
<line x1="35.6326" y1="33.6598" x2="48.6326" y2="19.6598" stroke="white"/>
<circle cx="10.251" cy="24.25" r="1.25" fill="white"/>
<circle cx="16.252" cy="29.25" r="1.25" fill="white"/>
<circle cx="36.251" cy="33.25" r="1.25" fill="white"/>
<circle cx="24.501" cy="21.5" r="2.5" fill="#FFB800"/>
<path d="M50 25C50 38.8071 38.8071 50 25 50C11.1929 50 0 38.8071 0 25C0 11.1929 11.1929 0 25 0C38.8071 0 50 11.1929 50 25ZM3.73886 25C3.73886 36.7422 13.2578 46.2611 25 46.2611C36.7422 46.2611 46.2611 36.7422 46.2611 25C46.2611 13.2578 36.7422 3.73886 25 3.73886C13.2578 3.73886 3.73886 13.2578 3.73886 25Z" fill="#1F5A4C"/>
</svg>
