<svg width="132" height="119" viewBox="0 0 132 119" fill="none" xmlns="http://www.w3.org/2000/svg">
<path d="M0 2H19.7837V100.5L7 103.058H0V2Z" fill="#5671FF"/>
<path d="M7 2L20 0.5V100.5L7 103V2Z" fill="#3455FF"/>
<path d="M56 19.266H75.7837V102.399L63 104.558H56V19.266Z" fill="#5671FF"/>
<path d="M63 19.266L76 18V102.399L63 104.509V19.266Z" fill="#3455FF"/>
<path d="M85 52.7687H104.784V103.247L92 104.557H85V52.7687Z" fill="#5671FF"/>
<path d="M92 52.7687L105 52V103.247L92 104.528V52.7687Z" fill="#3455FF"/>
<path d="M112 24.1928H131.784V102.524L119 104.557H112V24.1928Z" fill="#5671FF"/>
<path d="M119 24.1929L132 23V102.524L119 104.512V24.1929Z" fill="#3455FF"/>
<path d="M27 32H47V102.178L34.0765 104H27V32Z" fill="#5671FF"/>
<path d="M34 32.0683L47 31V102.22L34 104V32.0683Z" fill="#3455FF"/>
<path d="M94.7738 65.6135C94.7738 65.7846 94.7711 65.9584 94.7685 66.1295C94.7658 66.3353 94.7604 66.5385 94.7524 66.7444C94.7444 66.9235 94.7363 67.1 94.7257 67.2764C94.6936 67.8672 94.6428 68.4554 94.5733 69.0463C94.5572 69.196 94.5386 69.343 94.5172 69.4927C94.5011 69.6077 94.485 69.7253 94.4664 69.843C94.4476 69.974 94.4289 70.105 94.4075 70.236C94.3647 70.514 94.3166 70.792 94.2631 71.0701C94.2364 71.2091 94.2097 71.3481 94.1803 71.4871C94.1242 71.7625 94.0626 72.0406 93.9985 72.3159C93.9932 72.3373 93.9878 72.3614 93.9825 72.3828C93.9504 72.5191 93.9183 72.6528 93.8835 72.7891C93.8728 72.8292 93.8649 72.8667 93.8515 72.9068C93.8274 73.0084 93.8006 73.1099 93.7739 73.2115C93.7365 73.3532 93.6991 73.4922 93.659 73.6339C93.5948 73.8532 93.5307 74.0697 93.4638 74.289C93.4555 74.3117 93.4483 74.3349 93.4424 74.3585C93.3141 74.7728 93.1778 75.1819 93.028 75.5883C92.9505 75.8021 92.8677 76.0187 92.7848 76.2325C92.7019 76.4464 92.6163 76.6603 92.5281 76.8715C92.4425 77.0774 92.3543 77.2832 92.2661 77.4864C92.2447 77.5345 92.2233 77.5827 92.1993 77.6308C92.1057 77.842 92.0094 78.0478 91.9105 78.2537C91.9079 78.2564 91.9078 78.2617 91.9052 78.2644C91.8276 78.4302 91.7447 78.5959 91.6618 78.759C91.6618 78.764 91.6599 78.7687 91.6565 78.7724C91.5763 78.9328 91.4935 79.0932 91.4079 79.2509L91.2715 79.5102L91.2555 79.5397C91.0844 79.8578 90.908 80.1733 90.7208 80.4861C90.6807 80.5556 90.6406 80.6251 90.6006 80.6919C90.5604 80.7614 90.5177 80.8309 90.4749 80.8978C90.4482 80.9459 90.4187 80.994 90.3866 81.0421C90.3305 81.133 90.2743 81.2266 90.2155 81.3175C90.2048 81.3362 90.1915 81.355 90.1808 81.3736C90.0792 81.5314 89.9776 81.6865 89.876 81.8442C89.7503 82.034 89.622 82.2211 89.491 82.4083L86.5876 87.0548L86.4619 86.9505L86.4272 86.9184H86.4245L86.3095 86.8222L85.9941 86.5548C85.8979 86.6484 85.8043 86.742 85.708 86.8329C85.6706 86.8703 85.6305 86.9051 85.5931 86.9425C85.5637 86.9692 85.5369 86.9959 85.5075 87.0227C80.4881 91.9245 73.8111 94.763 66.7985 94.9763H66.7905C61.4819 95.1221 56.2269 93.8818 51.5437 91.3778C51.4394 91.3243 51.3378 91.2708 51.2362 91.2093C50.6267 90.8778 50.0305 90.5276 49.445 90.1533C49.4423 90.1506 49.4396 90.1506 49.437 90.1479C48.7579 89.6667 48.0949 89.1534 47.4479 88.608C43.977 85.6824 41.231 81.9924 39.4252 77.8276C37.6195 73.6627 36.8031 69.1361 37.0401 64.6028C37.0481 64.4237 37.0588 64.2473 37.0721 64.0682C37.1149 63.4212 37.1809 62.7769 37.27 62.1352C37.294 61.9561 37.3208 61.777 37.3475 61.6005H94.5011C94.6134 62.4186 94.6909 63.2412 94.7337 64.0682C94.7604 64.5842 94.7738 65.0975 94.7738 65.6135Z" fill="#121215"/>
<path d="M94.501 61.6008C93.472 54.7581 90.0219 48.5118 84.7778 43.9974C79.5337 39.4829 72.8438 37 65.9242 37C59.0046 37 52.3147 39.4829 47.0706 43.9974C41.8265 48.5118 38.3764 54.7581 37.3474 61.6008C37.3207 61.7772 37.2939 61.9564 37.2699 62.1355C37.1817 62.7771 37.1157 63.4214 37.072 64.0684H94.7336C94.6908 63.2423 94.6133 62.4198 94.501 61.6008Z" fill="#121215"/>
<rect x="51.9705" y="43.6837" width="28.8736" height="45.7165" fill="#BFFADE"/>
<rect x="59" y="44" width="22" height="46" fill="#00EB7A"/>
<path d="M51.2365 82.2575V82.2602C51.2365 82.2628 51.2391 82.2628 51.2418 82.2628L51.2365 82.2575ZM44.5768 61.899C44.5661 61.9658 44.5528 62.0326 44.5421 62.0995C44.5527 62.0326 44.5661 61.9658 44.5795 61.899H44.5768ZM44.2453 64.3666C44.2373 64.4682 44.2293 64.5698 44.2239 64.6713C44.2293 64.5698 44.2373 64.4682 44.248 64.3666C44.2476 64.3478 44.2485 64.3291 44.2507 64.3104C44.248 64.3291 44.248 64.3479 44.2453 64.3666ZM51.2365 82.2602C51.2365 82.2628 51.2391 82.2628 51.2418 82.2628L51.2365 82.2575V82.2602ZM44.5768 61.899C44.5661 61.9658 44.5528 62.0326 44.5421 62.0995C44.5527 62.0326 44.5661 61.9658 44.5795 61.899H44.5768ZM44.2239 64.6713C44.2293 64.5698 44.2373 64.4682 44.248 64.3666C44.2476 64.3478 44.2485 64.3291 44.2507 64.3104C44.248 64.3291 44.248 64.3479 44.2453 64.3666C44.2373 64.4682 44.2293 64.5698 44.2239 64.6713ZM126.818 113.853C126.766 113.798 126.711 113.746 126.653 113.698L126.65 113.695L113.411 102.522L113.069 102.234L111.767 101.135L111.441 100.86L109.585 99.2929L109.077 98.8651L108.027 97.9776L107.489 97.523L102.42 93.2481L99.5141 90.7966L99.1238 90.4677L90.5607 83.2413C90.6917 83.0542 90.82 82.8671 90.9456 82.6772C91.0473 82.5195 91.1488 82.3644 91.2504 82.2067C91.2611 82.188 91.2745 82.1693 91.2852 82.1505C91.344 82.0596 91.4001 81.9661 91.4562 81.8752C91.4884 81.8271 91.5178 81.7789 91.5445 81.7308C91.5873 81.664 91.6301 81.5945 91.6702 81.525C91.7103 81.4581 91.7504 81.3886 91.7904 81.3191C91.9776 81.0063 92.1541 80.6908 92.3251 80.3727L92.3412 80.3433L92.4775 80.084C92.5631 79.9262 92.646 79.7658 92.7261 79.6054C92.7295 79.6018 92.7314 79.597 92.7315 79.5921C92.8144 79.429 92.8973 79.2632 92.9748 79.0975C92.9775 79.0948 92.9775 79.0894 92.9802 79.0868C93.079 78.8809 93.1753 78.675 93.2689 78.4638C93.2929 78.4157 93.3144 78.3676 93.3358 78.3195C93.4239 78.1163 93.5122 77.9105 93.5978 77.7046C93.686 77.4934 93.7715 77.2795 93.8544 77.0656C93.9373 76.8517 94.0201 76.6352 94.0977 76.4213C94.2447 76.0123 94.3829 75.6023 94.5121 75.1915C94.518 75.168 94.5251 75.1448 94.5335 75.122C94.6003 74.9028 94.6644 74.6862 94.7286 74.467C94.7687 74.3253 94.8062 74.1863 94.8436 74.0446C94.8703 73.943 94.897 73.8414 94.9211 73.7398C94.9345 73.6997 94.9425 73.6623 94.9532 73.6222C94.9879 73.4858 95.02 73.3522 95.0521 73.2158C95.0575 73.1944 95.0628 73.1704 95.0682 73.149C95.1323 72.8736 95.1938 72.5956 95.2499 72.3202C95.2794 72.1812 95.3061 72.0422 95.3328 71.9031C95.3836 71.6251 95.4344 71.3471 95.4771 71.069C95.4986 70.938 95.5173 70.807 95.536 70.676C95.5547 70.5584 95.5707 70.4407 95.5868 70.3258C95.6082 70.1761 95.6269 70.029 95.6429 69.8793C95.7124 69.2885 95.7632 68.7003 95.7953 68.1094C95.806 67.933 95.8141 67.7566 95.822 67.5774C95.8301 67.3716 95.8354 67.1684 95.8381 66.9625C95.8408 66.7914 95.8434 66.6177 95.8434 66.4465C95.8434 65.9306 95.8301 65.4173 95.8034 64.9013C95.7606 64.0752 95.683 63.2526 95.5707 62.4337C94.6129 55.4331 91.1677 49.011 85.8649 44.3413C80.5621 39.6715 73.7559 37.0661 66.6903 37.0012C59.6248 36.9364 52.7719 39.4163 47.3842 43.9879C41.9966 48.5594 38.434 54.9171 37.3477 61.899C37.321 62.0754 37.2943 62.2545 37.2702 62.4337C37.182 63.0753 37.1161 63.7196 37.0724 64.3666C37.0591 64.5457 37.0483 64.7221 37.0403 64.9013C36.8033 69.4346 37.6197 73.9611 39.4255 78.126C41.2312 82.2908 43.9772 85.9808 47.4482 88.9064C48.0951 89.4518 48.7581 89.9652 49.4372 90.4464C49.4399 90.449 49.4425 90.449 49.4452 90.4517C49.6725 90.6122 49.8997 90.7698 50.1296 90.9249C50.4959 91.1655 50.8649 91.4008 51.2364 91.6254C51.2659 91.6414 51.2953 91.6601 51.3247 91.6762C51.6455 91.8687 51.969 92.0531 52.2925 92.2323H52.2951C53.4994 92.8943 54.7493 93.4697 56.0354 93.954C59.8089 95.3737 63.8332 96.0051 67.8602 95.8094H67.8682C72.5682 95.582 77.1447 94.2277 81.2115 91.8606C81.8024 91.5184 82.3851 91.1522 82.9546 90.7618C83.0963 90.6656 83.2406 90.5667 83.3797 90.4678C83.5508 90.3474 83.7219 90.2218 83.893 90.0961C83.8957 90.0961 83.8957 90.0935 83.8984 90.0935C83.9111 90.0828 83.9245 90.073 83.9384 90.0641C84.0534 89.9758 84.171 89.8876 84.2833 89.8021C84.3128 89.7807 84.3421 89.7593 84.3715 89.7352C84.3793 89.7298 84.3865 89.7235 84.3929 89.7165C84.4598 89.6684 84.5239 89.6149 84.5908 89.5641C84.6576 89.5133 84.7218 89.4599 84.7886 89.4064C84.7999 89.3992 84.8107 89.3912 84.8207 89.3823C84.8956 89.3208 84.9704 89.262 85.0452 89.2005C85.1228 89.139 85.1976 89.0749 85.2698 89.0134C85.3447 88.9519 85.4169 88.8904 85.4917 88.8262C85.5559 88.7727 85.6227 88.7166 85.6869 88.6578C85.7082 88.6417 85.727 88.623 85.7484 88.6043C85.7566 88.5964 85.7656 88.5892 85.7751 88.5829C85.8633 88.5081 85.9489 88.4305 86.0345 88.353C86.0559 88.3343 86.0746 88.3156 86.096 88.2968C86.227 88.1792 86.358 88.0616 86.4863 87.9386C86.5157 87.9119 86.5478 87.8825 86.5771 87.8557C86.6066 87.829 86.6333 87.8023 86.6627 87.7755C86.7002 87.7381 86.7402 87.7033 86.7777 87.6659C86.8739 87.575 86.9675 87.4815 87.0637 87.3879L87.3792 87.6553L87.4942 87.7515H87.4969L87.5316 87.7836L87.6573 87.8878L89.5233 89.4652L89.5635 89.4999L89.5955 89.524L89.8067 89.7031L90.2292 90.0614L90.6516 90.4169L90.7131 90.4678L92.6781 92.1253L92.9507 92.3552L94.8463 93.954L104.658 102.234L105 102.522L118.429 113.853L121.872 116.759L123.153 117.839C123.425 118.069 123.739 118.243 124.079 118.351C124.418 118.46 124.775 118.5 125.13 118.47C125.485 118.441 125.83 118.341 126.146 118.178C126.463 118.014 126.744 117.79 126.973 117.518C127.166 117.292 127.319 117.036 127.425 116.759C127.619 116.268 127.665 115.731 127.557 115.215C127.45 114.698 127.193 114.225 126.818 113.853ZM49.3757 51.8787C52.0578 48.7004 55.5844 46.3456 59.548 45.0865C63.5116 43.8274 67.7506 43.7153 71.7752 44.7632C75.7999 45.8111 79.4459 47.9762 82.2923 51.0084C85.1386 54.0406 87.069 57.8162 87.8605 61.899C87.8952 62.0781 87.9273 62.2545 87.9567 62.4336C88.0663 63.0726 88.1465 63.7196 88.1947 64.3666C88.208 64.5457 88.2214 64.7221 88.2294 64.9013C88.2534 65.3023 88.2641 65.706 88.2641 66.107C88.2657 68.5396 87.8627 70.9555 87.0718 73.2559V73.2586C86.1878 75.8379 84.8306 78.2297 83.0696 80.3112C83.0322 80.354 82.9947 80.3995 82.9546 80.4422C82.6017 80.8593 82.2301 81.2603 81.8478 81.6426C81.8451 81.6453 81.8424 81.6506 81.8398 81.6533C81.7087 81.7843 81.5751 81.918 81.4414 82.041C81.1687 82.3057 80.8907 82.5569 80.6073 82.7976C80.1822 83.1692 79.7464 83.5176 79.3 83.8429C79.1503 83.9525 79.0005 84.0595 78.8481 84.1664C78.6985 84.2733 78.5461 84.3749 78.3936 84.4765C78.0888 84.6797 77.7787 84.8749 77.4659 85.0593C77.3109 85.1529 77.1505 85.2438 76.9927 85.332C76.835 85.4229 76.6746 85.5085 76.5142 85.5914C76.3538 85.6769 76.1934 85.7598 76.0303 85.84C75.7068 86.0031 75.3806 86.1554 75.0491 86.2971C74.8834 86.372 74.7176 86.4415 74.5518 86.5057C74.4476 86.5484 74.346 86.5912 74.2417 86.6287C74.201 86.6475 74.159 86.6636 74.1161 86.6768C74.0599 86.7008 74.0038 86.7222 73.9477 86.741C73.9294 86.7492 73.9107 86.7564 73.8915 86.7623C73.7765 86.8078 73.6643 86.8479 73.5466 86.888C73.3782 86.9495 73.2097 87.0056 73.0386 87.0591C72.8676 87.1152 72.6991 87.1687 72.528 87.2168C72.3569 87.2703 72.1832 87.3184 72.012 87.3639C71.8383 87.412 71.6672 87.4575 71.4934 87.4975C71.3089 87.5457 71.1245 87.5885 70.9373 87.6285C70.7742 87.666 70.6138 87.698 70.4507 87.7275C70.2983 87.7595 70.1433 87.7863 69.9909 87.813C69.777 87.8505 69.5631 87.8852 69.3466 87.9146C69.2289 87.9334 69.114 87.9494 68.9964 87.9601C68.9456 87.9681 68.8974 87.9734 68.8493 87.9788C68.6996 88.0002 68.5499 88.0162 68.4028 88.0296C68.3628 88.0322 68.3254 88.0376 68.2879 88.0403C68.1248 88.0563 67.9591 88.0697 67.7959 88.083C67.4458 88.1071 67.0982 88.1231 66.748 88.1312C66.5715 88.1338 66.3924 88.1365 66.2159 88.1365C66.0395 88.1365 65.863 88.1338 65.6866 88.1285C65.6866 88.1285 65.6866 88.1312 65.6839 88.1285C65.6812 88.1312 65.6812 88.1312 65.6786 88.1285C65.6782 88.1288 65.6778 88.1291 65.6773 88.1293C65.6769 88.1295 65.6764 88.1296 65.6759 88.1296C65.6754 88.1296 65.6749 88.1295 65.6744 88.1293C65.674 88.1291 65.6736 88.1288 65.6732 88.1285C65.6645 88.1312 65.6552 88.1312 65.6465 88.1285C65.5209 88.1285 65.3952 88.1231 65.2722 88.1151C65.1813 88.1124 65.0877 88.1098 64.9942 88.1017C64.8686 88.0964 64.7429 88.0884 64.6172 88.0777C64.5771 88.0777 64.537 88.0724 64.4969 88.0697C64.4781 88.0692 64.4593 88.0675 64.4408 88.0644C64.3125 88.0537 64.1815 88.0429 64.0531 88.0296C63.989 88.0242 63.9221 88.0189 63.8579 88.0109C63.6628 87.9895 63.4676 87.9654 63.2751 87.9387C63.0559 87.9119 62.8367 87.8799 62.6201 87.8398C62.5185 87.8264 62.4196 87.8077 62.3207 87.789C62.1897 87.7676 62.0587 87.7435 61.9277 87.7168C61.7913 87.6901 61.655 87.6633 61.5186 87.6312C61.409 87.6072 61.2968 87.5831 61.1872 87.5564C61.1336 87.5457 61.0802 87.5323 61.0294 87.519C60.7487 87.4521 60.4706 87.3799 60.1952 87.2997C60.0215 87.2516 59.8477 87.2008 59.6766 87.1473C59.4413 87.0752 59.2088 86.9976 58.9762 86.9147C58.8853 86.8853 58.797 86.8533 58.7061 86.8185C58.6152 86.7891 58.527 86.7543 58.4361 86.7196C58.3533 86.6901 58.2704 86.6581 58.1901 86.626C58.0565 86.5752 57.9255 86.5217 57.7945 86.4683C57.5244 86.3586 57.2598 86.2437 56.9951 86.1207C56.8454 86.0486 56.6957 85.979 56.5486 85.9069C55.9685 85.6261 55.3973 85.3142 54.8349 84.9711C54.6959 84.8882 54.5569 84.8 54.4179 84.7118C54.2441 84.6049 54.0757 84.4926 53.9073 84.3803C53.8137 84.3161 53.7228 84.2547 53.6318 84.1905C53.4634 84.0728 53.2976 83.9525 53.1346 83.8322C53.049 83.7707 52.9635 83.7066 52.8806 83.6424C52.5838 83.4178 52.2925 83.1826 52.0064 82.9419C51.8701 82.827 51.7337 82.7094 51.6 82.5891C51.5439 82.5409 51.4877 82.4901 51.4316 82.4393C51.3675 82.3805 51.3033 82.3243 51.2418 82.2628L51.2365 82.2575C51.1429 82.1746 51.0492 82.0864 50.9584 81.9982C50.8167 81.8645 50.6777 81.7282 50.544 81.5892C50.405 81.4529 50.2713 81.3112 50.1403 81.1721C50.0066 81.0331 49.8783 80.8914 49.7527 80.747C49.6243 80.6053 49.4987 80.461 49.3757 80.3139C49.2554 80.1749 49.1378 80.0305 49.0254 79.8888C48.7527 79.552 48.4925 79.2089 48.2448 78.8595C48.1299 78.6991 48.0203 78.5387 47.9133 78.3757C47.7983 78.2099 47.6887 78.0415 47.5844 77.873C47.4748 77.7046 47.3706 77.5335 47.269 77.3597C47.2664 77.3538 47.2628 77.3484 47.2583 77.3437C47.0578 77.0041 46.8653 76.6619 46.6861 76.3144C46.5017 75.9615 46.3279 75.605 46.1648 75.245C46.082 75.0658 46.0018 74.8841 45.9269 74.7023C45.7718 74.336 45.6274 73.9698 45.4938 73.5981C45.4269 73.419 45.3654 73.2399 45.304 73.0581C45.302 73.0461 45.2984 73.0344 45.2933 73.0233C45.1703 72.6544 45.058 72.2828 44.9591 71.9085C44.9564 71.9032 44.9564 71.8978 44.9537 71.8925C44.9029 71.708 44.8548 71.5235 44.8121 71.3364C44.7693 71.1733 44.7319 71.0102 44.6971 70.8445C44.657 70.66 44.6169 70.4755 44.5821 70.2884C44.5634 70.1921 44.5447 70.0959 44.5287 69.9996C44.5126 69.9194 44.4992 69.8365 44.4859 69.7564C44.4725 69.6762 44.4592 69.5933 44.4458 69.5104C44.419 69.3473 44.395 69.1842 44.3736 69.0212C44.3468 68.8286 44.3255 68.6362 44.3041 68.441C44.28 68.2084 44.2587 67.9758 44.2399 67.7405C44.2266 67.5828 44.2185 67.4224 44.2106 67.262C44.2025 67.115 44.1945 66.9679 44.1918 66.8209C44.1891 66.8131 44.1891 66.8046 44.1918 66.7968C44.1915 66.7965 44.1912 66.7961 44.191 66.7956C44.1908 66.7951 44.1907 66.7946 44.1907 66.7941C44.1907 66.7936 44.1908 66.7931 44.191 66.7927C44.1912 66.7922 44.1915 66.7918 44.1918 66.7915C44.1892 66.7888 44.1892 66.7888 44.1918 66.7861C44.1915 66.7858 44.1912 66.7854 44.191 66.7849C44.1908 66.7844 44.1907 66.7839 44.1907 66.7834C44.1907 66.7829 44.1908 66.7825 44.191 66.782C44.1912 66.7815 44.1915 66.7811 44.1918 66.7808C44.1892 66.722 44.1865 66.6632 44.1865 66.6043C44.1811 66.4306 44.1785 66.2568 44.1785 66.083C44.1785 65.9253 44.1811 65.7702 44.1838 65.6125C44.1891 65.3932 44.1972 65.174 44.2078 64.9548C44.2078 64.9067 44.2132 64.8612 44.2159 64.8131C44.2185 64.765 44.2212 64.7195 44.2239 64.6713C44.2293 64.5698 44.2373 64.4682 44.248 64.3666C44.2476 64.3478 44.2485 64.3291 44.2507 64.3104C44.2587 64.1955 44.2693 64.0806 44.28 63.9656C44.3014 63.7357 44.3282 63.5031 44.3575 63.2732C44.3736 63.1582 44.387 63.0433 44.4057 62.9283C44.4164 62.8481 44.4297 62.7652 44.4431 62.6823C44.4538 62.5994 44.4672 62.5166 44.4832 62.4337C44.5019 62.3241 44.5207 62.2117 44.5421 62.0995C44.5527 62.0326 44.5661 61.9658 44.5795 61.899C44.6303 61.6316 44.6864 61.3643 44.7478 61.097C44.8093 60.8269 44.8789 60.5596 44.9537 60.2922C45.0259 60.0222 45.1061 59.7522 45.1917 59.4822C45.2318 59.3458 45.2746 59.2122 45.3227 59.0785C45.4109 58.8085 45.5045 58.5411 45.6088 58.2764C45.6569 58.1454 45.7077 58.0118 45.7638 57.8808C45.8708 57.6161 45.983 57.3514 46.098 57.0921C46.1568 56.9611 46.2157 56.8301 46.2797 56.6991C46.4001 56.4398 46.5258 56.1804 46.6621 55.9264C46.7931 55.6671 46.9348 55.4131 47.0792 55.1618C47.2236 54.9105 47.3732 54.6592 47.531 54.4106C47.6032 54.2876 47.6833 54.162 47.7662 54.0416C47.9267 53.7957 48.0951 53.5497 48.2662 53.3091C48.6111 52.8225 48.9827 52.3439 49.3757 51.8787ZM44.2453 64.3666C44.2373 64.4682 44.2293 64.5698 44.2239 64.6713C44.2293 64.5698 44.2373 64.4682 44.248 64.3666C44.2476 64.3478 44.2485 64.3291 44.2507 64.3104C44.248 64.3291 44.248 64.3479 44.2453 64.3666ZM44.5768 61.899C44.5661 61.9658 44.5528 62.0326 44.5421 62.0995C44.5527 62.0326 44.5661 61.9658 44.5795 61.899H44.5768ZM51.2365 82.2575V82.2602C51.2365 82.2628 51.2391 82.2628 51.2418 82.2628L51.2365 82.2575Z" fill="#B8B8B8"/>
</svg>
