<svg width="250" height="250" viewBox="0 0 250 250" fill="none" xmlns="http://www.w3.org/2000/svg">
<circle r="125" transform="matrix(1 0 0 -1 125 125)" fill="#3455FF"/>
<path d="M128.495 191.497C128.495 193.432 126.927 195 124.993 195H113.567C113.545 195 113.524 195 113.502 195C113.346 195 113.19 194.989 113.036 194.969C112.734 194.929 112.445 194.851 112.173 194.74C111.602 194.507 111.085 194.119 110.689 193.588L80.7375 153.326C80.5667 153.107 80.4208 152.865 80.3048 152.605C80.1316 152.218 80.0336 151.81 80.0075 151.401C79.974 150.89 80.0538 150.39 80.2281 149.932C80.4044 149.467 80.6819 149.034 81.0547 148.67C81.3465 148.384 81.6909 148.147 82.0762 147.976C82.3342 147.861 82.6019 147.779 82.8728 147.729C104.379 143.324 111.299 137.138 113.316 132.721C114.12 130.962 116.197 130.187 117.957 130.991C119.716 131.795 120.491 133.873 119.687 135.632C116.082 143.525 106.196 149.365 89.5357 153.418L115.258 187.995H124.992C126.927 187.995 128.495 189.563 128.495 191.497ZM150.844 150.373C151.235 150.514 151.635 150.581 152.027 150.581C153.463 150.581 154.81 149.691 155.323 148.262C155.978 146.441 155.032 144.435 153.212 143.782C144.765 140.747 139.286 136.922 137.367 132.722C136.564 130.963 134.485 130.187 132.727 130.991C130.967 131.795 130.192 133.872 130.996 135.632C133.756 141.674 140.433 146.634 150.844 150.373ZM113.011 92.3351C111.536 93.1126 110.011 93.9166 108.533 94.7478C105.439 96.4873 102.471 98.5409 101.714 101.76C101.051 104.582 102.381 107.027 103.614 108.842C106.431 112.99 114.08 122.638 124.241 122.654C127.379 122.649 130.487 121.652 134.317 119.419C143.463 114.088 149.145 103.953 149.145 92.9698C149.145 88.3857 148.407 84.1545 146.953 80.3941C146.255 78.59 144.227 77.6934 142.423 78.3912C140.619 79.0889 139.722 81.1172 140.42 82.9213C141.562 85.8722 142.141 89.2531 142.141 92.9698C142.141 101.471 137.791 109.287 130.79 113.368C128.087 114.943 126.064 115.647 124.241 115.65C118.68 115.641 112.933 110.094 109.409 104.907C108.77 103.966 108.603 103.507 108.559 103.337C108.71 103.101 109.362 102.318 111.966 100.854C113.362 100.069 114.844 99.2876 116.278 98.5319C124.261 94.3237 132.516 89.9714 133.947 81.3152C135.227 73.5708 132.471 68.8687 129.933 66.2875C125.845 62.1303 119.24 60.3772 111.811 61.4773C109.897 61.761 108.576 63.5417 108.86 65.4551C109.143 67.3686 110.923 68.6901 112.837 68.4064C118.027 67.6375 122.437 68.6555 124.938 71.199C126.973 73.2677 127.679 76.2871 127.036 80.1731C126.172 85.397 119.779 88.7674 113.011 92.3351ZM138.103 167.88C136.169 167.88 134.601 169.447 134.601 171.382V191.217C134.601 193.152 136.169 194.719 138.103 194.719C140.038 194.719 141.606 193.152 141.606 191.217V171.382C141.606 169.447 140.038 167.88 138.103 167.88ZM152.641 178.815C150.707 178.815 149.139 180.383 149.139 182.318V191.217C149.139 193.152 150.707 194.719 152.641 194.719C154.576 194.719 156.144 193.152 156.144 191.217V182.318C156.144 180.383 154.576 178.815 152.641 178.815ZM167.179 138.326C165.245 138.326 163.677 139.894 163.677 141.828V191.217C163.677 193.152 165.245 194.719 167.179 194.719C169.114 194.719 170.681 193.152 170.681 191.217V141.828C170.681 139.894 169.114 138.326 167.179 138.326ZM165.711 85.7181C165.711 63.2658 147.445 45 124.993 45C102.54 45 84.2733 63.2658 84.2733 85.7181V114.973C84.2733 125.08 92.4964 133.303 102.604 133.303C104.538 133.303 106.106 131.736 106.106 129.801C106.106 127.867 104.538 126.299 102.604 126.299C96.3587 126.299 91.278 121.218 91.278 114.973V85.7181C91.278 67.1281 106.402 52.0047 124.993 52.0047C143.583 52.0047 158.707 67.1285 158.707 85.7181V114.973C158.707 121.218 153.626 126.299 147.381 126.299C145.446 126.299 143.879 127.867 143.879 129.801C143.879 131.736 145.446 133.303 147.381 133.303C157.489 133.303 165.711 125.08 165.711 114.973V85.7181Z" fill="url(#paint0_linear_3928_915)"/>
<path d="M65 168.711C71.5507 168.711 74.2599 165.065 75.0787 168.137V204.112C71.2709 204.669 68.9258 205.08 65 205.346V168.711Z" fill="url(#paint1_linear_3928_915)"/>
<path d="M92 186.892C98.4995 186.892 101.188 185.09 102 186.608V204.39C98.2219 204.665 95.8951 204.868 92 205V186.892Z" fill="url(#paint2_linear_3928_915)"/>
<path d="M120 168.711C126.551 168.711 129.26 165.065 130.079 168.137V204.112C126.271 204.669 123.926 205.08 120 205.346V168.711Z" fill="url(#paint3_linear_3928_915)"/>
<ellipse cx="124.977" cy="168.123" rx="4.97676" ry="5.12327" fill="#00EB7A"/>
<path d="M171 141.5C171 143.433 169.433 145 167.5 145C165.567 145 164 143.433 164 141.5C164 139.567 165.567 138 167.5 138C169.433 138 171 139.567 171 141.5Z" fill="#0DC998"/>
<circle cx="152.5" cy="182.5" r="3.5" fill="#0DC998"/>
<path d="M141.5 171.5C141.5 173.433 139.933 175 138 175C136.067 175 134.5 173.433 134.5 171.5C134.5 169.567 136.067 168 138 168C139.933 168 141.5 169.567 141.5 171.5Z" fill="#0DC998"/>
<ellipse cx="69.9768" cy="168.123" rx="4.97676" ry="5.12327" fill="#00EB7A"/>
<ellipse cx="96.9768" cy="186.123" rx="4.97676" ry="5.12327" fill="#00EB7A"/>
<defs>
<linearGradient id="paint0_linear_3928_915" x1="125.341" y1="45" x2="125.341" y2="195" gradientUnits="userSpaceOnUse">
<stop stop-color="white"/>
<stop offset="1" stop-color="white" stop-opacity="0"/>
</linearGradient>
<linearGradient id="paint1_linear_3928_915" x1="69.913" y1="119.811" x2="69.913" y2="205.585" gradientUnits="userSpaceOnUse">
<stop stop-color="white"/>
<stop offset="1" stop-color="#3455FF"/>
</linearGradient>
<linearGradient id="paint2_linear_3928_915" x1="96.8746" y1="162.722" x2="96.8746" y2="205.118" gradientUnits="userSpaceOnUse">
<stop stop-color="white"/>
<stop offset="1" stop-color="#3455FF"/>
</linearGradient>
<linearGradient id="paint3_linear_3928_915" x1="124.913" y1="119.811" x2="124.913" y2="205.585" gradientUnits="userSpaceOnUse">
<stop stop-color="white"/>
<stop offset="1" stop-color="#3455FF"/>
</linearGradient>
</defs>
</svg>
