<svg width="38" height="38" viewBox="0 0 38 38" fill="none" xmlns="http://www.w3.org/2000/svg">
<path d="M19 38C29.4934 38 38 29.4934 38 19C38 8.50659 29.4934 0 19 0C8.50659 0 0 8.50659 0 19C0 29.4934 8.50659 38 19 38Z" fill="black"/>
<path d="M15.0248 17.3673L18.9992 13.3929L22.9736 17.371L25.2855 15.0591L18.9992 8.76904L12.7129 15.0554L15.0248 17.3673Z" fill="#F3BA2F"/>
<path d="M8.76953 18.998L11.0813 16.6862L13.3931 18.998L11.0813 21.3098L8.76953 18.998Z" fill="#F3BA2F"/>
<path d="M15.0266 20.6326L19.001 24.607L22.9754 20.6289L25.291 22.9408H25.2873L19.001 29.2309L12.7146 22.9445L12.7109 22.9408L15.0266 20.6326Z" fill="#F3BA2F"/>
<path d="M24.6055 19.002L26.9172 16.6901L29.229 19.0019L26.9173 21.3137L24.6055 19.002Z" fill="#F3BA2F"/>
<path d="M21.3447 18.9999L18.9994 16.6509L17.2664 18.3876L17.066 18.5843L16.6541 18.9962L16.6504 18.9999L16.6541 19.0036L18.9994 21.3489L21.3447 18.9999V18.9999Z" fill="#F3BA2F"/>
</svg>
