<svg width="17" height="20" viewBox="0 0 17 20" fill="none" xmlns="http://www.w3.org/2000/svg">
<path fill-rule="evenodd" clip-rule="evenodd" d="M15.2932 12.4707C15.8842 12.1841 16.6877 12.6183 16.9068 13.3999C17.1326 14.1815 16.9732 15.0934 16.1498 15.4755L8.85849 19.01C8.47334 19.201 7.98194 19.1924 7.5503 19.01L2.4238 16.9865L0 20V13.5215L1.8992 11.4199L2.82887 10.3865L2.84215 10.3691L2.85543 10.3604C2.96168 10.2909 3.07457 10.2475 3.1941 10.2128C3.73863 10.0478 4.28315 10.178 4.73471 10.5167L9.88777 13.5041C10.1069 13.6431 10.2729 13.8168 10.4124 14.0426C10.512 14.2423 10.585 14.5028 10.5784 14.7547C10.605 14.9805 10.5717 15.2497 10.4854 15.4842C10.2596 16.2397 9.56239 16.5784 8.98466 16.2657L6.14915 14.5983L5.95657 15.2323L8.79208 16.8997C9.55575 17.36 10.5917 16.9084 10.9436 15.901C11.0698 15.5536 11.0764 14.911 11.0432 14.5289L15.2932 12.4707Z" fill="#636363"/>
<path d="M14.4577 6.54659C14.999 8.78128 13.6525 11.0381 11.4502 11.5873C9.24785 12.1365 7.02376 10.7702 6.48249 8.53551C5.94122 6.30082 7.28775 4.04402 9.49005 3.4948C11.6924 2.94557 13.9164 4.3119 14.4577 6.54659ZM12.0405 6.53817C11.9895 5.97998 11.5153 5.7913 10.9161 5.736L10.9187 4.96197L10.4543 4.96045L10.4518 5.71408C10.3297 5.71368 10.205 5.71572 10.081 5.71781L10.0836 4.9592L9.61946 4.95763L9.61672 5.73143C9.51617 5.73317 9.41743 5.73473 9.32117 5.73448L9.32112 5.73207L8.68064 5.72968L8.67909 6.23287C8.67909 6.23287 9.02203 6.2274 9.01631 6.23378C9.20441 6.23446 9.26526 6.34546 9.28273 6.44112L9.27984 7.3229C9.29282 7.32302 9.30975 7.32363 9.32891 7.32636C9.31344 7.32632 9.29688 7.32616 9.27985 7.32626L9.27562 8.56153C9.26716 8.62157 9.23205 8.71721 9.10064 8.71701C9.10656 8.72236 8.76309 8.71577 8.76309 8.71577L8.66895 9.27813L9.27325 9.28014C9.38571 9.28066 9.49636 9.28296 9.60497 9.28402L9.60256 10.0669L10.0664 10.0685L10.069 9.29393C10.1926 9.29689 10.3163 9.29851 10.4399 9.29877L10.4371 10.0698L10.9015 10.0713L10.9042 9.28982C11.6851 9.24701 12.2322 9.0493 12.3025 8.3057C12.3593 7.70694 12.0824 7.43876 11.6396 7.32929C11.9093 7.19113 12.0785 6.94663 12.0405 6.53817ZM11.3852 8.20987C11.3836 8.79489 10.3965 8.72501 10.0818 8.72426L10.0854 7.68705C10.4001 7.68818 11.3873 7.59968 11.3852 8.20987ZM11.1741 6.74578C11.1722 7.27802 10.349 7.21314 10.0869 7.21229L10.0901 6.27159C10.3522 6.27244 11.1759 6.19063 11.1741 6.74578Z" fill="#636363"/>
</svg>
