<svg width="15" height="16" viewBox="0 0 15 16" fill="none" xmlns="http://www.w3.org/2000/svg">
<path d="M14.375 5.99982C14.5408 5.99982 14.6997 5.92958 14.8169 5.80456C14.9342 5.67953 15 5.50996 15 5.33314V3.33311C14.9999 3.1961 14.9603 3.06243 14.8865 2.9503C14.8127 2.83817 14.7083 2.75302 14.5875 2.70643L7.7125 0.0397171C7.57518 -0.013239 7.42482 -0.013239 7.2875 0.0397171L0.4125 2.70643C0.291706 2.75302 0.187301 2.83817 0.113492 2.9503C0.0396827 3.06243 5.46497e-05 3.1961 0 3.33311V5.33314C0 5.50996 0.0658481 5.67953 0.183058 5.80456C0.300269 5.92958 0.45924 5.99982 0.625 5.99982H1.25V14.6666H0V16H15V14.6666H13.75V5.99982H14.375ZM1.25 3.79978L7.5 1.37307L13.75 3.79978V4.66647H1.25V3.79978ZM8.75 14.6666H6.25V5.99982H8.75V14.6666ZM2.5 5.99982H5V14.6666H2.5V5.99982ZM12.5 14.6666H10V5.99982H12.5V14.6666Z" fill="#636363"/>
</svg>
