<svg width="17" height="19" viewBox="0 0 17 19" fill="none" xmlns="http://www.w3.org/2000/svg">
<path d="M15.5854 4.38498C15.4986 4.38498 14.314 4.38477 14.1661 4.38477H12.0429C11.9003 4.38477 13.0088 4.38484 12.145 4.38519C12.0898 4.38522 12.0444 4.42995 12.0444 4.48514L12.0437 5.84652L12.0438 7.00061C12.0438 7.0975 12.1678 7.13775 12.2248 7.05934L14.1661 4.38477L15.5854 4.38498Z" fill="#636363"/>
<path d="M12.0447 14.9151V17.365C12.0447 17.5036 12.1453 17.6161 12.2693 17.6161H15.315C15.4391 17.6161 15.5396 17.5036 15.5396 17.365V12.731V11.9601V5.69043L12.0447 10.27V14.9151Z" fill="#636363"/>
<path d="M6.60278 14.0274V15.6108V17.365C6.60278 17.5036 6.70329 17.6161 6.82745 17.6161H9.87307C9.99709 17.6161 10.0977 17.5036 10.0977 17.365V16.1428V11.2186L8.59066 10.7266L6.60278 14.0274Z" fill="#636363"/>
<path d="M9.0617 9.20669L10.0353 9.58823V5.37711V3.69355C10.0353 3.50261 9.93605 3.34766 9.81381 3.34766H6.81179C6.6894 3.34766 6.59033 3.50261 6.59033 3.69355V6.11016V11.2155L7.93835 9.03929C8.16302 8.70448 8.61236 9.03929 9.0617 9.20669Z" fill="#636363"/>
<path d="M3.88052 11.0618L4.95842 12.0362V9.1435V5.20754C4.95842 4.94312 4.85642 4.72852 4.73074 4.72852H1.64442C1.51859 4.72852 1.41675 4.94312 1.41675 5.20754V10.2117V12.0362L2.80262 10.7835C3.26457 10.4355 3.49555 10.7139 3.88052 11.0618Z" fill="#636363"/>
<path d="M1.46021 14.1547V14.7416V17.3647C1.46021 17.5033 1.56071 17.6158 1.68487 17.6158H4.7305C4.85451 17.6158 4.95517 17.5033 4.95517 17.3647V14.5126L3.16769 12.5859L1.46021 14.1547Z" fill="#636363"/>
<path d="M16.2917 3.654C16.1345 3.50417 15.7175 3.47772 15.5833 3.65366L10.7314 10.1729L8.41786 9.41696C8.26119 9.36524 8.09314 9.4337 8.00222 9.58503L5.63001 13.5235L3.50494 11.2333C3.36819 11.0858 3.1543 11.0762 3.00722 11.2112L0.13669 13.8479C-0.0229751 13.9947 -0.0461909 14.2582 0.0851659 14.4371C0.159307 14.5379 0.266549 14.5898 0.37469 14.5898C0.458417 14.5898 0.542593 14.5583 0.612241 14.4947L3.22545 12.0947L5.4317 14.4726C5.51139 14.5583 5.62028 14.5999 5.73111 14.5876C5.8412 14.5746 5.94036 14.5076 6.00221 14.405L8.47044 10.3065L10.7538 11.0526C10.8952 11.0982 11.048 11.0483 11.1439 10.9227L16.2917 4.38476C16.4259 4.20882 16.4489 3.80399 16.2917 3.654Z" fill="#636363"/>
</svg>
