<svg width="15" height="13" viewBox="0 0 15 13" fill="none" xmlns="http://www.w3.org/2000/svg">
<path d="M0.46875 8.32422C0.59307 8.32422 0.712299 8.37348 0.800206 8.46117C0.888114 8.54887 0.9375 8.6678 0.9375 8.79181V11.1298C0.9375 11.3778 1.03627 11.6157 1.21209 11.7911C1.3879 11.9665 1.62636 12.065 1.875 12.065H13.125C13.3736 12.065 13.6121 11.9665 13.7879 11.7911C13.9637 11.6157 14.0625 11.3778 14.0625 11.1298V8.79181C14.0625 8.6678 14.1119 8.54887 14.1998 8.46117C14.2877 8.37348 14.4069 8.32422 14.5312 8.32422C14.6556 8.32422 14.7748 8.37348 14.8627 8.46117C14.9506 8.54887 15 8.6678 15 8.79181V11.1298C15 11.6259 14.8025 12.1016 14.4508 12.4524C14.0992 12.8031 13.6223 13.0002 13.125 13.0002H1.875C1.37772 13.0002 0.900806 12.8031 0.549175 12.4524C0.197544 12.1016 0 11.6259 0 11.1298V8.79181C0 8.6678 0.049386 8.54887 0.137294 8.46117C0.225201 8.37348 0.34443 8.32422 0.46875 8.32422V8.32422Z" fill="white"/>
<path d="M7.16872 0.137374C7.21226 0.0938283 7.26399 0.0592796 7.32094 0.0357068C7.37788 0.0121339 7.43894 0 7.50059 0C7.56225 0 7.6233 0.0121339 7.68025 0.0357068C7.7372 0.0592796 7.78892 0.0938283 7.83247 0.137374L10.645 2.94295C10.733 3.03075 10.7824 3.14984 10.7824 3.27401C10.7824 3.39818 10.733 3.51726 10.645 3.60506C10.5569 3.69287 10.4376 3.74219 10.3131 3.74219C10.1886 3.74219 10.0692 3.69287 9.98122 3.60506L7.96934 1.59721V9.82035C7.96934 9.94436 7.91996 10.0633 7.83205 10.151C7.74414 10.2387 7.62491 10.2879 7.50059 10.2879C7.37627 10.2879 7.25704 10.2387 7.16914 10.151C7.08123 10.0633 7.03184 9.94436 7.03184 9.82035V1.59721L5.01997 3.60506C4.97638 3.64854 4.92465 3.68303 4.8677 3.70655C4.81076 3.73008 4.74973 3.74219 4.68809 3.74219C4.62646 3.74219 4.56543 3.73008 4.50848 3.70655C4.45154 3.68303 4.3998 3.64854 4.35622 3.60506C4.31263 3.56159 4.27806 3.50998 4.25448 3.45317C4.23089 3.39637 4.21875 3.33549 4.21875 3.27401C4.21875 3.21252 4.23089 3.15164 4.25448 3.09484C4.27806 3.03804 4.31263 2.98642 4.35622 2.94295L7.16872 0.137374Z" fill="white"/>
</svg>
