<svg width="107" height="54" viewBox="0 0 107 54" fill="none" xmlns="http://www.w3.org/2000/svg">
<rect x="9" y="10" width="24" height="17" fill="white"/>
<rect x="33" y="4" width="14" height="23" fill="white"/>
<rect x="47" y="12" width="16" height="15" fill="white"/>
<rect x="11" y="12" width="4" height="4" fill="black"/>
<rect x="17" y="12" width="4" height="4" fill="black"/>
<rect x="23" y="12" width="4" height="4" fill="black"/>
<rect x="29" y="12" width="4" height="4" fill="black"/>
<rect x="38" y="6" width="4" height="4" fill="black"/>
<rect x="38" y="12" width="4" height="4" fill="black"/>
<rect x="38" y="18" width="4" height="4" fill="black"/>
<rect x="47" y="14" width="14" height="2" fill="black"/>
<path d="M2 22H107V52H2V22Z" fill="#FF6A6A"/>
<path d="M0.5 24.5H104.5V53.5H0.5V24.5Z" stroke="#FF6A6A"/>
<path d="M47.9219 43C50.3203 43 51.7656 41.7969 51.7656 39.8125C51.7656 38.3125 50.7344 37.2266 49.2031 37.0547V36.9922C50.3281 36.8047 51.2109 35.7344 51.2109 34.5391C51.2109 32.8359 49.8984 31.7266 47.8984 31.7266H43.3984V43H47.9219ZM45.1484 33.1562H47.4766C48.7422 33.1562 49.4609 33.7344 49.4609 34.7812C49.4609 35.8984 48.625 36.5234 47.1094 36.5234H45.1484V33.1562ZM45.1484 41.5703V37.8594H47.4609C49.1172 37.8594 49.9766 38.4844 49.9766 39.7031C49.9766 40.9219 49.1406 41.5703 47.5625 41.5703H45.1484ZM55.9453 41.8047C55.0391 41.8047 54.4453 41.3359 54.4453 40.6172C54.4453 39.9141 55.0156 39.4688 56.0234 39.3984L58.0469 39.2734V39.9219C58.0469 40.9922 57.125 41.8047 55.9453 41.8047ZM55.4766 43.1406C56.5547 43.1406 57.5938 42.5625 58.0703 41.6484H58.1094V43H59.7266V37.3359C59.7266 35.6875 58.4531 34.6328 56.4609 34.6328C54.4297 34.6328 53.1641 35.7266 53.0703 37.2109H54.6641C54.8125 36.4766 55.4219 36.0078 56.3984 36.0078C57.4297 36.0078 58.0469 36.5547 58.0469 37.4688V38.1016L55.7969 38.2344C53.8438 38.3438 52.7422 39.2266 52.7422 40.6641C52.7422 42.1406 53.8672 43.1406 55.4766 43.1406ZM64.4531 43.1406C65.6484 43.1406 66.5859 42.5391 67.0703 41.6016H67.1016V43H68.7422V31.7266H67.0469V36.1484H67.0156C66.5547 35.2422 65.6172 34.6484 64.4375 34.6484C62.375 34.6484 61 36.2969 61 38.8906C61 41.4844 62.375 43.1406 64.4531 43.1406ZM64.8984 36.0703C66.1953 36.0703 67.0625 37.1875 67.0625 38.8906C67.0625 40.6094 66.1953 41.7109 64.8984 41.7109C63.5625 41.7109 62.7266 40.625 62.7266 38.8906C62.7266 37.1641 63.5625 36.0703 64.8984 36.0703Z" fill="white"/>
<path d="M94 0L98.3301 22.5H89.6699L94 0Z" fill="white"/>
</svg>
