<svg width="107" height="54" viewBox="0 0 107 54" fill="none" xmlns="http://www.w3.org/2000/svg">
<rect x="9" y="10" width="24" height="17" fill="white"/>
<rect x="33" y="4" width="14" height="23" fill="white"/>
<rect x="47" y="12" width="16" height="15" fill="white"/>
<rect x="11" y="12" width="4" height="4" fill="black"/>
<rect x="17" y="12" width="4" height="4" fill="black"/>
<rect x="23" y="12" width="4" height="4" fill="black"/>
<rect x="29" y="12" width="4" height="4" fill="black"/>
<rect x="38" y="6" width="4" height="4" fill="black"/>
<rect x="38" y="12" width="4" height="4" fill="black"/>
<rect x="38" y="18" width="4" height="4" fill="black"/>
<rect x="47" y="14" width="14" height="2" fill="black"/>
<path d="M2 22H107V52H2V22Z" fill="#F5977A"/>
<path d="M0.5 24.5H104.5V53.5H0.5V24.5Z" stroke="#F5977A"/>
<path d="M47.75 38.3125V37.1641H43.1094V38.5781H46.0234V38.7734C46 40.4844 44.7344 41.6562 42.9062 41.6562C40.7578 41.6562 39.4219 39.9922 39.4219 37.2969C39.4219 34.6484 40.7188 33.0703 42.875 33.0703C44.3438 33.0703 45.4453 33.875 45.8672 35.2734H47.6641C47.2734 33.0234 45.375 31.5391 42.8672 31.5391C39.6562 31.5391 37.6328 33.7578 37.6328 37.3125C37.6328 40.9297 39.6641 43.1875 42.8906 43.1875C45.9453 43.1875 47.75 41.3672 47.75 38.3125ZM52.7891 43.1562C55.1406 43.1562 56.6875 41.5391 56.6875 38.8906C56.6875 36.25 55.1328 34.6328 52.7891 34.6328C50.4453 34.6328 48.8906 36.25 48.8906 38.8906C48.8906 41.5391 50.4375 43.1562 52.7891 43.1562ZM52.7891 41.7656C51.4688 41.7656 50.6094 40.7188 50.6094 38.8906C50.6094 37.0703 51.4688 36.0234 52.7891 36.0234C54.1094 36.0234 54.9688 37.0703 54.9688 38.8906C54.9688 40.7188 54.1172 41.7656 52.7891 41.7656ZM61.5234 43.1562C63.875 43.1562 65.4219 41.5391 65.4219 38.8906C65.4219 36.25 63.8672 34.6328 61.5234 34.6328C59.1797 34.6328 57.625 36.25 57.625 38.8906C57.625 41.5391 59.1719 43.1562 61.5234 43.1562ZM61.5234 41.7656C60.2031 41.7656 59.3438 40.7188 59.3438 38.8906C59.3438 37.0703 60.2031 36.0234 61.5234 36.0234C62.8438 36.0234 63.7031 37.0703 63.7031 38.8906C63.7031 40.7188 62.8516 41.7656 61.5234 41.7656ZM69.8125 43.1406C71.0078 43.1406 71.9453 42.5391 72.4297 41.6016H72.4609V43H74.1016V31.7266H72.4062V36.1484H72.375C71.9141 35.2422 70.9766 34.6484 69.7969 34.6484C67.7344 34.6484 66.3594 36.2969 66.3594 38.8906C66.3594 41.4844 67.7344 43.1406 69.8125 43.1406ZM70.2578 36.0703C71.5547 36.0703 72.4219 37.1875 72.4219 38.8906C72.4219 40.6094 71.5547 41.7109 70.2578 41.7109C68.9219 41.7109 68.0859 40.625 68.0859 38.8906C68.0859 37.1641 68.9219 36.0703 70.2578 36.0703Z" fill="white"/>
<path d="M94 0L98.3301 22.5H89.6699L94 0Z" fill="white"/>
</svg>
