<svg width="107" height="54" viewBox="0 0 107 54" fill="none" xmlns="http://www.w3.org/2000/svg">
<rect x="9" y="10" width="24" height="17" fill="white"/>
<rect x="33" y="4" width="14" height="23" fill="white"/>
<rect x="47" y="12" width="16" height="15" fill="white"/>
<rect x="11" y="12" width="4" height="4" fill="black"/>
<rect x="17" y="12" width="4" height="4" fill="black"/>
<rect x="23" y="12" width="4" height="4" fill="black"/>
<rect x="29" y="12" width="4" height="4" fill="black"/>
<rect x="38" y="6" width="4" height="4" fill="black"/>
<rect x="38" y="12" width="4" height="4" fill="black"/>
<rect x="38" y="18" width="4" height="4" fill="black"/>
<rect x="47" y="14" width="14" height="2" fill="black"/>
<path d="M2 22H107V52H2V22Z" fill="#4CA078"/>
<path d="M0.5 24.5H104.5V53.5H0.5V24.5Z" stroke="#4CA078"/>
<path d="M32.8906 41.4844H27.4844V37.9844H32.6016V36.5312H27.4844V33.2344H32.8906V31.7266H25.7344V43H32.8906V41.4844ZM37.5625 39.9766L39.375 43H41.2344L38.5703 38.8438L41.2656 34.7812H39.4062L37.6328 37.7578H37.6016L35.8047 34.7812H33.9141L36.5859 38.8984L33.875 43H35.7031L37.5234 39.9766H37.5625ZM49.1953 37.6094C49.0469 35.9922 47.7578 34.6328 45.6406 34.6328C43.3047 34.6328 41.7734 36.2812 41.7734 38.8906C41.7734 41.5469 43.3047 43.1562 45.6562 43.1562C47.6328 43.1562 49.0312 41.9688 49.2109 40.2188H47.5859C47.3906 41.1719 46.7109 41.7422 45.6719 41.7422C44.3594 41.7422 43.4922 40.6953 43.4922 38.8906C43.4922 37.125 44.3516 36.0391 45.6562 36.0391C46.7578 36.0391 47.4141 36.7344 47.5859 37.6094H49.1953ZM53.8438 35.9922C55.0234 35.9922 55.8203 36.875 55.8594 38.1328H51.75C51.8359 36.8906 52.6641 35.9922 53.8438 35.9922ZM55.8516 40.5859C55.625 41.3047 54.9141 41.7891 53.9531 41.7891C52.6016 41.7891 51.7422 40.8438 51.7422 39.4141V39.3125H57.5469V38.7344C57.5469 36.2422 56.125 34.6328 53.8438 34.6328C51.5234 34.6328 50.0391 36.3516 50.0391 38.9297C50.0391 41.5234 51.5 43.1562 53.9141 43.1562C55.7969 43.1562 57.2188 42.0859 57.4531 40.5859H55.8516ZM58.9219 43H60.6094V31.7266H58.9219V43ZM62.4062 43H64.0938V31.7266H62.4062V43ZM69.2656 35.9922C70.4453 35.9922 71.2422 36.875 71.2812 38.1328H67.1719C67.2578 36.8906 68.0859 35.9922 69.2656 35.9922ZM71.2734 40.5859C71.0469 41.3047 70.3359 41.7891 69.375 41.7891C68.0234 41.7891 67.1641 40.8438 67.1641 39.4141V39.3125H72.9688V38.7344C72.9688 36.2422 71.5469 34.6328 69.2656 34.6328C66.9453 34.6328 65.4609 36.3516 65.4609 38.9297C65.4609 41.5234 66.9219 43.1562 69.3359 43.1562C71.2188 43.1562 72.6406 42.0859 72.875 40.5859H71.2734ZM74.2812 43H75.9688V38.2109C75.9688 36.9375 76.7344 36.0938 77.9219 36.0938C79.0938 36.0938 79.6719 36.7734 79.6719 38.0078V43H81.3672V37.6797C81.3672 35.7969 80.3281 34.6406 78.5156 34.6406C77.25 34.6406 76.375 35.2188 75.9297 36.1562H75.8906V34.7812H74.2812V43ZM83.4922 32.8359V34.7812H82.2969V36.1172H83.4922V40.8359C83.4922 42.4219 84.1406 43.0547 85.8047 43.0547C86.1797 43.0547 86.5547 43.0234 86.7422 42.9766V41.6406C86.6328 41.6641 86.3594 41.6797 86.1875 41.6797C85.5 41.6797 85.1875 41.3594 85.1875 40.6484V36.1172H86.75V34.7812H85.1875V32.8359H83.4922Z" fill="white"/>
<path d="M94 0L98.3301 22.5H89.6699L94 0Z" fill="white"/>
</svg>
