<svg width="33" height="20" viewBox="0 0 33 20" fill="none" xmlns="http://www.w3.org/2000/svg">
<path d="M15.5 1.85352L15.5 0.353522L16.1269 0.353522L16.5674 0.799656L15.5 1.85352ZM32.5 17.5623C32.4947 18.3907 31.8188 19.058 30.9904 19.0527L17.4907 18.9665C16.6623 18.9612 15.995 18.2854 16.0003 17.457C16.0056 16.6286 16.6814 15.9613 17.5098 15.9666L29.5096 16.0432L29.5862 4.04344C29.5915 3.21503 30.2674 2.54776 31.0958 2.55305C31.9242 2.55834 32.5915 3.23418 32.5862 4.06259L32.5 17.5623ZM6.31875e-07 0.353516L15.5 0.353522L15.5 3.35352L-6.31875e-07 3.35352L6.31875e-07 0.353516ZM16.5674 0.799656L32.0674 16.4989L29.9326 18.6066L14.4326 2.90739L16.5674 0.799656Z" fill="white"/>
</svg>
