<svg width="111" height="42" viewBox="0 0 111 42" fill="none" xmlns="http://www.w3.org/2000/svg">
<rect x="5.5" y="9" width="105" height="33" fill="#8692D5"/>
<path d="M108.502 7.63093H109.002V7.13093H108.502V7.63093ZM108.502 39V39.5H109.002V39H108.502ZM4 39L3.5 39L3.49998 39.5H4V39ZM4.35545 0.646464C4.1602 0.451192 3.84362 0.451177 3.64835 0.646429L0.466209 3.82825C0.270937 4.0235 0.270921 4.34009 0.466174 4.53536C0.661426 4.73063 0.978009 4.73065 1.17328 4.53539L4.00185 1.70711L6.83013 4.53567C7.02539 4.73095 7.34197 4.73096 7.53724 4.53571C7.73251 4.34046 7.73253 4.02387 7.53728 3.8286L4.35545 0.646464ZM5.11727 8.13093H108.502V7.13093H5.11727V8.13093ZM108.002 7.63093V39H109.002V7.63093H108.002ZM108.502 38.5H4V39.5H108.502V38.5ZM4.5 39L4.50188 1.00002L3.50188 0.999975L3.5 39L4.5 39Z" fill="#8692D4"/>
</svg>
