<svg width="22" height="25" viewBox="0 0 22 25" fill="none" xmlns="http://www.w3.org/2000/svg">
<path d="M17.7867 6.90171C17.9303 6.89638 18.0661 6.83562 18.1657 6.73221C18.2654 6.6288 18.3211 6.49079 18.3211 6.34719C18.3211 6.20358 18.2654 6.06557 18.1657 5.96216C18.0661 5.85875 17.9303 5.798 17.7867 5.79266H14.5522V5.02781H17.4196C17.7256 5.02781 17.9703 4.77923 17.9703 4.47711C17.9703 4.17117 17.7256 3.92259 17.4196 3.92259H11.6602V3.90729L11.1937 1.67773H10.7654C10.7271 1.67773 10.6927 1.69686 10.6698 1.72363L8.18779 4.81747C8.01952 5.02781 7.76712 5.15018 7.4956 5.15018H7.16288L7.15906 9.81199H7.68681L9.65632 10.6457H16.6815C16.825 10.6404 16.9609 10.5796 17.0605 10.4762C17.1602 10.3728 17.2158 10.2348 17.2158 10.0912C17.2158 9.94756 17.1602 9.80955 17.0605 9.70613C16.9609 9.60272 16.825 9.54197 16.6815 9.53664H14.5522V8.77178H17.4196C17.7256 8.77178 17.9703 8.5232 17.9703 8.22109C17.9703 7.91514 17.7256 7.66656 17.4196 7.66656H14.5522V6.90171H17.7867ZM0 4.47711L2.63876 10.5921H6.3942V4.47711H0ZM4.52795 9.55002C4.34741 9.55002 4.17427 9.4783 4.04661 9.35064C3.91895 9.22298 3.84723 9.04984 3.84723 8.8693C3.84723 8.68876 3.91895 8.51562 4.04661 8.38796C4.17427 8.2603 4.34741 8.18858 4.52795 8.18858C4.90426 8.18858 5.20715 8.49452 5.20715 8.86777C5.20735 8.95717 5.18994 9.04572 5.15591 9.12839C5.12189 9.21106 5.07192 9.28621 5.00885 9.34956C4.94578 9.41292 4.87085 9.46323 4.78834 9.49762C4.70583 9.53202 4.61735 9.54982 4.52795 9.55002Z" fill="white"/>
<path d="M16.0041 3.15771H12.3045C12.2976 3.15772 12.2908 3.15527 12.2855 3.15079C12.2802 3.14631 12.2766 3.14009 12.2755 3.13324L11.6192 0.0340361C11.6185 0.0298349 11.6188 0.0255399 11.62 0.0214466C11.6211 0.0173534 11.6231 0.0135591 11.6259 0.0103246C11.6287 0.00709022 11.6321 0.00449248 11.636 0.00271018C11.6398 0.00092787 11.644 3.26913e-06 11.6483 0H16.6604C16.6784 0 16.6921 0.016062 16.6894 0.0340361L16.0328 3.13324C16.0316 3.14003 16.0281 3.1462 16.0229 3.15067C16.0177 3.15514 16.011 3.15763 16.0041 3.15771ZM16.7258 11.4101C16.7105 11.414 16.6914 11.414 16.6761 11.414H11.5783C9.88413 13.8997 7.30273 17.3034 7.30273 19.4832C7.30273 19.7165 7.31038 19.9421 7.33333 20.1601C7.57043 22.4088 9.53612 24.08 11.8001 24.08H16.5231C18.6341 24.08 20.5501 22.6344 20.9172 20.5578C20.9746 20.2213 21.009 19.858 21.009 19.4832C21.009 17.2995 18.4696 13.8959 16.7258 11.4101ZM14.1559 17.1733C15.1578 17.1733 15.9762 17.9917 15.9762 18.9975C15.9762 19.8695 15.3567 20.5999 14.5383 20.7758V21.4948H13.7734V20.7758C12.9512 20.5999 12.3317 19.8695 12.3317 18.9975H13.0965C13.0969 19.2065 13.1592 19.4107 13.2755 19.5843C13.3919 19.7579 13.557 19.8931 13.7502 19.9729C13.9433 20.0527 14.1558 20.0735 14.3607 20.0326C14.5656 19.9918 14.7539 19.8911 14.9016 19.7433C15.0494 19.5955 15.1501 19.4073 15.1909 19.2024C15.2318 18.9974 15.211 18.785 15.1312 18.5918C15.0514 18.3987 14.9162 18.2335 14.7426 18.1172C14.569 18.0009 14.3648 17.9386 14.1559 17.9382C13.1501 17.9382 12.3317 17.1198 12.3317 16.1178C12.3317 15.2421 12.9512 14.5116 13.7734 14.3357V13.6168H14.5383V14.3357C15.3567 14.5116 15.9762 15.2421 15.9762 16.1178H15.2114C15.2114 15.5327 14.7371 15.0585 14.1559 15.0585C13.8749 15.0585 13.6055 15.1701 13.4068 15.3688C13.2081 15.5674 13.0965 15.8369 13.0965 16.1178C13.0965 16.6991 13.5707 17.1733 14.1559 17.1733Z" fill="white"/>
<ellipse cx="14" cy="17.5" rx="3" ry="4.5" fill="#D9D9D9"/>
</svg>
