<svg width="112" height="47" viewBox="0 0 112 47" fill="none" xmlns="http://www.w3.org/2000/svg">
<path d="M0.63691 13.0965L9.8572 45.1248C13.2135 44.5639 16.3633 44.03 19.3372 43.5258C35.2134 40.8346 46.0746 38.9934 56.5625 38.4397C68.9769 37.7842 80.8616 38.9316 99.9282 42.5727L97.0445 16.6195C95.153 16.2894 93.3168 15.9671 91.5302 15.6536C75.0547 12.7623 62.7902 10.6099 50.1445 9.82444C36.1734 8.95662 21.7271 9.75746 0.63691 13.0965Z" stroke="#F5977A"/>
<path d="M12 47C55.1132 39.8035 64.1236 37.0234 103 44.5L100 17.5C60.9641 10.6921 45.3372 7.16521 2.5 14L12 47Z" fill="#F5977A"/>
<path d="M23.0156 32V23.6953H23.0859L28.9297 32H30.5078V20.7266H28.8047V29.0391H28.7422L22.8984 20.7266H21.3125V32H23.0156ZM35.8281 24.9922C37.0078 24.9922 37.8047 25.875 37.8438 27.1328H33.7344C33.8203 25.8906 34.6484 24.9922 35.8281 24.9922ZM37.8359 29.5859C37.6094 30.3047 36.8984 30.7891 35.9375 30.7891C34.5859 30.7891 33.7266 29.8438 33.7266 28.4141V28.3125H39.5312V27.7344C39.5312 25.2422 38.1094 23.6328 35.8281 23.6328C33.5078 23.6328 32.0234 25.3516 32.0234 27.9297C32.0234 30.5234 33.4844 32.1562 35.8984 32.1562C37.7812 32.1562 39.2031 31.0859 39.4375 29.5859H37.8359ZM47.8906 23.7812H46.2031V28.5703C46.2031 29.8516 45.4688 30.6953 44.25 30.6953C43.0859 30.6953 42.4922 30.0234 42.4922 28.7734V23.7812H40.8047V29.1016C40.8047 30.9844 41.8984 32.1484 43.6875 32.1484C44.9453 32.1484 45.7812 31.5938 46.2344 30.6094H46.2734V32H47.8906V23.7812ZM50.0547 21.8359V23.7812H48.8594V25.1172H50.0547V29.8359C50.0547 31.4219 50.7031 32.0547 52.3672 32.0547C52.7422 32.0547 53.1172 32.0234 53.3047 31.9766V30.6406C53.1953 30.6641 52.9219 30.6797 52.75 30.6797C52.0625 30.6797 51.75 30.3594 51.75 29.6484V25.1172H53.3125V23.7812H51.75V21.8359H50.0547ZM54.7031 32H56.3906V27.0781C56.3906 25.9141 57.0625 25.1875 58.1484 25.1875C58.4766 25.1875 58.7734 25.2266 58.9062 25.2812V23.7109C58.7812 23.6875 58.5703 23.6484 58.3281 23.6484C57.3594 23.6484 56.625 24.2188 56.3516 25.1797H56.3125V23.7812H54.7031V32ZM62.6562 30.8047C61.75 30.8047 61.1562 30.3359 61.1562 29.6172C61.1562 28.9141 61.7266 28.4688 62.7344 28.3984L64.7578 28.2734V28.9219C64.7578 29.9922 63.8359 30.8047 62.6562 30.8047ZM62.1875 32.1406C63.2656 32.1406 64.3047 31.5625 64.7812 30.6484H64.8203V32H66.4375V26.3359C66.4375 24.6875 65.1641 23.6328 63.1719 23.6328C61.1406 23.6328 59.875 24.7266 59.7812 26.2109H61.375C61.5234 25.4766 62.1328 25.0078 63.1094 25.0078C64.1406 25.0078 64.7578 25.5547 64.7578 26.4688V27.1016L62.5078 27.2344C60.5547 27.3438 59.4531 28.2266 59.4531 29.6641C59.4531 31.1406 60.5781 32.1406 62.1875 32.1406ZM68.1406 32H69.8281V20.7266H68.1406V32Z" fill="white"/>
<circle cx="95" cy="14" r="14" fill="#D9D9D9"/>
<path d="M112 44.5C112 42.5958 111.573 40.7103 110.744 38.9511C109.915 37.1919 108.699 35.5934 107.167 34.247C105.635 32.9005 103.816 31.8324 101.814 31.1037C99.8124 30.3751 97.6668 30 95.5 30C93.3332 30 91.1876 30.3751 89.1857 31.1037C87.1839 31.8324 85.3649 32.9005 83.8327 34.247C82.3006 35.5934 81.0852 37.1919 80.256 38.9511C79.4268 40.7103 79 42.5958 79 44.5L95.5 44.5H112Z" fill="white"/>
</svg>
