<svg width="112" height="47" viewBox="0 0 112 47" fill="none" xmlns="http://www.w3.org/2000/svg">
<path d="M0.63691 13.0965L9.8572 45.1248C13.2135 44.5639 16.3633 44.03 19.3372 43.5258C35.2134 40.8346 46.0746 38.9934 56.5625 38.4397C68.9769 37.7842 80.8616 38.9316 99.9282 42.5727L97.0445 16.6195C95.153 16.2894 93.3168 15.9671 91.5302 15.6536C75.0547 12.7623 62.7902 10.6099 50.1445 9.82444C36.1734 8.95662 21.7271 9.75746 0.63691 13.0965Z" stroke="#4CA078"/>
<path d="M12 47C55.1132 39.8035 64.1236 37.0234 103 44.5L100 17.5C60.9641 10.6921 45.3372 7.16521 2.5 14L12 47Z" fill="#4CA078"/>
<path d="M28.2344 32C30.6328 32 32.0781 30.7969 32.0781 28.8125C32.0781 27.3125 31.0469 26.2266 29.5156 26.0547V25.9922C30.6406 25.8047 31.5234 24.7344 31.5234 23.5391C31.5234 21.8359 30.2109 20.7266 28.2109 20.7266H23.7109V32H28.2344ZM25.4609 22.1562H27.7891C29.0547 22.1562 29.7734 22.7344 29.7734 23.7812C29.7734 24.8984 28.9375 25.5234 27.4219 25.5234H25.4609V22.1562ZM25.4609 30.5703V26.8594H27.7734C29.4297 26.8594 30.2891 27.4844 30.2891 28.7031C30.2891 29.9219 29.4531 30.5703 27.875 30.5703H25.4609ZM40.4297 23.7812H38.7422V28.5703C38.7422 29.8516 38.0078 30.6953 36.7891 30.6953C35.625 30.6953 35.0312 30.0234 35.0312 28.7734V23.7812H33.3438V29.1016C33.3438 30.9844 34.4375 32.1484 36.2266 32.1484C37.4844 32.1484 38.3203 31.5938 38.7734 30.6094H38.8125V32H40.4297V23.7812ZM42.1641 32H43.8516V20.7266H42.1641V32ZM45.6484 32H47.3359V20.7266H45.6484V32ZM49.125 32H50.8125V23.7812H49.125V32ZM49.9688 22.5781C50.5156 22.5781 50.9531 22.1484 50.9531 21.6172C50.9531 21.0781 50.5156 20.6484 49.9688 20.6484C49.4297 20.6484 48.9922 21.0781 48.9922 21.6172C48.9922 22.1484 49.4297 22.5781 49.9688 22.5781ZM52.3906 26.1094C52.3906 27.2578 53.1406 28.0312 54.625 28.3906L56.0938 28.75C56.9531 28.9688 57.2656 29.2578 57.2656 29.7812C57.2656 30.4453 56.6406 30.8672 55.625 30.8672C54.5938 30.8672 53.9844 30.4297 53.8516 29.6406H52.1797C52.3125 31.1484 53.6016 32.1562 55.5469 32.1562C57.5625 32.1562 58.9609 31.125 58.9609 29.625C58.9609 28.4141 58.3359 27.7891 56.6797 27.3906L55.2969 27.0703C54.4453 26.8594 54.0391 26.5156 54.0391 26.0078C54.0391 25.3594 54.6484 24.9141 55.5625 24.9141C56.5078 24.9141 57.1094 25.375 57.1875 26.1172H58.7734C58.7188 24.6562 57.4375 23.6328 55.6094 23.6328C53.6875 23.6328 52.3906 24.6406 52.3906 26.1094ZM60.3359 32H62.0234V27.25C62.0234 25.9531 62.7891 25.0938 64.0391 25.0938C65.2266 25.0938 65.8359 25.8203 65.8359 27.0312V32H67.5312V26.7031C67.5312 24.8438 66.4531 23.6406 64.6484 23.6406C63.3984 23.6406 62.5 24.1953 62.0469 25.1562H62.0078V20.7266H60.3359V32Z" fill="white"/>
<circle cx="95" cy="14" r="14" fill="#D9D9D9"/>
<path d="M112 44.5C112 42.5958 111.573 40.7103 110.744 38.9511C109.915 37.1919 108.699 35.5934 107.167 34.247C105.635 32.9005 103.816 31.8324 101.814 31.1037C99.8124 30.3751 97.6668 30 95.5 30C93.3332 30 91.1876 30.3751 89.1857 31.1037C87.1839 31.8324 85.3649 32.9005 83.8327 34.247C82.3006 35.5934 81.0852 37.1919 80.256 38.9511C79.4268 40.7103 79 42.5958 79 44.5L95.5 44.5H112Z" fill="white"/>
</svg>
