<svg width="112" height="47" viewBox="0 0 112 47" fill="none" xmlns="http://www.w3.org/2000/svg">
<path d="M0.63691 13.0965L9.8572 45.1248C13.2135 44.5639 16.3633 44.03 19.3372 43.5258C35.2134 40.8346 46.0746 38.9934 56.5625 38.4397C68.9769 37.7842 80.8616 38.9316 99.9282 42.5727L97.0445 16.6195C95.153 16.2894 93.3168 15.9671 91.5302 15.6536C75.0547 12.7623 62.7902 10.6099 50.1445 9.82444C36.1734 8.95662 21.7271 9.75746 0.63691 13.0965Z" stroke="#FF6A6A"/>
<path d="M12 47C55.1132 39.8035 64.1236 37.0234 103 44.5L100 17.5C60.9641 10.6921 45.3372 7.16521 2.5 14L12 47Z" fill="#FF6A6A"/>
<path d="M25.0781 32C27.4766 32 28.9219 30.7969 28.9219 28.8125C28.9219 27.3125 27.8906 26.2266 26.3594 26.0547V25.9922C27.4844 25.8047 28.3672 24.7344 28.3672 23.5391C28.3672 21.8359 27.0547 20.7266 25.0547 20.7266H20.5547V32H25.0781ZM22.3047 22.1562H24.6328C25.8984 22.1562 26.6172 22.7344 26.6172 23.7812C26.6172 24.8984 25.7812 25.5234 24.2656 25.5234H22.3047V22.1562ZM22.3047 30.5703V26.8594H24.6172C26.2734 26.8594 27.1328 27.4844 27.1328 28.7031C27.1328 29.9219 26.2969 30.5703 24.7188 30.5703H22.3047ZM33.6641 24.9922C34.8438 24.9922 35.6406 25.875 35.6797 27.1328H31.5703C31.6562 25.8906 32.4844 24.9922 33.6641 24.9922ZM35.6719 29.5859C35.4453 30.3047 34.7344 30.7891 33.7734 30.7891C32.4219 30.7891 31.5625 29.8438 31.5625 28.4141V28.3125H37.3672V27.7344C37.3672 25.2422 35.9453 23.6328 33.6641 23.6328C31.3438 23.6328 29.8594 25.3516 29.8594 27.9297C29.8594 30.5234 31.3203 32.1562 33.7344 32.1562C35.6172 32.1562 37.0391 31.0859 37.2734 29.5859H35.6719ZM41.5547 30.8047C40.6484 30.8047 40.0547 30.3359 40.0547 29.6172C40.0547 28.9141 40.625 28.4688 41.6328 28.3984L43.6562 28.2734V28.9219C43.6562 29.9922 42.7344 30.8047 41.5547 30.8047ZM41.0859 32.1406C42.1641 32.1406 43.2031 31.5625 43.6797 30.6484H43.7188V32H45.3359V26.3359C45.3359 24.6875 44.0625 23.6328 42.0703 23.6328C40.0391 23.6328 38.7734 24.7266 38.6797 26.2109H40.2734C40.4219 25.4766 41.0312 25.0078 42.0078 25.0078C43.0391 25.0078 43.6562 25.5547 43.6562 26.4688V27.1016L41.4062 27.2344C39.4531 27.3438 38.3516 28.2266 38.3516 29.6641C38.3516 31.1406 39.4766 32.1406 41.0859 32.1406ZM46.9766 32H48.6641V27.0781C48.6641 25.9141 49.3359 25.1875 50.4219 25.1875C50.75 25.1875 51.0469 25.2266 51.1797 25.2812V23.7109C51.0547 23.6875 50.8438 23.6484 50.6016 23.6484C49.6328 23.6484 48.8984 24.2188 48.625 25.1797H48.5859V23.7812H46.9766V32ZM52.2812 32H53.9688V23.7812H52.2812V32ZM53.125 22.5781C53.6719 22.5781 54.1094 22.1484 54.1094 21.6172C54.1094 21.0781 53.6719 20.6484 53.125 20.6484C52.5859 20.6484 52.1484 21.0781 52.1484 21.6172C52.1484 22.1484 52.5859 22.5781 53.125 22.5781ZM55.5469 26.1094C55.5469 27.2578 56.2969 28.0312 57.7812 28.3906L59.25 28.75C60.1094 28.9688 60.4219 29.2578 60.4219 29.7812C60.4219 30.4453 59.7969 30.8672 58.7812 30.8672C57.75 30.8672 57.1406 30.4297 57.0078 29.6406H55.3359C55.4688 31.1484 56.7578 32.1562 58.7031 32.1562C60.7188 32.1562 62.1172 31.125 62.1172 29.625C62.1172 28.4141 61.4922 27.7891 59.8359 27.3906L58.4531 27.0703C57.6016 26.8594 57.1953 26.5156 57.1953 26.0078C57.1953 25.3594 57.8047 24.9141 58.7188 24.9141C59.6641 24.9141 60.2656 25.375 60.3438 26.1172H61.9297C61.875 24.6562 60.5938 23.6328 58.7656 23.6328C56.8438 23.6328 55.5469 24.6406 55.5469 26.1094ZM63.4922 32H65.1797V27.25C65.1797 25.9531 65.9453 25.0938 67.1953 25.0938C68.3828 25.0938 68.9922 25.8203 68.9922 27.0312V32H70.6875V26.7031C70.6875 24.8438 69.6094 23.6406 67.8047 23.6406C66.5547 23.6406 65.6562 24.1953 65.2031 25.1562H65.1641V20.7266H63.4922V32Z" fill="white"/>
<circle cx="95" cy="14" r="14" fill="#D9D9D9"/>
<path d="M112 44.5C112 42.5958 111.573 40.7103 110.744 38.9511C109.915 37.1919 108.699 35.5934 107.167 34.247C105.635 32.9005 103.816 31.8324 101.814 31.1037C99.8124 30.3751 97.6668 30 95.5 30C93.3332 30 91.1876 30.3751 89.1857 31.1037C87.1839 31.8324 85.3649 32.9005 83.8327 34.247C82.3006 35.5934 81.0852 37.1919 80.256 38.9511C79.4268 40.7103 79 42.5958 79 44.5L95.5 44.5H112Z" fill="white"/>
</svg>
