<svg xmlns="http://www.w3.org/2000/svg" fill="none" viewBox="0 0 104.59 41.55">
<rect x="2.5" y="8.5" width="74" height="27" stroke="#F3A2A2"/>
<path d="M87.5 24.3535L87.5 22.8535L88.1269 22.8535L88.5674 23.2996L87.5 24.3535ZM104.5 40.0623C104.495 40.8907 103.819 41.558 102.99 41.5527L89.4907 41.4665C88.6623 41.4612 87.995 40.7854 88.0003 39.957C88.0056 39.1285 88.6814 38.4613 89.5099 38.4666L101.51 38.5432L101.586 26.5434C101.592 25.715 102.267 25.0478 103.096 25.053C103.924 25.0583 104.591 25.7342 104.586 26.5626L104.5 40.0623ZM65 22.8535L87.5 22.8535L87.5 25.8535L65 25.8535L65 22.8535ZM88.5674 23.2996L104.067 38.9989L101.933 41.1066L86.4326 25.4074L88.5674 23.2996Z" fill="white"/>
<rect y="10" width="75" height="28" fill="#FF6A6A"/>
<rect x="11" y="4" width="9" height="6" fill="#D9D9D9"/>
<rect x="22" width="9" height="10" fill="#D9D9D9"/>
<rect x="33" y="2" width="9" height="8" fill="#D9D9D9"/>
<rect x="44" y="6" width="9" height="4" fill="#D9D9D9"/>
<circle cx="75" cy="24" r="5" fill="#FFCBCB"/>
</svg>