<svg xmlns="http://www.w3.org/2000/svg" fill="none" viewBox="0 3 104.59 38">
<rect x="2.5" y="11.4961" width="74" height="27" stroke="#4CA078"/>
<path d="M87.5 27.0527L87.5 28.5527L88.1269 28.5527L88.5674 28.1066L87.5 27.0527ZM104.5 11.3439C104.495 10.5155 103.819 9.84826 102.99 9.85355L89.4907 9.93975C88.6623 9.94504 87.995 10.6209 88.0003 11.4493C88.0056 12.2777 88.6814 12.945 89.5099 12.9397L101.51 12.8631L101.586 24.8628C101.592 25.6912 102.267 26.3585 103.096 26.3532C103.924 26.3479 104.591 25.6721 104.586 24.8437L104.5 11.3439ZM65 28.5527L87.5 28.5527L87.5 25.5527L65 25.5527L65 28.5527ZM88.5674 28.1066L104.067 12.4074L101.933 10.2996L86.4326 25.9989L88.5674 28.1066Z" fill="white"/>
<rect y="12.9961" width="75" height="28" fill="#4CA078"/>
<rect x="11" y="6.99609" width="9" height="6" fill="#D9D9D9"/>
<rect x="22" y="2.99609" width="9" height="10" fill="#D9D9D9"/>
<rect x="33" y="4.99609" width="9" height="8" fill="#D9D9D9"/>
<rect x="44" y="8.99609" width="9" height="4" fill="#D9D9D9"/>
<circle cx="75" cy="26.9961" r="5" fill="#96D7B8"/>
</svg>