<svg width="190" height="190" viewBox="0 0 190 190" fill="none" xmlns="http://www.w3.org/2000/svg">
<rect width="189.507" height="189.507" rx="2" fill="#454ABE"/>
<path d="M95.3119 50.4391C98.0873 47.6782 102.587 47.6781 105.362 50.4391V50.4391C108.138 53.2001 108.138 57.6765 105.362 60.4374L53.5131 112.017C50.7377 114.778 46.2379 114.778 43.4625 112.017V112.017C40.6872 109.256 40.6872 104.78 43.4625 102.019L95.3119 50.4391Z" fill="#00E151"/>
<path d="M120.481 60.5634C123.255 57.8032 127.754 57.8032 130.529 60.5634V60.5634C133.303 63.3236 133.303 67.7988 130.529 70.559L56.7053 143.999C53.9307 146.759 49.4321 146.759 46.6575 143.999V143.999C43.8829 141.239 43.8829 136.763 46.6575 134.003L120.481 60.5634Z" fill="#D9D9D9"/>
<path d="M60.7035 50.0406C63.4789 47.2796 67.9787 47.2796 70.754 50.0405V50.0405C73.5294 52.8015 73.5294 57.2779 70.754 60.0389L53.4364 77.2665C50.661 80.0275 46.1613 80.0275 43.3859 77.2665V77.2665C40.6105 74.5056 40.6105 70.0292 43.3859 67.2682L60.7035 50.0406Z" fill="#00E151"/>
<path d="M130.139 120.824C132.914 118.063 137.414 118.063 140.19 120.824V120.824C142.965 123.585 142.965 128.061 140.19 130.822L124.238 146.691C121.463 149.452 116.963 149.452 114.187 146.691V146.691C111.412 143.93 111.412 139.454 114.187 136.693L130.139 120.824Z" fill="#FE405A"/>
<path d="M129.96 85.5806C132.736 82.8196 137.235 82.8196 140.011 85.5806V85.5806C142.786 88.3416 142.786 92.818 140.011 95.5789L88.1615 147.159C85.3862 149.92 80.8864 149.92 78.111 147.159V147.159C75.3356 144.398 75.3356 139.922 78.111 137.161L129.96 85.5806Z" fill="#FE405A"/>
<path d="M145.778 45.1215L136.984 76.3663L114.37 53.8701L145.778 45.1215Z" fill="#D9D9D9"/>
</svg>
