<svg width="24" height="44" viewBox="0 0 24 44" fill="none" xmlns="http://www.w3.org/2000/svg">
<path d="M13.0607 0.93934C12.4749 0.353553 11.5251 0.353553 10.9393 0.93934L1.3934 10.4853C0.807612 11.0711 0.807612 12.0208 1.3934 12.6066C1.97918 13.1924 2.92893 13.1924 3.51472 12.6066L12 4.12132L20.4853 12.6066C21.0711 13.1924 22.0208 13.1924 22.6066 12.6066C23.1924 12.0208 23.1924 11.0711 22.6066 10.4853L13.0607 0.93934ZM13.5 35L13.5 2H10.5L10.5 35H13.5Z" fill="white"/>
<circle cx="12" cy="35" r="9" fill="white"/>
<path fill-rule="evenodd" clip-rule="evenodd" d="M8.375 33.6667L7 35L11.125 39L18 32.3333L16.625 31L11.125 36.3333L8.375 33.6667Z" fill="#1B7D4E"/>
</svg>
