<svg width="24" height="43" viewBox="0 0 24 43" fill="none" xmlns="http://www.w3.org/2000/svg">
<path d="M10.9393 42.0607C11.5251 42.6464 12.4749 42.6464 13.0607 42.0607L22.6066 32.5147C23.1924 31.9289 23.1924 30.9792 22.6066 30.3934C22.0208 29.8076 21.0711 29.8076 20.4853 30.3934L12 38.8787L3.51472 30.3934C2.92893 29.8076 1.97918 29.8076 1.3934 30.3934C0.807612 30.9792 0.807612 31.9289 1.3934 32.5147L10.9393 42.0607ZM10.5 8L10.5 41H13.5L13.5 8H10.5Z" fill="white"/>
<circle cx="12" cy="9" r="9" fill="white"/>
<path d="M15.0669 12.9184L7.96273 5.88062C7.72 5.64016 7.71812 5.23947 7.95858 4.99675C8.19903 4.75402 8.59972 4.75214 8.84245 4.9926L15.9466 12.0304C16.1894 12.2709 16.1912 12.6715 15.9508 12.9143C15.7103 13.157 15.3096 13.1589 15.0669 12.9184Z" fill="#B00E0E"/>
<path d="M7.99719 12.9516C7.75447 12.7111 7.75259 12.3105 7.99304 12.0677L15.0308 4.96354C15.2713 4.72082 15.672 4.71894 15.9147 4.95939C16.1574 5.19985 16.1593 5.60054 15.9189 5.84327L8.88107 12.9475C8.64061 13.1902 8.23992 13.1921 7.99719 12.9516Z" fill="#B00E0E"/>
</svg>
