<svg width="30" height="20" viewBox="0 0 30 20" fill="none" xmlns="http://www.w3.org/2000/svg">
<path d="M12.5 18.0527L12.5 19.5527L13.1269 19.5527L13.5674 19.1066L12.5 18.0527ZM29.5 2.34393C29.4947 1.51552 28.8188 0.848246 27.9904 0.853536L14.4907 0.939736C13.6623 0.945026 12.995 1.62087 13.0003 2.44928C13.0056 3.27769 13.6814 3.94496 14.5098 3.93967L26.5096 3.86305L26.5862 15.8628C26.5915 16.6912 27.2674 17.3585 28.0958 17.3532C28.9242 17.3479 29.5915 16.6721 29.5862 15.8437L29.5 2.34393ZM0.500001 19.5527L12.5 19.5527L12.5 16.5527L0.499999 16.5527L0.500001 19.5527ZM13.5674 19.1066L29.0674 3.40737L26.9326 1.29964L11.4326 16.9989L13.5674 19.1066Z" fill="white"/>
</svg>
